<svg version="1.1" id="Layer_1" xmlns="http://www.w3.org/2000/svg" xmlns:xlink="http://www.w3.org/1999/xlink" x="0px" y="0px"
	 viewBox="0 0 140 35" style="enable-background:new 0 0 140 35;" xml:space="preserve" width="107" height="36">
<style type="text/css">
	.st0{fill:#B01A08;}
	.st1{fill:#020204;}
</style>
<path id="XMLID_2_" class="st0" d="M130.6,3.7h-6.4h-0.1h-9.4h-0.1h-0.4h-9.1H105h-9.9H95h-9.1h-0.4h-0.1h-6.7h-2.6h-0.1h-5.6h-0.8
	c-1.7,0-3.2,1.7-3.4,3.8l-2.1,19.8c-0.2,2,1.1,3.8,2.6,3.9l0,0h6.4h4.6h4.6h0.1h0.4H92h0.1h9.9h0.1h9.1h0.4h0.1h9.4h0.1h6.4
	c1.7,0,3.2-1.7,3.4-3.8l2.2-20C133.4,5.4,132.2,3.7,130.6,3.7z"/>
<g id="XMLID_92_">
	<g id="XMLID_93_">
		<path id="XMLID_94_" class="st0" d="M58.7,7.7h-1.2H44.8h-1.7H29.1h-1.2H27l0.3-2.8c0-0.4,0.1-0.6,0.3-0.8C27.7,4,28,3.9,28.4,3.9
			h11.1c0.4,0,0.6,0.1,0.7,0.2c0.1,0.1,0.1,0.4,0.1,0.8l-0.2,1.5h2.7l0.2-2c0.2-1.7-0.6-2.5-2.3-2.5H27.6c-1.7,0-2.7,0.8-2.9,2.5
			l-0.4,3.3h-0.9h-1.2H11.1l-0.2,2h7.6l-0.3,2.2h-2.7c-0.9,0-1.7,0.2-2.1,0.6c-0.5,0.4-0.8,1-0.9,1.9l-0.8,6.8c-0.1,0.9,0,1.6,0.5,2
			c0.4,0.4,1.1,0.6,2.1,0.6h1.6c0.5,0,0.9-0.1,1.1-0.3l-0.3,2.6l0,0l-0.2,2.1h1.9c0.4,0,0.6,0.1,0.7,0.2s0.1,0.4,0.1,0.7l-0.1,0.9
			c0,0.4-0.1,0.6-0.3,0.8c-0.1,0.1-0.4,0.2-0.8,0.2h-2.2c-0.7,0-1.2-0.3-1.5-0.9L13.7,29h-3.2l0.9,1.8c0.4,0.9,0.9,1.6,1.4,1.9
			c0.5,0.3,1.4,0.4,2.6,0.4h3.2c1.8,0,2.8-0.9,3-2.6l0.2-1.6c0.2-1.8-0.6-2.6-2.4-2.6h-0.1l0.9-8h-2.7L17.2,21
			c0,0.4-0.1,0.6-0.3,0.7c-0.2,0.1-0.4,0.2-0.8,0.2H15c-0.4,0-0.6-0.1-0.7-0.2c-0.1-0.1-0.1-0.4-0.1-0.7l0.7-6
			c0-0.4,0.1-0.6,0.3-0.7c0.1-0.1,0.4-0.2,0.7-0.2h4.5l0.5-4.3h0.9H23h0.9L22,26.3h2.9l1.9-16.5h0.9h1.2h10.8L39.4,12h-7.5
			c-0.9,0-1.7,0.2-2.1,0.6c-0.5,0.4-0.8,1-0.9,1.9l-0.8,6.8c-0.1,0.9,0,1.6,0.4,2s1.1,0.6,2.1,0.6h2.2c1,0,1.7-0.2,2.3-0.6
			c0.5-0.4,0.8-1.1,0.9-2l0.8-7.3h2.4l-1.4,12.2h2.7l1.9-16.5h0.5h1.7h2.7c0.6,0,0.9,0,1.1,0.2c0.1,0.1,0.2,0.4,0.1,0.8L48,14.2
			c0,0.3-0.1,0.6-0.3,0.7c-0.1,0.1-0.4,0.2-0.7,0.2h-2.7l-0.7,6.3c-0.2,1.8,0.6,2.6,2.5,2.6h4.7c0.5,0,0.9-0.1,1.1-0.3l-0.3,2.6h2.7
			l1.9-16.5h1h1.2h1l-1.9,16.5h2.6l1.9-16.5h2.1l0.2-2.1L58.7,7.7L58.7,7.7z M33.3,20.9c0,0.4-0.1,0.6-0.3,0.7
			c-0.1,0.1-0.4,0.2-0.7,0.2h-0.8c-0.4,0-0.6,0-0.7-0.2c-0.1-0.1-0.1-0.3-0.1-0.7l0.7-6.1c0-0.4,0.1-0.6,0.3-0.7
			c0.1-0.1,0.4-0.2,0.7-0.2h1.7L33.3,20.9z M52.4,20.8c0,0.4-0.1,0.7-0.3,0.8c-0.2,0.1-0.4,0.2-0.8,0.2h-4.1c-0.4,0-0.6,0-0.7-0.2
			c-0.1-0.1-0.1-0.3-0.1-0.7l0.4-3.8h0.8c1.8,0,2.8-0.9,3-2.6l0.5-3.9c0-0.4,0-0.7-0.2-0.9h2.8L52.4,20.8z"/>
	</g>
</g>
<g id="XMLID_71_">
	<g id="XMLID_236_">
		<g id="XMLID_247_">
			<g id="XMLID_248_">
				<path id="XMLID_249_" class="st1" d="M77.9,7.9h-6.5l-2.2,18.6h6.6c1.8,0,2.9-0.9,3.1-2.6l1.6-13.3C80.7,8.8,79.8,7.9,77.9,7.9z
					 M77.7,10.8l-1.5,12.6c0,0.4-0.1,0.6-0.3,0.7c-0.1,0.1-0.4,0.2-0.7,0.2h-2.9L73.9,10h2.9c0.4,0,0.6,0.1,0.7,0.2
					C77.7,10.3,77.8,10.5,77.7,10.8z"/>
			</g>
		</g>
		<g id="XMLID_245_">
			<polygon id="XMLID_246_" class="st1" points="81.8,26.4 84.3,26.4 86.5,7.9 83.8,7.9 			"/>
		</g>
		<g id="XMLID_243_">
			<polygon id="XMLID_244_" class="st1" points="99,26.4 107,26.4 107.3,24.3 101.9,24.3 102.8,17.9 106.9,17.9 107.3,15.8 
				102.9,15.8 103.7,10.1 108.8,10.1 109,7.9 101.2,7.9 			"/>
		</g>
		<g id="XMLID_241_">
			<polygon id="XMLID_242_" class="st1" points="120.7,7.9 120.4,10.1 123.5,10.1 121.7,26.4 124.3,26.4 126.2,10.1 129.4,10.1 
				129.6,7.9 			"/>
		</g>
		<g id="XMLID_239_">
			<path id="XMLID_240_" class="st1" d="M95.7,7.9h-3.2c-1.8,0-2.9,0.9-3.1,2.6l-1.5,13.3c-0.2,1.8,0.6,2.6,2.4,2.6h3.2
				c1.8,0,2.9-0.9,3.1-2.6l0.8-6.9h-4.2L93,19h1.5l-0.6,4.5c0,0.4-0.1,0.6-0.3,0.7c-0.1,0.1-0.4,0.2-0.7,0.2h-1.5
				c-0.4,0-0.6-0.1-0.7-0.2s-0.1-0.3-0.1-0.7l1.5-12.7c0-0.4,0.1-0.6,0.3-0.7c0.1-0.1,0.4-0.2,0.7-0.2h1.5c0.4,0,0.6,0.1,0.7,0.2
				s0.1,0.3,0.1,0.7L95,13.3h2.7l0.3-2.8C98.3,8.8,97.4,7.9,95.7,7.9z"/>
		</g>
		<g id="XMLID_237_">
			<path id="XMLID_238_" class="st1" d="M116.7,7.9h-2.9c-1.8,0-2.9,0.9-3.1,2.6l-0.6,4.9c-0.2,1.8,0.6,2.6,2.4,2.6h2.2
				c0.4,0,0.6,0.1,0.7,0.2s0.1,0.3,0.1,0.7l-0.5,4.5c0,0.4-0.1,0.6-0.2,0.7s-0.4,0.2-0.7,0.2h-1.2c-0.4,0-0.6-0.1-0.7-0.2
				s-0.1-0.3-0.1-0.7l0.3-2.3h-2.7l-0.3,2.7c-0.2,1.7,0.6,2.6,2.5,2.6h2.9c1.9,0,2.9-0.9,3.1-2.6l0.6-5.3c0.2-1.7-0.6-2.6-2.4-2.6
				h-2.2c-0.4,0-0.6-0.1-0.7-0.2s-0.1-0.3-0.1-0.7l0.5-4.1c0-0.4,0.1-0.6,0.3-0.7c0.1-0.1,0.4-0.2,0.7-0.2h1.2c0.4,0,0.6,0,0.7,0.2
				c0.1,0.1,0.1,0.3,0.1,0.7l-0.3,2.3h2.7l0.3-2.7C119.3,8.8,118.4,7.9,116.7,7.9z"/>
		</g>
	</g>
</g>
</svg>
