<svg xmlns="http://www.w3.org/2000/svg" width="17" height="20"><path d="M16.066 2.434a3.07 3.07 0 0 0-2.253-.934H3.187a3.071 3.071 0 0 0-2.253.935A3.071 3.071 0 0 0 0 4.687v10.626a3.071 3.071 0 0 0 .935 2.253 3.071 3.071 0 0 0 2.252.934h10.626A3.194 3.194 0 0 0 17 15.313V4.687a3.071 3.071 0 0 0-.934-2.253zm-1.6 7.809h-1.937v7.029h-2.9v-7.029h-1.45V7.819h1.45v-1.45a3.38 3.38 0 0 1 .731-2.358 3.144 3.144 0 0 1 2.413-.8h1.937v2.428h-1.218a1.023 1.023 0 0 0-.792.216 1.253 1.253 0 0 0-.171.758v1.206h2.192z" fill="#fff" fill-rule="evenodd"/></svg>