<svg xmlns="http://www.w3.org/2000/svg" viewBox="0 0 242 126"><defs><style>.cls-1{fill:none;stroke:#fff;stroke-miterlimit:10;stroke-width:7px;}.cls-2{font-size:70.91px;font-family:JosefinSans-Bold, Josefin Sans;font-weight:700;letter-spacing:-0.03em;}.cls-2,.cls-3{fill:#fff;}</style></defs><title>foodmate</title><g id="Layer_2" data-name="Layer 2"><g id="Layer_1-2" data-name="Layer 1"><circle class="cls-1" cx="179" cy="63" r="59.5"/><text class="cls-2" transform="translate(140.03 85.27)">fm</text><path class="cls-3" d="M5,39.5h99a1,1,0,0,1,1,1v4a1,1,0,0,1-1,1H1a1,1,0,0,1-1-1v0a5,5,0,0,1,5-5Z"/><path class="cls-3" d="M34.5,59.5H104a1,1,0,0,1,1,1v4a1,1,0,0,1-1,1H30.5a1,1,0,0,1-1-1v0a5,5,0,0,1,5-5Z"/><path class="cls-3" d="M70.5,79.5H104a1,1,0,0,1,1,1v4a1,1,0,0,1-1,1H66.5a1,1,0,0,1-1-1v0a5,5,0,0,1,5-5Z"/></g></g></svg>