<svg xmlns="http://www.w3.org/2000/svg" width="153" height="29.97" viewBox="0 0 153 29.97">
  <defs>
    <style>
      .cls-1 {
        fill: #fff;
        fill-rule: evenodd;
      }
    </style>
  </defs>
  <path id="foodmate" class="cls-1" d="M3164.74,1047.01v12.57h3.6v-12.57h4.94v-3.56h-4.94v-3.25a7.978,7.978,0,0,1,1.27-4.85,5.4,5.4,0,0,1,4.2-1.89v-3.44q-4.425.15-6.75,2.55-2.325,2.415-2.32,7.48v3.4H3162v3.56h2.74Zm10.94,7.97a8.153,8.153,0,0,0,1.82,2.68,7.93,7.93,0,0,0,2.68,1.73,8.944,8.944,0,0,0,3.29.6,8.408,8.408,0,0,0,3.37-.66,8.167,8.167,0,0,0,2.67-1.82,8.3,8.3,0,0,0,1.74-2.7,8.881,8.881,0,0,0,.62-3.3,8.51,8.51,0,0,0-.64-3.27,8.68,8.68,0,0,0-1.74-2.67,8.519,8.519,0,0,0-9.3-1.79,8.822,8.822,0,0,0-2.71,1.79,8.282,8.282,0,0,0-2.48,5.94A8.7,8.7,0,0,0,3175.68,1054.98Zm3.26-5.34a4.83,4.83,0,0,1,1.03-1.55,5.037,5.037,0,0,1,1.54-1.06,4.42,4.42,0,0,1,1.89-.4,4.484,4.484,0,0,1,1.89.4,5.037,5.037,0,0,1,1.54,1.06,5.434,5.434,0,0,1,1.05,1.55,4.872,4.872,0,0,1,0,3.82,5.484,5.484,0,0,1-1.05,1.56,4.981,4.981,0,0,1-1.54,1.04,4.79,4.79,0,0,1-1.89.37,4.721,4.721,0,0,1-1.89-.37,4.981,4.981,0,0,1-1.54-1.04A4.98,4.98,0,0,1,3178.94,1049.64Zm16.37,5.34a8.309,8.309,0,0,0,1.82,2.68,7.93,7.93,0,0,0,2.68,1.73,8.959,8.959,0,0,0,3.3.6,8.477,8.477,0,0,0,3.37-.66,8.23,8.23,0,0,0,2.66-1.82,8.141,8.141,0,0,0,1.74-2.7,8.881,8.881,0,0,0,.62-3.3,8.236,8.236,0,0,0-5.02-7.73,8.585,8.585,0,0,0-6.65,0,8.868,8.868,0,0,0-2.72,1.79,8.219,8.219,0,0,0-2.47,5.94A8.694,8.694,0,0,0,3195.31,1054.98Zm3.26-5.34a4.92,4.92,0,0,1,2.57-2.61,4.484,4.484,0,0,1,1.89-.4,4.42,4.42,0,0,1,1.89.4,5.051,5.051,0,0,1,2.59,2.61,4.872,4.872,0,0,1,0,3.82,5.1,5.1,0,0,1-1.05,1.56,4.981,4.981,0,0,1-1.54,1.04,4.721,4.721,0,0,1-1.89.37,4.79,4.79,0,0,1-1.89-.37,4.981,4.981,0,0,1-1.54-1.04,5.045,5.045,0,0,1-1.03-1.56A5.115,5.115,0,0,1,3198.57,1049.64Zm16.28,5.19a7.921,7.921,0,0,0,1.58,2.68,7.152,7.152,0,0,0,2.54,1.82,8.565,8.565,0,0,0,3.43.66,7.975,7.975,0,0,0,1.93-.21,7.15,7.15,0,0,0,1.52-.55,6.079,6.079,0,0,0,1.16-.73c0.33-.27.6-0.51,0.83-0.74,0,0.07-.02.19-0.04,0.34a2.123,2.123,0,0,0-.04.42v1.06h3.6v-29.56h-3.6v15.51c-0.15-.2-0.36-0.44-0.62-0.73a4.472,4.472,0,0,0-1.03-.82,6.838,6.838,0,0,0-1.53-.64,7.354,7.354,0,0,0-2.1-.26,8.028,8.028,0,0,0-5.83,2.36,7.724,7.724,0,0,0-1.72,2.67,9.24,9.24,0,0,0-.62,3.44A9.856,9.856,0,0,0,3214.85,1054.83Zm3.41-5.26a4.821,4.821,0,0,1,1.01-1.56,4.589,4.589,0,0,1,1.56-1.02,5.564,5.564,0,0,1,3.99.02,4.737,4.737,0,0,1,1.57,1.02,4.255,4.255,0,0,1,1.01,1.54,5.033,5.033,0,0,1,.36,1.91,5.211,5.211,0,0,1-.36,1.93,4.735,4.735,0,0,1-1.01,1.59,4.68,4.68,0,0,1-1.57,1.06,5.25,5.25,0,0,1-2.01.37,5.1,5.1,0,0,1-1.98-.37,4.956,4.956,0,0,1-1.56-1.04,4.805,4.805,0,0,1-1.01-1.58,5.251,5.251,0,0,1-.35-1.96A5.028,5.028,0,0,1,3218.26,1049.57Zm17.89,10.01h3.6v-7.76a5.564,5.564,0,0,1,1.22-3.69,4.219,4.219,0,0,1,3.43-1.46,3.131,3.131,0,0,1,2.34.93,3.326,3.326,0,0,1,.8,2.02v9.96h3.6v-7.72a5.619,5.619,0,0,1,1.22-3.73,4.219,4.219,0,0,1,3.43-1.46,3.114,3.114,0,0,1,2.36.93,3.507,3.507,0,0,1,.79,2.02v9.96h3.59v-11.66a4.771,4.771,0,0,0-1.53-3.5,5.587,5.587,0,0,0-3.94-1.34,6.1,6.1,0,0,0-2.1.32,5.146,5.146,0,0,0-1.59.89,6.546,6.546,0,0,0-1.25,1.36,11.358,11.358,0,0,0-1.02,1.74,4.765,4.765,0,0,0-1.66-3.12,5.624,5.624,0,0,0-3.77-1.19,5.516,5.516,0,0,0-3.76,1.26,9.291,9.291,0,0,0-2.27,3.28c-0.03-.36-0.05-0.68-0.08-0.99s-0.05-.61-0.07-0.92-0.05-.65-0.08-1.01-0.05-.75-0.07-1.21h-3.19v16.09Zm30.67-4.72a7.943,7.943,0,0,0,1.74,2.63,8.556,8.556,0,0,0,2.66,1.82,8.33,8.33,0,0,0,3.38.68,7.3,7.3,0,0,0,3.56-.83,4.779,4.779,0,0,0,1.01-.7,5.532,5.532,0,0,0,.52-0.55,1.4,1.4,0,0,1-.02.25c-0.01.11-.01,0.23-0.01,0.36v1.06h3.63v-16.09h-3.48l-0.15,1.93a3.1,3.1,0,0,0-.49-0.62,4.463,4.463,0,0,0-1.03-.78,8.13,8.13,0,0,0-1.56-.66,6.665,6.665,0,0,0-2.02-.28,7.5,7.5,0,0,0-3.2.7,8.645,8.645,0,0,0-2.66,1.87,8.864,8.864,0,0,0-1.82,2.74,8.309,8.309,0,0,0-.68,3.31A8.2,8.2,0,0,0,3266.82,1054.86Zm3.37-5.29a4.688,4.688,0,0,1,1.02-1.56,4.453,4.453,0,0,1,1.55-1.02,5.3,5.3,0,0,1,1.99-.36,5.1,5.1,0,0,1,1.98.38,4.9,4.9,0,0,1,1.56,1.02,4.531,4.531,0,0,1,1.01,1.54,5.033,5.033,0,0,1,.36,1.91,5.211,5.211,0,0,1-.36,1.93,5.067,5.067,0,0,1-1.01,1.59,4.845,4.845,0,0,1-1.56,1.06,5.51,5.51,0,0,1-3.97,0,4.8,4.8,0,0,1-1.55-1.04,4.674,4.674,0,0,1-1.02-1.58,5.459,5.459,0,0,1-.35-1.96A5.228,5.228,0,0,1,3270.19,1049.57Zm19.36-6.08h-2.7v3.26h2.7v12.83h3.56v-12.83h4.16v-3.26h-4.16v-7.04h-3.56v7.04Zm21.47,11.62a4.573,4.573,0,0,1-1.63.96,5.79,5.79,0,0,1-1.97.36,4.705,4.705,0,0,1-2.55-.71,5.1,5.1,0,0,1-1.76-1.9c0.9-.35,1.89-0.75,2.96-1.19s2.15-.88,3.22-1.3l3.09-1.23c0.99-.4,1.86-0.73,2.61-1.01a8.911,8.911,0,0,0-2.91-4.33,7.316,7.316,0,0,0-4.74-1.65,7.782,7.782,0,0,0-3.2.67,8.423,8.423,0,0,0-2.66,1.81,8.934,8.934,0,0,0-1.82,2.69,8.007,8.007,0,0,0-.67,3.27,8.088,8.088,0,0,0,.67,3.28,8.888,8.888,0,0,0,1.82,2.68,8.3,8.3,0,0,0,2.7,1.82,8.4,8.4,0,0,0,3.31.66,9.833,9.833,0,0,0,3.38-.6,8.525,8.525,0,0,0,2.81-1.67Zm-2.25-6.15c-0.65.26-1.33,0.55-2.04,0.85s-1.43.6-2.14,0.89-1.38.56-2,.81v-0.15a4.345,4.345,0,0,1,.37-1.76,5.327,5.327,0,0,1,1.01-1.51,4.807,4.807,0,0,1,1.54-1.06,4.608,4.608,0,0,1,1.91-.4,4.274,4.274,0,0,1,1.76.4,2.748,2.748,0,0,1,1.35,1.23C3310.01,1048.46,3309.42,1048.7,3308.77,1048.96Z" transform="translate(-3162 -1030.03)"/>
</svg>
