<svg xmlns="http://www.w3.org/2000/svg" width="17" height="20"><path data-name="youtube copy 2" d="M16.066 2.434a3.07 3.07 0 0 0-2.253-.934H3.187a3.071 3.071 0 0 0-2.253.935A3.071 3.071 0 0 0 0 4.687v10.626a3.071 3.071 0 0 0 .935 2.253 3.071 3.071 0 0 0 2.252.934h10.626A3.194 3.194 0 0 0 17 15.313V4.687a3.071 3.071 0 0 0-.934-2.253z" fill-rule="evenodd" fill="#fff"/><path data-name="Forma 1" d="M12.082 9.5h-4.17v1.4h2.544a3 3 0 1 1-.725-3.013l1.009-1.106a4.435 4.435 0 0 0-3.126-1.286 4.504 4.504 0 0 0 0 9.009 4.578 4.578 0 0 0 4.468-3.6V9.5zm2.708 0h-.853v-.863h-.731V9.5h-.853v.734h.853v.86h.731v-.86h.853V9.5z" fill="#046fc2" fill-rule="evenodd"/></svg>