<svg xmlns="http://www.w3.org/2000/svg" viewBox="0 0 427.42 65"><defs><style>.cls-1{fill:#fff;}.cls-2{fill:#fbb800;}</style></defs><title>innervoice</title><g id="Layer_2" data-name="Layer 2"><g id="Layer_1-2" data-name="Layer 1"><path class="cls-1" d="M0,5.78A5.43,5.43,0,0,1,1.75,1.64,5.59,5.59,0,0,1,5.67,0,5.48,5.48,0,0,1,9.49,1.64a5.44,5.44,0,0,1,1.75,4.14A5.27,5.27,0,0,1,9.49,9.87a5.57,5.57,0,0,1-3.82,1.58A5.69,5.69,0,0,1,1.75,9.87,5.26,5.26,0,0,1,0,5.78ZM10,62.49H1V21.59H10Z"/><path class="cls-1" d="M25.41,21.59h8v1q.22,2.62.38,4.74t.38,4.74a17.86,17.86,0,0,1,7-8.34,19.51,19.51,0,0,1,10.74-3.11q6.43,0,10.14,3.38A12.1,12.1,0,0,1,66,32.83V62.49H56.93V37A8.31,8.31,0,0,0,54.8,31.9q-1.91-2.13-6.05-2.34a15,15,0,0,0-5.4,1,14.63,14.63,0,0,0-4.53,2.73,13.68,13.68,0,0,0-3.16,4.14,11.53,11.53,0,0,0-1.2,5.24V62.49H25.41Z"/><path class="cls-1" d="M79.4,21.59h8v1q.22,2.62.38,4.74t.38,4.74a17.86,17.86,0,0,1,7-8.34,19.51,19.51,0,0,1,10.74-3.11q6.43,0,10.14,3.38A12.1,12.1,0,0,1,120,32.83V62.49h-9.05V37a8.31,8.31,0,0,0-2.13-5.07q-1.91-2.13-6.05-2.34a15,15,0,0,0-5.4,1,14.63,14.63,0,0,0-4.53,2.73,13.68,13.68,0,0,0-3.16,4.14,11.53,11.53,0,0,0-1.2,5.24V62.49H79.4Z"/><path class="cls-1" d="M169.38,38.72,154.6,44.17l-14.78,5.45a11.74,11.74,0,0,0,4.31,3.65,13.11,13.11,0,0,0,6.05,1.36,10.87,10.87,0,0,0,8.29-3.49L164,57.7a20.14,20.14,0,0,1-6.22,4.25,18.87,18.87,0,0,1-7.63,1.53,21.75,21.75,0,0,1-15.49-6.33,22,22,0,0,1-4.64-6.82,21.3,21.3,0,0,1,0-16.63,21.19,21.19,0,0,1,4.64-6.82,22.16,22.16,0,0,1,6.93-4.58,21.69,21.69,0,0,1,8.56-1.69A16,16,0,0,1,156.67,22a18.6,18.6,0,0,1,5.56,3.76,24.93,24.93,0,0,1,4.31,5.73A29.59,29.59,0,0,1,169.38,38.72Zm-19.2-9.27a12.93,12.93,0,0,0-7.53,2.18,11.79,11.79,0,0,0-4.47,5.67,17.6,17.6,0,0,0-.76,3.82q5.13-1.85,10.2-3.76t10.2-3.76a13.39,13.39,0,0,0-3.44-3A8,8,0,0,0,150.18,29.45Z"/><path class="cls-1" d="M206.35,29.56q-6.65,0-10.69,3.71a12.19,12.19,0,0,0-4,9.38V62.49h-9.05V21.59h8v1q.22,2.62.38,4.74t.38,4.74a18.85,18.85,0,0,1,3.33-4.85,24.25,24.25,0,0,1,4.25-3.6,20.68,20.68,0,0,1,4.36-2.24,11.36,11.36,0,0,1,3.76-.76Z"/><path class="cls-2" d="M240.7,65q-5.89-10.91-11.78-21.7t-11.78-21.7h9.05q1.74,3.27,3.82,6.76t4.09,7q2,3.49,3.71,7a67.07,67.07,0,0,1,2.89,7,48.76,48.76,0,0,1,2.84-7q1.74-3.54,3.76-7l4-7q2-3.49,3.87-6.76h9.05q-5.89,10.91-11.78,21.7T240.7,65Z"/><path class="cls-2" d="M269.71,42a20.71,20.71,0,0,1,1.69-8.29A21.18,21.18,0,0,1,276,26.88,22.15,22.15,0,0,1,283,22.3a21.69,21.69,0,0,1,8.56-1.69,22.26,22.26,0,0,1,15.6,6.27,21.19,21.19,0,0,1,4.64,6.82,21.3,21.3,0,0,1,0,16.63,22,22,0,0,1-4.64,6.82,21.5,21.5,0,0,1-7,4.63,22.08,22.08,0,0,1-8.62,1.69A21.75,21.75,0,0,1,276,57.15a22,22,0,0,1-4.63-6.82A20.58,20.58,0,0,1,269.71,42Zm9.05.11a12.33,12.33,0,0,0,1,4.91,12.41,12.41,0,0,0,6.65,6.65,12.76,12.76,0,0,0,9.82,0,13.21,13.21,0,0,0,4-2.67A12.15,12.15,0,0,0,303,47a12.75,12.75,0,0,0,0-9.82,12.82,12.82,0,0,0-6.76-6.76,12.75,12.75,0,0,0-9.82,0,12.15,12.15,0,0,0-4,2.73,13.22,13.22,0,0,0-2.67,4A12.33,12.33,0,0,0,278.76,42.1Z"/><path class="cls-2" d="M322.93,5.78a5.43,5.43,0,0,1,1.75-4.14A5.59,5.59,0,0,1,328.6,0a5.48,5.48,0,0,1,3.82,1.64,5.44,5.44,0,0,1,1.75,4.14,5.27,5.27,0,0,1-1.75,4.09,5.58,5.58,0,0,1-3.82,1.58,5.69,5.69,0,0,1-3.93-1.58A5.26,5.26,0,0,1,322.93,5.78Zm10,56.71h-9.05V21.59H333Z"/><path class="cls-2" d="M373.32,51.92q1.42,1.75,2.73,3.44t2.73,3.44a23.3,23.3,0,0,1-6.27,3.44,21.33,21.33,0,0,1-7.36,1.25,21.75,21.75,0,0,1-15.49-6.33A22,22,0,0,1,345,50.33a21.3,21.3,0,0,1,0-16.63,21.18,21.18,0,0,1,4.63-6.82,22.15,22.15,0,0,1,6.93-4.58,21.69,21.69,0,0,1,8.56-1.69,22.13,22.13,0,0,1,7.53,1.25A23.15,23.15,0,0,1,379,25.3q-1.42,1.74-2.83,3.38t-2.84,3.38a13.26,13.26,0,0,0-8.18-2.62A12.47,12.47,0,0,0,355.93,33a12.19,12.19,0,0,0-3.54,9,12.42,12.42,0,0,0,3.54,9,12.26,12.26,0,0,0,9.22,3.65A12.62,12.62,0,0,0,373.32,51.92Z"/><path class="cls-2" d="M427.42,38.72l-14.78,5.45-14.78,5.45a11.74,11.74,0,0,0,4.31,3.65,13.11,13.11,0,0,0,6.05,1.36,10.87,10.87,0,0,0,8.29-3.49l5.56,6.54a20.13,20.13,0,0,1-6.22,4.25,18.87,18.87,0,0,1-7.63,1.53,21.75,21.75,0,0,1-15.49-6.33,22,22,0,0,1-4.63-6.82,21.3,21.3,0,0,1,0-16.63,21.18,21.18,0,0,1,4.63-6.82,22.15,22.15,0,0,1,6.93-4.58,21.69,21.69,0,0,1,8.56-1.69A16,16,0,0,1,414.71,22a18.61,18.61,0,0,1,5.56,3.76,24.94,24.94,0,0,1,4.31,5.73A29.57,29.57,0,0,1,427.42,38.72Zm-19.2-9.27a12.93,12.93,0,0,0-7.53,2.18,11.79,11.79,0,0,0-4.47,5.67,17.54,17.54,0,0,0-.76,3.82q5.13-1.85,10.2-3.76t10.2-3.76a13.41,13.41,0,0,0-3.44-3A8,8,0,0,0,408.22,29.45Z"/></g></g></svg>