<?xml version="1.0" encoding="iso-8859-1"?>
<!-- Generator: Adobe Illustrator 16.0.0, SVG Export Plug-In . SVG Version: 6.00 Build 0)  -->
<!DOCTYPE svg PUBLIC "-//W3C//DTD SVG 1.1//EN" "http://www.w3.org/Graphics/SVG/1.1/DTD/svg11.dtd">
<svg version="1.1" id="Layer_1" xmlns="http://www.w3.org/2000/svg" xmlns:xlink="http://www.w3.org/1999/xlink" x="0px" y="0px"
	 width="473.499px" height="138.317px" viewBox="86.097 283.615 473.499 138.317"
	 style="enable-background:new 86.097 283.615 473.499 138.317;" xml:space="preserve">
<g>
	<path style="fill:#F4F4F4;" d="M168.17,317.098c0,15.998-5.357,24.604-18.576,24.604c-13.218,0-29.131-9.912-29.131-25.909
		c0-15.999,3.09-29.073,16.309-29.073C149.991,286.72,168.17,301.1,168.17,317.098z"/>
	<path style="fill:#F4F4F4;stroke:#000000;stroke-width:3;stroke-miterlimit:10;" d="M93.481,404.233
		c-0.317-1.853-0.478-3.587-0.936-5.24c-0.452-1.63-1.206-3.175-1.89-4.923c1.336-0.266,2.846-0.709,4.383-0.849
		c7.267-0.667,14.542-1.264,21.815-1.853c1.564-0.127,1.725-0.225,1.719-1.828c-0.019-4.837,0.11-9.658,1.227-14.401
		c0.318-1.35,0.498-2.734,0.779-4.094c0.078-0.374,0.254-0.741,0.451-1.074c2.273-3.854,4.535-7.716,6.862-11.538
		c0.494-0.811,0.513-1.398-0.154-2.06c-0.692-0.688-0.688-1.208,0.108-2.001c1.693-1.684,3.221-3.538,4.755-5.372
		c1.502-1.796,3.316-2.986,5.677-3.227c0.957-0.099,1.843,0.015,2.614,0.763c0.227,0.221,0.904,0.142,1.287-0.017
		c0.314-0.129,0.541-0.554,0.729-0.891c0.987-1.762,0.979-1.767,2.888-1.141c-0.028-0.483-0.058-0.941-0.092-1.538
		c-1.408,0.105-2.77,0.147-4.113,0.323c-2.061,0.269-3.906-0.291-5.595-1.381c-1.383-0.893-2.645-1.972-4.033-2.855
		c-1.248-0.794-2.601-1.422-3.895-2.149c-0.32-0.18-0.669-0.404-0.863-0.701c-1.151-1.768-2.151-3.646-3.409-5.332
		c-2.527-3.387-4.746-6.927-4.971-11.25c-0.197-3.753-0.125-7.53,0.01-11.289c0.107-2.975,0.428-5.945,0.767-8.905
		c0.53-4.625,2.67-8.397,6.285-11.33c0.089-0.072,0.159-0.169,0.217-0.233c-0.33-0.339-0.973-0.864-0.913-0.961
		c0.328-0.539,0.776-1.044,1.288-1.419c0.318-0.231,0.824-0.295,1.242-0.288c4.583,0.089,9.198-0.451,13.733,0.55
		c1.753,0.387,3.513,0.868,5.166,1.557c2.387,0.996,4.691,2.194,7.01,3.35c3.488,1.736,6.235,4.347,8.514,7.458
		c1.739,2.375,3.539,4.724,5.033,7.25c0.725,1.225,0.905,2.813,1.162,4.267c0.738,4.167,1.692,8.326,2.012,12.531
		c0.766,10.062-2.495,16.548-11.854,20.823c-0.799,0.365-1.843,0.215-2.776,0.26c-0.744,0.036-1.492,0.006-2.238,0.008
		c-1.645,0.005-2.051,0.529-1.746,2.277c0.105,0.021,0.229,0.087,0.325,0.059c1.82-0.546,2.082-0.515,2.755,1.312
		c0.473,1.289,1.112,1.384,2.29,1.038c3.975-1.174,5.113-0.735,6.97,2.979c1.586,3.171,3.314,6.228,5.528,9.01
		c1.07,1.345,0.989,1.469-0.582,2.049c-0.757,0.28-0.884,0.689-0.474,1.336c2.032,3.212,4.104,6.397,6.081,9.641
		c1.449,2.375,2.931,4.753,4.108,7.266c1.139,2.431,3.259,3.832,5.146,5.905c0.047-0.665,0.104-1.035,0.094-1.403
		c-0.326-11.027-0.618-22.055-1.02-33.081c-0.127-3.493-0.722-6.932-1.73-10.309c-0.507-1.702-0.732-3.539-0.763-5.319
		c-0.034-2.027,1.055-3.346,2.696-3.865c1.985-0.627,3.669-0.163,4.968,1.446c1.551,1.921,2.18,4.245,2.693,6.591
		c1.157,5.283,1.485,10.657,1.473,16.041c-0.021,10.721-0.138,21.442-0.225,32.163c-0.007,0.819-0.096,1.635-0.15,2.5
		c0.343,0.103,0.665,0.198,1.041,0.309c0,2.35-0.023,4.664,0.013,6.98c0.014,0.876-0.542,0.803-1.094,0.797
		c-2.434-0.02-4.869-0.078-7.303-0.072c-6.401,0.017-12.801,0.074-19.203,0.07c-0.962,0-1.313,0.278-1.505,1.266
		c-0.696,3.583-1.391,7.177-2.359,10.69c-0.837,3.034-0.352,5.633,1.564,8.064c0.333,0.423,0.459,1.007,0.681,1.518
		c-0.594,0.11-1.243,0.435-1.773,0.3c-2.001-0.517-3.983-1.125-5.933-1.811c-1.146-0.401-1.523-1.454-1.498-2.575
		c0.027-1.193-0.413-1.88-1.572-2.283c-1.386-0.478-1.923-1.968-1.578-3.877c0.288-1.597,1.132-2.368,2.68-2.45
		c1.677-0.092,1.714-0.096,1.542-1.779c-0.191-1.873-0.441-3.74-0.706-5.604c-0.111-0.785-0.499-1.182-1.433-1.142
		c-4.432,0.189-8.869,0.31-13.304,0.424c-0.778,0.019-1.174,0.347-1.259,1.08c-0.33,2.843-0.679,5.683-0.941,8.531
		c-0.034,0.355,0.36,0.8,0.647,1.124c0.41,0.463,1.002,0.785,1.344,1.284c0.818,1.195,0.799,2.696,0.076,3.654
		c-0.802,1.062-2.645,1.746-3.923,1.257c-0.823-0.315-1.258-0.046-1.85,0.439c-1.362,1.118-2.762,2.201-4.231,3.172
		c-0.835,0.551-1.94,1.124-2.81,0.228c-0.833-0.855-0.366-1.946,0.182-2.831c1.012-1.634,2.067-3.246,3.176-4.815
		c0.681-0.965,0.909-1.966,0.724-3.111c-0.462-2.866-0.928-5.733-1.346-8.609c-0.115-0.799-0.603-0.821-1.18-0.743
		c-2.797,0.374-5.632,0.58-8.379,1.186c-5.64,1.238-11.386,1.104-17.078,1.634c-2.579,0.241-5.15,0.553-7.725,0.834
		C94.943,404.078,94.286,404.146,93.481,404.233z M168.617,322.17c-0.17-1.786-0.304-4.378-0.685-6.935
		c-0.756-5.087-1.973-10.011-5.605-13.972c-1.059-1.156-1.878-2.536-2.976-3.646c-1.646-1.663-3.277-3.42-5.207-4.697
		c-2.671-1.769-5.604-3.145-8.448-4.645c-0.578-0.306-1.248-0.466-1.893-0.616c-4.792-1.112-9.641-1.178-14.504-0.668
		c-0.468,0.049-1.167,0.399-1.296,0.771c-0.65,1.885-2.019,3.169-3.458,4.382c-2.033,1.713-2.911,3.912-3.061,6.5
		c-0.331,5.717-0.72,11.431-1.022,17.147c-0.128,2.437,0.085,4.852,0.934,7.185c1.43,3.935,3.937,7.22,6.361,10.543
		c0.7,0.959,1.648,1.815,2.647,2.459c2.737,1.764,5.552,3.405,8.362,5.053c0.41,0.239,0.954,0.322,1.44,0.341
		c3.129,0.114,6.284-0.022,9.386,0.328c4.731,0.534,8.977-0.302,12.967-3.005c2.272-1.54,3.793-3.455,4.668-5.984
		C168.323,329.554,168.5,326.269,168.617,322.17z M158.551,380.825c0.438,0.738,0.781,1.211,1.017,1.734
		c1.064,2.344,2.175,4.672,3.102,7.071c0.296,0.763,0.54,1.04,1.351,1.036c3.334-0.016,6.669,0.018,10.003,0.079
		c1.929,0.034,1.959,0.084,2.612-1.732c0.116-0.321-0.013-0.875-0.238-1.153c-1.153-1.432-2.542-2.7-3.537-4.229
		c-1.922-2.954-3.764-5.976-5.395-9.099c-1.179-2.257-2.601-4.267-4.325-6.115c-0.688-0.738-1.273-1.41-2.381-0.558
		c-0.531-1.355-1.021-2.604-1.591-4.057c-1.081,1.12-0.833,2.139-0.729,3.064c0.472,4.168,0.993,8.332,1.534,12.493
		C160.101,380.302,159.97,380.933,158.551,380.825z M133.195,380.745c-1.875-0.487-2.053-0.518-1.758-2.259
		c0.646-3.818,1.47-7.609,2.265-11.401c0.218-1.033,0.643-2.022,0.858-3.055c0.063-0.308-0.265-0.697-0.413-1.047
		c-0.318,0.143-0.725,0.21-0.933,0.45c-0.328,0.376-0.512,0.877-0.777,1.313c-1.544,2.547-2.991,5.165-4.682,7.612
		c-1.032,1.494-1.537,3.032-1.679,4.796c-0.139,1.708-0.349,3.421-0.671,5.105c-0.36,1.888-0.89,3.742-1.326,5.614
		c-0.238,1.021-0.437,2.049-0.657,3.086c1.745,0,3.349,0.032,4.947-0.032c0.253-0.012,0.585-0.429,0.713-0.729
		c0.932-2.201,1.801-4.43,2.733-6.632C132.207,382.636,132.699,381.75,133.195,380.745z"/>
	<path style="fill:#F4F4F4;stroke:#000000;stroke-width:3;stroke-miterlimit:10;" d="M458.349,390.083c0-0.43-0.004-0.857,0-1.286
		c0.053-9.111,0.089-18.223,0.17-27.333c0.029-3.55,2.724-5.52,6.159-4.606c1.355,0.36,2.265,1.198,2.81,2.465
		c0.167,0.386,0.308,0.782,0.503,1.281c0.471-0.316,0.851-0.575,1.236-0.829c3.666-2.405,7.679-3.727,12.077-3.787
		c4.391-0.061,6.625,1.736,7.437,6.06c0.497,2.641,0.603,5.322-0.048,7.952c-0.805,3.269-4.731,4.697-7.536,2.805
		c-1.272-0.857-1.577-2.187-1.664-3.598c-0.074-1.207-0.121-2.413-0.188-3.807c-0.681,0.115-1.207,0.168-1.715,0.297
		c-3.922,0.984-6.971,3.184-9.009,6.686c-0.372,0.639-0.601,1.459-0.606,2.198c-0.041,5.46,0,10.917-0.002,16.378
		c-0.002,3.4-2.017,5.313-5.417,5.175c-2.073-0.083-3.376-1.223-4.104-3.462c-0.615,0.673-1.192,1.547-1.984,2.123
		c-1.518,1.102-3.188,1.247-4.849,0.207c-0.465-0.293-1.013-0.525-1.354-0.93c-1.298-1.531-2.612-1.35-4.278-0.497
		c-4.038,2.07-8.317,2.62-12.805,1.641c-5.653-1.237-9.467-4.473-11.015-10.073c-1.696-6.137-1.801-12.273,1.636-17.89
		c4.473-7.311,11.089-11.082,19.746-10.745c3.706,0.144,7.143,1.488,10.2,3.604c2.35,1.627,2.636,3.241,1.532,5.878
		c-0.397,0.95-0.564,2.063-0.568,3.103c-0.016,4.194-0.288,8.434,0.248,12.564c0.382,2.936,1.902,5.725,2.914,8.579
		C458.03,390.185,458.189,390.133,458.349,390.083z M430.895,377.972c0.392,1.787,0.632,3.626,1.211,5.351
		c0.701,2.088,2.296,3.313,4.521,3.638c2.377,0.348,4.606-0.139,6.728-1.191c2.43-1.209,2.484-1.334,2.109-4.024
		c-0.015-0.114-0.048-0.229-0.058-0.347c-0.446-4.685-1.114-9.362-0.349-14.081c0.281-1.747-0.082-2.133-1.897-2.26
		c-0.348-0.023-0.705,0.015-1.055,0.062C435.666,366.002,431.05,371.391,430.895,377.972z"/>
	<path style="fill:#F4F4F4;stroke:#000000;stroke-width:3;stroke-miterlimit:10;" d="M301.493,360.524
		c1.032-0.822,1.889-1.566,2.806-2.224c2.486-1.783,5.225-2.821,8.335-2.795c5.112,0.041,8.699,2.583,9.858,7.573
		c0.692,2.992,1.046,6.133,1.019,9.202c-0.049,5.25,0.434,10.418,1.294,15.577c0.213,1.271,0.302,2.582,0.285,3.87
		c-0.03,2.543-1.932,4.48-4.42,4.638c-3.21,0.201-4.999-1.032-5.482-3.865c-1.333-7.802-2.029-15.642-1.28-23.563
		c0.08-0.846,0.003-1.729-0.138-2.572c-0.168-1.004-0.79-1.455-1.87-1.252c-1.538,0.29-2.803,1.064-3.816,2.189
		c-3.489,3.859-5.717,8.338-6.233,13.552c-0.351,3.553-0.542,7.121-0.791,10.684c-0.214,3.08-2.142,4.871-5.231,4.837
		c-2.85-0.032-4.554-1.972-4.889-4.954c-0.856-7.638,0.322-15.209,0.521-22.811c0.073-2.822,0.026-5.657-0.152-8.473
		c-0.245-3.857,3.13-6.019,6.599-5.161c2.187,0.542,3.027,2.19,3.415,4.197C301.394,359.551,301.42,359.937,301.493,360.524z"/>
	<path style="fill:#F4F4F4;stroke:#000000;stroke-width:3;stroke-miterlimit:10;" d="M498.149,383.173
		c2.474,2.416,5.403,3.251,8.572,3.408c3.358,0.167,6.554-0.426,9.487-2.202c1.445-0.875,2.967-1.615,4.747-1.529
		c2.075,0.098,3.249,1.267,3.338,3.338c0.108,2.517-1.192,4.241-3.141,5.572c-2.269,1.549-4.815,2.458-7.479,3.038
		c-4.686,1.023-9.364,0.94-13.966-0.43c-7.952-2.371-12.094-8.045-11.971-16.363c0.082-5.612,1.592-10.768,5.189-15.187
		c3.35-4.113,7.718-6.187,12.998-6.354c3.562-0.112,7.065,0.236,10.385,1.638c3.547,1.498,5.901,3.93,6.162,7.999
		c0.179,2.801-0.91,5.1-3.1,6.634c-2.329,1.631-4.861,3.019-7.431,4.246C507.454,379.128,502.867,381.069,498.149,383.173z
		 M512.759,366.988c-0.051-0.143-0.103-0.284-0.155-0.427c-6.887-3.102-12.826-0.675-15.076,7.583
		C502.737,371.697,507.748,369.344,512.759,366.988z"/>
	<path style="fill:#F4F4F4;stroke:#000000;stroke-width:3;stroke-miterlimit:10;" d="M334.401,383.181
		c1.84,1.887,4.054,2.807,6.498,3.179c4.112,0.625,8.044,0.134,11.689-2.064c0.929-0.56,1.975-0.996,3.021-1.277
		c3.353-0.899,5.594,1.375,4.771,4.758c-0.446,1.835-1.651,3.093-3.167,4.085c-2.669,1.75-5.651,2.73-8.772,3.225
		c-4.234,0.673-8.453,0.525-12.582-0.736c-7.905-2.412-12.002-8.006-11.901-16.296c0.066-5.658,1.585-10.85,5.226-15.292
		c3.332-4.068,7.673-6.123,12.907-6.299c3.602-0.119,7.145,0.231,10.497,1.662c3.496,1.494,5.821,3.909,6.096,7.924
		c0.189,2.798-0.879,5.099-3.059,6.652c-2.22,1.583-4.644,2.925-7.105,4.107c-4.313,2.067-8.726,3.931-13.097,5.881
		C335.109,382.833,334.8,382.99,334.401,383.181z M349.129,366.559c-3.447-1.321-6.663-1.973-9.876-0.35
		c-3.102,1.566-4.429,4.501-5.656,7.867C338.972,371.656,344.183,369.72,349.129,366.559z"/>
	<path style="fill:#F4F4F4;stroke:#000000;stroke-width:3;stroke-miterlimit:10;" d="M229.039,374.574
		c-0.004,5.628-1.164,10.195-4.019,14.257c-7.261,10.331-22.7,9.29-28.503-1.926c-4.476-8.647-1.821-20.824,5.879-26.637
		c4.425-3.34,9.492-4.275,14.84-3.208c5.052,1.011,8.118,4.503,10.1,9.043C228.612,369.022,229.075,372.117,229.039,374.574z
		 M219.668,376.03c-0.422-2.103-0.692-4.208-1.293-6.215c-0.576-1.922-1.971-3.205-4.059-3.479c-3.205-0.42-5.671,0.847-7.478,3.449
		c-2.197,3.164-2.752,6.72-2.245,10.456c0.263,1.928,1.173,3.567,2.756,4.777c3.679,2.815,9.35,1.09,11.177-3.56
		C219.186,379.782,219.294,377.892,219.668,376.03z"/>
	<path style="fill:#F4F4F4;stroke:#000000;stroke-width:3;stroke-miterlimit:10;" d="M290.309,374.713
		c-0.003,5.542-1.186,10.14-4.09,14.221c-7.222,10.155-22.462,9.167-28.32-1.832c-4.614-8.664-1.998-20.976,5.778-26.839
		c4.428-3.338,9.495-4.272,14.842-3.199c5.052,1.013,8.115,4.507,10.094,9.047C289.887,369.032,290.348,372.126,290.309,374.713z
		 M280.94,376.035c-0.42-2.103-0.69-4.208-1.29-6.217c-0.574-1.922-1.967-3.207-4.057-3.481c-3.202-0.422-5.671,0.841-7.479,3.443
		c-2.199,3.164-2.754,6.72-2.249,10.456c0.261,1.926,1.17,3.567,2.752,4.779c3.678,2.817,9.35,1.097,11.181-3.554
		C280.457,379.789,280.566,377.897,280.94,376.035z"/>
	<path style="fill:#F4F4F4;stroke:#000000;stroke-width:3;stroke-miterlimit:10;" d="M546.001,355.432
		c1.31,0.098,2.966,0.114,4.588,0.367c2.639,0.409,4.063,1.842,4.223,4.439c0.093,1.54-0.135,3.13-0.441,4.652
		c-0.261,1.284-1.052,2.336-2.513,2.466c-1.705,0.151-3.405-0.031-4.298-1.739c-0.454-0.872-1.003-1.224-1.887-1.178
		c-2.539,0.134-5.076,0.27-7.61,0.461c-0.486,0.038-0.985,0.276-1.426,0.518c-1.169,0.641-1.314,1.49-0.254,2.291
		c1.116,0.844,2.356,1.548,3.602,2.198c2.783,1.451,5.658,2.731,8.383,4.276c1.552,0.88,3.036,1.994,4.292,3.258
		c4.379,4.403,3.773,11.204-1.234,14.914c-2.929,2.171-6.319,3.117-9.878,3.437c-3.981,0.36-7.945,0.171-11.699-1.36
		c-1.32-0.539-2.585-1.319-3.721-2.19c-1.165-0.895-1.678-2.234-1.684-3.738c-0.012-2.29,1.168-3.72,3.474-3.702
		c1.655,0.013,3.358,0.33,4.943,0.823c2.846,0.882,5.676,1.61,8.662,0.99c0.985-0.206,2.007-0.464,2.878-0.942
		c1.311-0.717,1.482-2.046,0.344-3.004c-1.098-0.921-2.363-1.678-3.646-2.325c-2.905-1.471-5.944-2.687-8.767-4.292
		c-1.633-0.926-3.198-2.211-4.36-3.679c-3.686-4.657-2.194-11.373,2.993-14.26c2.74-1.526,5.765-2.002,8.817-2.304
		C541.733,355.617,543.7,355.565,546.001,355.432z"/>
	<path style="fill:#F4F4F4;stroke:#000000;stroke-width:3;stroke-miterlimit:10;" d="M404.093,396.133
		c-4.039-0.087-8.792-1.734-12.579-5.642c-3.952-4.081-4.951-9.092-4.072-14.51c0.997-6.152,3.943-11.389,8.243-15.834
		c3.764-3.889,8.356-5.237,13.667-3.949c3.143,0.763,6.203,1.75,8.822,3.726c2.514,1.896,2.801,4.683,0.787,6.829
		c-1.535,1.635-3.757,1.743-6.022,0.424c-1.306-0.76-2.658-1.514-4.084-1.978c-3.223-1.044-5.813-0.098-7.749,2.752
		c-1.954,2.879-3.67,5.852-4.34,9.317c-0.973,5.032,1.783,8.817,6.854,9.628c2.554,0.409,4.91-0.026,7.199-1.11
		c1.278-0.603,2.54-1.239,3.84-1.788c2.228-0.935,4.428-0.168,5.665,1.914c1.142,1.92,0.716,3.719-1.271,5.366
		C415.967,393.836,409.461,396.155,404.093,396.133z"/>
	<path style="fill:#F4F4F4;stroke:#000000;stroke-width:3;stroke-miterlimit:10;" d="M155.542,324.04
		c-0.989,1.479-2.315,1.459-3.597,1.454c-3.919-0.014-7.839-0.086-11.76-0.094c-1.088-0.002-2.176,0.146-3.297,0.227
		c-0.346-0.939,0.132-1.46,0.842-1.667c1.081-0.314,2.214-0.678,3.316-0.651c3.601,0.086,7.199,0.339,10.797,0.529
		C153,323.898,154.158,323.965,155.542,324.04z"/>
	<path d="M146.621,303.676c-0.274,0-0.578,0.075-0.818-0.016c-0.638-0.24-1.594-0.401-1.797-0.866
		c-0.4-0.915-0.115-1.934,0.795-2.604c1.087-0.798,3.272-0.67,3.948,0.471c0.359,0.605,0.165,1.621,0.004,2.408
		c-0.053,0.259-0.763,0.428-1.198,0.553c-0.29,0.083-0.622,0.017-0.936,0.017C146.621,303.65,146.621,303.663,146.621,303.676z
		 M147.729,301.462c-0.746-0.337-1.164-0.584-1.616-0.695c-0.138-0.034-0.367,0.303-0.553,0.469c0.378,0.266,0.732,0.597,1.149,0.77
		C146.866,302.07,147.174,301.771,147.729,301.462z"/>
	<path d="M131.738,306.378c-0.273,0-0.577,0.076-0.817-0.016c-0.639-0.24-1.595-0.4-1.798-0.866
		c-0.399-0.916-0.115-1.935,0.795-2.603c1.087-0.799,3.273-0.671,3.948,0.47c0.359,0.605,0.164,1.621,0.004,2.408
		c-0.053,0.259-0.763,0.428-1.198,0.553c-0.29,0.083-0.623,0.017-0.936,0.017C131.738,306.353,131.738,306.365,131.738,306.378z
		 M132.846,304.164c-0.747-0.336-1.165-0.583-1.616-0.694c-0.138-0.034-0.368,0.302-0.554,0.468c0.379,0.267,0.732,0.597,1.149,0.77
		C131.982,304.772,132.291,304.474,132.846,304.164z"/>
</g>
</svg>
