<svg xmlns="http://www.w3.org/2000/svg" viewBox="0 0 960 429.23"><defs><style>.cls-1{isolation:isolate;}.cls-2{fill:#1e6fb8;}.cls-3{mix-blend-mode:multiply;}.cls-4{fill:#007491;}.cls-5{fill:#fdcd0a;}</style></defs><title>popple svg logo</title><g class="cls-1"><g id="Layer_1" data-name="Layer 1"><path class="cls-2" d="M894.62,217.48a90.44,90.44,0,0,0,0-12.21v-.05a97.17,97.17,0,0,0-1.47-11.52,55.42,55.42,0,0,0-3.37-11.33,75.62,75.62,0,0,0-18.46-27.44,90.88,90.88,0,0,0-25.74-17.12,101.7,101.7,0,0,0-43.94-9,88.41,88.41,0,0,0-43.18,11.66l-.25.14a87.94,87.94,0,0,0-10.39,7.27c.06-3.72.09-7.24.09-10.6,0-6.52-.22-13.41-.65-20.48v-.61q0-3.39-.16-10.22c-.11-4.31-.27-7.69-.5-10.29a49,49,0,0,0-5.28-20.09,37,37,0,0,0-15.5-16.92l-1-.56-1-.46a47.82,47.82,0,0,0-19.29-4.48c-2.33,0-4.39.08-6.4.24a44.54,44.54,0,0,0-6.63,1.11,37.28,37.28,0,0,0-16.33,7.25,31.82,31.82,0,0,0-11.36,16.1c-.48,1.43-.89,2.75-1.26,4a46.44,46.44,0,0,0-1.42,6.49c-.32,1.66-.55,3.37-.7,5-.17,1.84-.26,3.84-.26,6.1v50.89a78.18,78.18,0,0,0-21.48-13.41c-3.21-1.33-7.07-2.71-11.82-4.21-4.57-1.44-9.71-2.83-15.31-4.15s-11.41-2.43-17.39-3.37a163,163,0,0,0-18.42-1.85l-.31,0a82.67,82.67,0,0,0-27.67,3.63c-12.31,4-21.44,12.46-25.77,24-.32.79-.6,1.59-.88,2.39-.33-.32-.65-.68-1-1a78.71,78.71,0,0,0-23.7-15.4c-3.21-1.33-7.08-2.71-11.82-4.21-4.57-1.44-9.71-2.83-15.31-4.15s-11.41-2.43-17.39-3.37a163,163,0,0,0-18.42-1.85l-.31,0a82.76,82.76,0,0,0-27.68,3.63c-12.3,4-21.43,12.46-25.76,24-.15.36-.26.72-.4,1.08a91.67,91.67,0,0,0-26.08-17.75,96.55,96.55,0,0,0-58.5-6.67,112.48,112.48,0,0,0-27.51,9.15,89.14,89.14,0,0,0-31,24.52,83.17,83.17,0,0,0-6.17,8.67,99.53,99.53,0,0,0-14.77-17.61,78.71,78.71,0,0,0-23.7-15.4c-3.22-1.33-7.08-2.71-11.82-4.21-4.57-1.44-9.72-2.83-15.31-4.15s-11.41-2.43-17.39-3.37a162.75,162.75,0,0,0-18.42-1.85l-.31,0a83.18,83.18,0,0,0-27.67,3.63c-12.31,4-21.44,12.46-25.77,24a47.67,47.67,0,0,0-3.3,13.22c-.25,1.78-.43,3.52-.56,5.16-.15,1.93-.23,3.87-.23,5.76V354.33a46.92,46.92,0,0,0,.3,5.48c.17,1.61.44,3.29.78,5l.13.62a73,73,0,0,0,3.27,10.63,40.35,40.35,0,0,0,9.09,13.57l.83.78a35,35,0,0,0,19.51,8.67,45.09,45.09,0,0,0,9.75,1.08,44.36,44.36,0,0,0,19.94-4.77l3.24-1.63,2.56-2.57a65.54,65.54,0,0,0,4.54-5.07c1.25-1.58,2.48-3.26,3.64-5l1.06-1.59.77-1.75a75.73,75.73,0,0,0,3-7.87c.75-2.43,1.42-5.11,2-8l.44-2.16V359a34.94,34.94,0,0,0,1-8.24V311.9q6-.86,11.77-1.95a171.46,171.46,0,0,0,32-9.44l.54-.23a77.63,77.63,0,0,0,26.6-18.58c.61,1,1.21,2,1.85,3a92.94,92.94,0,0,0,30.73,29.12c12.72,7.56,27.43,11.83,43.71,12.71q4.49.39,9.08.39a115,115,0,0,0,17.8-1.41,100.59,100.59,0,0,0,27-8.18,85.88,85.88,0,0,0,17.87-11.54v48.53a47.72,47.72,0,0,0,.29,5.45c.18,1.62.44,3.31.79,5l.14.63a72.05,72.05,0,0,0,3.26,10.62,40.45,40.45,0,0,0,9.09,13.57l.83.79a35.09,35.09,0,0,0,19.51,8.66,45.09,45.09,0,0,0,9.75,1.08,44.32,44.32,0,0,0,19.93-4.77l3.25-1.63,2.56-2.57a63.74,63.74,0,0,0,4.54-5.07c1.24-1.57,2.46-3.25,3.63-5l1.07-1.59.77-1.76a75.73,75.73,0,0,0,3-7.87,80.78,80.78,0,0,0,2-8l.44-2.16V359a35,35,0,0,0,1-8.24V311.9q6-.86,11.77-1.95a171.23,171.23,0,0,0,32-9.44l.54-.23a88.09,88.09,0,0,0,12.12-6.46v60.51a47.72,47.72,0,0,0,.29,5.45c.18,1.62.44,3.31.79,5l.14.63a72.05,72.05,0,0,0,3.26,10.62,40.45,40.45,0,0,0,9.09,13.57l.84.79a35,35,0,0,0,19.5,8.66,45.09,45.09,0,0,0,9.75,1.08,44.32,44.32,0,0,0,19.93-4.77l3.25-1.63,2.56-2.57a63.74,63.74,0,0,0,4.54-5.07c1.24-1.57,2.46-3.25,3.63-5l1.07-1.59.77-1.76a75.73,75.73,0,0,0,3-7.87,80.78,80.78,0,0,0,2-8l.44-2.16V359a35,35,0,0,0,1-8.24V311.9q6-.86,11.77-1.95a171,171,0,0,0,32-9.44l.54-.23a85.87,85.87,0,0,0,14.16-7.85,58.67,58.67,0,0,0,2.43,7.66,34.4,34.4,0,0,0,11.82,15,38.24,38.24,0,0,0,18.25,7.32,47.94,47.94,0,0,0,9.34.93,46.07,46.07,0,0,0,20.68-4.9l.58-.3a34.86,34.86,0,0,0,15.25-15.65l.16-.32.24-.42a73.29,73.29,0,0,0,21.27,12.82A122.67,122.67,0,0,0,802.68,323q3.33.17,6.63.16a127.53,127.53,0,0,0,23.34-2.12,117.69,117.69,0,0,0,26-7.83,72,72,0,0,0,9.37-4.7,55,55,0,0,0,10.83-8.39,50.44,50.44,0,0,0,8.6-11.49,37.19,37.19,0,0,0,4.64-18c0-8.43-2.2-15.71-6.58-21.69q-.91-1.23-1.92-2.37a47.41,47.41,0,0,0,8.25-15.36A52.09,52.09,0,0,0,894.62,217.48Zm-290.37.73a23.86,23.86,0,0,1,2.79,1.57,6.19,6.19,0,0,1,2,1.94,10.18,10.18,0,0,1-.12,2l-.07.49a1.11,1.11,0,0,1,0,.19,16.46,16.46,0,0,1-4.39,2.54l-.25.11Q604.25,222.52,604.25,218.21Zm-142.26,0a24.71,24.71,0,0,1,2.79,1.57,6.19,6.19,0,0,1,2,1.94,10.18,10.18,0,0,1-.12,2l-.07.49a1.11,1.11,0,0,1,0,.19,16.46,16.46,0,0,1-4.39,2.54l-.25.11Q462,222.52,462,218.21Zm-164.12,8.85a29.39,29.39,0,0,1,1.85-8.08,7.4,7.4,0,0,1,1.86-3,11.2,11.2,0,0,1,4.27-2.33,23,23,0,0,1,7.61-1.17,15.66,15.66,0,0,1,6,1.33,1.37,1.37,0,0,1,.81.73,18,18,0,0,1,2.59,9.11,25.17,25.17,0,0,1-1.9,10.87,18.2,18.2,0,0,1-5.38,7.19,2.94,2.94,0,0,1-2.49.73,37.48,37.48,0,0,1-11-2.45,16.12,16.12,0,0,1-1.78-.78,19.5,19.5,0,0,1-1.86-4.89A21.88,21.88,0,0,1,297.87,227.06Zm-140.68-8.85a26.33,26.33,0,0,1,2.79,1.56,6.32,6.32,0,0,1,2,1.95,10.18,10.18,0,0,1-.12,2l-.06.49,0,.19a16.57,16.57,0,0,1-4.39,2.54l-.25.11Q157.19,222.52,157.19,218.21Z"/><path class="cls-2" d="M681.79,89.69a52.69,52.69,0,0,0-.8-6.19,40.32,40.32,0,0,0-2.3-7.73,45,45,0,0,0-10.92-16.06,49.35,49.35,0,0,0-13.94-9.28,52.49,52.49,0,0,0-22.47-4.59,49.36,49.36,0,0,0-15.83,2.86c-.32-1-.63-1.94-1-2.89a33.44,33.44,0,0,0-8.63-12.42,38.61,38.61,0,0,0-4.47-3.46l-.39-.26A35.25,35.25,0,0,0,581.9,24c-1.17,0-2.36,0-3.73.16s-2.61.29-3.85.52c-1.07.19-2.11.45-3.14.74-1-.13-2-.28-3-.36L566.89,25c-3.6-.13-7.27-.21-10.93-.24s-7.35,0-11,0h-.35c-1.76.05-3.42.08-5,.08h-7.38a45.43,45.43,0,0,0-12.71,1.86,36.21,36.21,0,0,0-7.07,2.86,40.23,40.23,0,0,0-4,2.37A33.39,33.39,0,0,0,495.1,49.65a33,33,0,0,0-1.67,10.42v1.06a34.63,34.63,0,0,0,8.23,22.34l.84,1A36.23,36.23,0,0,0,512.43,92v19.8A39.84,39.84,0,0,0,516.55,129a36,36,0,0,0,6.85,9.51l1.36,1.36,1.52,1.18a34.92,34.92,0,0,0,15.89,6.8,38,38,0,0,0,6.85.63,36.42,36.42,0,0,0,16.21-3.81,36,36,0,0,0,16.41,3.88A36.62,36.62,0,0,0,594,146.47a36.76,36.76,0,0,0,24.67-.2A58.52,58.52,0,0,0,631,148.15c1,0,1.92.07,2.88.07a58.86,58.86,0,0,0,10.9-1,56.46,56.46,0,0,0,12.26-3.69,45,45,0,0,0,5.46-2.75,39.55,39.55,0,0,0,7.78-6A38.3,38.3,0,0,0,676.9,126a35,35,0,0,0,4.25-16.66,36.19,36.19,0,0,0-.48-5.92,39.9,39.9,0,0,0,1.11-6.89A49.64,49.64,0,0,0,681.79,89.69Zm-40.27,12.94c0-.54,0-1.08,0-1.6l1.28-.07c-.19.31-.38.63-.63,1S641.73,102.39,641.52,102.63Z"/><g class="cls-3"><path class="cls-4" d="M192,156.76a56.14,56.14,0,0,1,17.05,11.1,77.44,77.44,0,0,1,13.36,16.58,82.38,82.38,0,0,1,8.69,20.11,79.3,79.3,0,0,1,3.06,21.73,61.2,61.2,0,0,1-7.56,30.9q-7.89,14.47-25.59,22.21a147.73,147.73,0,0,1-27.84,8.2,237.75,237.75,0,0,1-29.78,3.71v58.9a12.42,12.42,0,0,1-.48,3.54,11.17,11.17,0,0,0-.48,3.22,59.56,59.56,0,0,1-1.45,5.79,54.1,54.1,0,0,1-2.09,5.47c-.86,1.29-1.72,2.46-2.58,3.54a41.71,41.71,0,0,1-2.89,3.22,22.09,22.09,0,0,1-16.1,1.61,13.4,13.4,0,0,1-8.37-3.22,18.39,18.39,0,0,1-4.18-6.11,50.35,50.35,0,0,1-2.25-7.41q-.33-1.61-.48-3.06a24.71,24.71,0,0,1-.17-3.05V174.46c0-1.29,0-2.63.17-4s.26-2.84.48-4.34a25.16,25.16,0,0,1,1.93-7.72q2.9-8.06,11.91-11a60.25,60.25,0,0,1,20.28-2.57,139.12,139.12,0,0,1,15.93,1.61q8.2,1.29,15.77,3t13.68,3.71Q188.17,155.14,192,156.76Zm.64,69.52q1.27-9-2.09-15.29a28.31,28.31,0,0,0-9.5-10.3,50.86,50.86,0,0,0-14-6.28,104.64,104.64,0,0,0-15.61-3.22,10.67,10.67,0,0,0-3.06-.32h-4.66q0,10.31.16,19.8t-.16,20.44v21.56a138.85,138.85,0,0,0,15.61-1.61,67.68,67.68,0,0,0,15.28-4.18,37.51,37.51,0,0,0,12.07-7.73A20.67,20.67,0,0,0,192.68,226.28Z"/><path class="cls-4" d="M285.7,156.11a90.15,90.15,0,0,1,22.2-7.4,76,76,0,0,1,23-1,74.65,74.65,0,0,1,22.21,6.12,69.13,69.13,0,0,1,19.79,13.52,72.94,72.94,0,0,1,12.87,17.86,96.25,96.25,0,0,1,8,20.44,69.57,69.57,0,0,1,1.61,35.73,107.67,107.67,0,0,1-13.2,33.47,56.39,56.39,0,0,1-11.1,12.71,64.19,64.19,0,0,1-14,9.18A77.89,77.89,0,0,1,336.23,303a89,89,0,0,1-21.89.81q-19.3-1-34-9.66A70.61,70.61,0,0,1,256.89,272a77.36,77.36,0,0,1-11.59-30.74A84,84,0,0,1,247.39,206q5.15-19.31,15-31.38A66.87,66.87,0,0,1,285.7,156.11Zm9.65,43.13a29.43,29.43,0,0,0-7.4,11.27,51.93,51.93,0,0,0-3.22,14A43.84,43.84,0,0,0,285.86,239a40.45,40.45,0,0,0,5.63,13q3.21,4.83,11.59,8a59.89,59.89,0,0,0,17.38,3.87,25.08,25.08,0,0,0,18-5.64,40.38,40.38,0,0,0,11.75-15.61,47.18,47.18,0,0,0,3.7-20.27,40.19,40.19,0,0,0-5.79-20A23.23,23.23,0,0,0,337.35,193a37.46,37.46,0,0,0-14.48-3.22,44.84,44.84,0,0,0-15,2.25A32.94,32.94,0,0,0,295.35,199.24Z"/><path class="cls-4" d="M496.84,156.76a56.14,56.14,0,0,1,17.05,11.1,77.44,77.44,0,0,1,13.36,16.58,82.38,82.38,0,0,1,8.69,20.11A79.3,79.3,0,0,1,539,226.28a61.2,61.2,0,0,1-7.56,30.9q-7.89,14.47-25.59,22.21a147.73,147.73,0,0,1-27.84,8.2,237.75,237.75,0,0,1-29.78,3.71v58.9a12.42,12.42,0,0,1-.48,3.54,11.17,11.17,0,0,0-.48,3.22,59.56,59.56,0,0,1-1.45,5.79,54.1,54.1,0,0,1-2.09,5.47c-.86,1.29-1.72,2.46-2.58,3.54a41.71,41.71,0,0,1-2.89,3.22,22.09,22.09,0,0,1-16.1,1.61,13.4,13.4,0,0,1-8.37-3.22,18.39,18.39,0,0,1-4.18-6.11,50.35,50.35,0,0,1-2.25-7.41c-.22-1.07-.38-2.09-.49-3.06a26.9,26.9,0,0,1-.16-3.05V174.46c0-1.29.05-2.63.16-4s.27-2.84.49-4.34a25.16,25.16,0,0,1,1.93-7.72q2.9-8.06,11.91-11a60.22,60.22,0,0,1,20.27-2.57,139.29,139.29,0,0,1,15.94,1.61q8.2,1.29,15.77,3t13.68,3.71Q493,155.14,496.84,156.76Zm.64,69.52q1.27-9-2.09-15.29a28.31,28.31,0,0,0-9.5-10.3,50.86,50.86,0,0,0-14-6.28,104.64,104.64,0,0,0-15.61-3.22,10.67,10.67,0,0,0-3.06-.32h-4.66q0,10.31.16,19.8t-.16,20.44v21.56a138.85,138.85,0,0,0,15.61-1.61,67.68,67.68,0,0,0,15.28-4.18,37.62,37.62,0,0,0,12.07-7.73A20.67,20.67,0,0,0,497.48,226.28Z"/><path class="cls-4" d="M639.1,156.76a56.14,56.14,0,0,1,17,11.1,77.44,77.44,0,0,1,13.36,16.58,82.38,82.38,0,0,1,8.69,20.11,79.3,79.3,0,0,1,3.06,21.73,61.2,61.2,0,0,1-7.56,30.9q-7.91,14.47-25.59,22.21a147.73,147.73,0,0,1-27.84,8.2,237.75,237.75,0,0,1-29.78,3.71v58.9a12.42,12.42,0,0,1-.48,3.54,11.17,11.17,0,0,0-.48,3.22q-.66,3.21-1.45,5.79a54.1,54.1,0,0,1-2.09,5.47c-.86,1.29-1.72,2.46-2.58,3.54a41.71,41.71,0,0,1-2.89,3.22,22.09,22.09,0,0,1-16.1,1.61,13.4,13.4,0,0,1-8.37-3.22,18.39,18.39,0,0,1-4.18-6.11,50.35,50.35,0,0,1-2.25-7.41c-.22-1.07-.38-2.09-.49-3.06a26.9,26.9,0,0,1-.16-3.05V174.46c0-1.29,0-2.63.16-4s.27-2.84.49-4.34a25.16,25.16,0,0,1,1.93-7.72q2.9-8.06,11.91-11a60.22,60.22,0,0,1,20.27-2.57,139.29,139.29,0,0,1,15.94,1.61q8.21,1.29,15.77,3t13.68,3.71Q635.23,155.14,639.1,156.76Zm.64,69.52q1.28-9-2.09-15.29a28.31,28.31,0,0,0-9.5-10.3,50.86,50.86,0,0,0-14-6.28,104.64,104.64,0,0,0-15.61-3.22,10.71,10.71,0,0,0-3.06-.32h-4.67q0,10.31.17,19.8t-.17,20.44v21.56a139,139,0,0,0,15.62-1.61,67.68,67.68,0,0,0,15.28-4.18,37.62,37.62,0,0,0,12.07-7.73A20.67,20.67,0,0,0,639.74,226.28Z"/><path class="cls-4" d="M734,275.85c-.21,1.07-.38,2.09-.48,3a27.21,27.21,0,0,0-.16,3.06l-1.93,6.76a7.92,7.92,0,0,1-1,1.61l-1,1.93a12.58,12.58,0,0,1-5.8,5.79A24,24,0,0,1,707.33,300a16.74,16.74,0,0,1-8.69-3.22,12.2,12.2,0,0,1-4.51-5.47,36.9,36.9,0,0,1-1.93-6.44,20.58,20.58,0,0,1-1-5.8V98.82c0-1.5,0-2.84.17-4a29,29,0,0,1,.48-3.38,26.45,26.45,0,0,1,.8-3.86c.32-1.08.7-2.26,1.13-3.54a9.74,9.74,0,0,1,3.54-5.16,14.7,14.7,0,0,1,7.4-3.21,22.13,22.13,0,0,1,4.19-.81c1.28-.1,2.78-.16,4.5-.16a25.83,25.83,0,0,1,10.3,2.58,14.67,14.67,0,0,1,6.44,7.08,26.94,26.94,0,0,1,3.22,11.91q.32,3.21.48,9.65c.11,4.3.16,7.51.16,9.66v1.28q.65,10.3.65,19.8t-.33,20.76q0,10.95-.16,21.08T734,198.6v67.59a16.62,16.62,0,0,0,.16,2.41,16.86,16.86,0,0,1,.16,2.42A27.18,27.18,0,0,1,734,275.85Z"/><path class="cls-4" d="M855.71,257.5a48.15,48.15,0,0,1,7.88-1.29,16.82,16.82,0,0,1,7.4,1,12.45,12.45,0,0,1,5.64,4.34c1.5,2,2.25,4.89,2.25,8.53a15.17,15.17,0,0,1-1.93,7.4,28,28,0,0,1-4.83,6.44,32.18,32.18,0,0,1-6.44,5,48.28,48.28,0,0,1-6.75,3.38,94.82,94.82,0,0,1-21.41,6.44,106.57,106.57,0,0,1-24.94,1.61,100.5,100.5,0,0,1-33.32-6.92,50.42,50.42,0,0,1-24.94-20.76,74.67,74.67,0,0,1-10-31.55A110,110,0,0,1,746,208.25q3.54-18.66,12.07-30.41A68.13,68.13,0,0,1,778.46,159,66.14,66.14,0,0,1,811,150.32a79.5,79.5,0,0,1,34.44,7.08,68.93,68.93,0,0,1,19.63,13,53.67,53.67,0,0,1,13.2,19.8,33.5,33.5,0,0,1,2.09,7.08,76.26,76.26,0,0,1,1.13,8.85,67,67,0,0,1,0,9.18,30.22,30.22,0,0,1-1.61,8,25.37,25.37,0,0,1-4.83,9,17.75,17.75,0,0,1-7.4,4.83,41.47,41.47,0,0,1-10.79,2.09q-6.27.49-15,.81-7.73.31-14.49.32t-13.84-.16L798.9,240q-7.57-.17-16.9-.49a16.51,16.51,0,0,0,1.77,11.11,22.49,22.49,0,0,0,7.56,7.72A38.34,38.34,0,0,0,802.28,263a58.82,58.82,0,0,0,11.91,1.93,70.81,70.81,0,0,0,20.92-1.77Q845.09,260.71,855.71,257.5Zm-13.84-62.44A40.14,40.14,0,0,0,829,184.76a24.79,24.79,0,0,0-10.78-2.09,39.55,39.55,0,0,0-10.78,1.77,29.63,29.63,0,0,0-15.77,9.65,23.18,23.18,0,0,0-2.26,3.06q-1.6,2.41-3.06,5a23.13,23.13,0,0,0-2.09,4.83c-.43,1.5-.21,2.25.65,2.25H848a20.35,20.35,0,0,0-6.11-14.16Z"/></g><g class="cls-3"><path class="cls-4" d="M585.9,58.62a3.7,3.7,0,0,1,1,2.38c0,.36,0,.73,0,1.11a8.82,8.82,0,0,1-.13,1A4.28,4.28,0,0,1,585.54,65a5.06,5.06,0,0,1-1.94.8,9.12,9.12,0,0,1-1.24.26,12.93,12.93,0,0,0-1.32.27,8.73,8.73,0,0,1-1.24.09H574c-1.07.06-2.11.08-3.14.08h-3.05q.09,2.74.09,5.88t0,7.29q0,4.16-.09,9.63t0,12.73v6.72a7.08,7.08,0,0,0,.09,1.32v.67a4,4,0,0,1-.09.75,12.48,12.48,0,0,0-.26,1.85,3.73,3.73,0,0,1-.09.84,5.09,5.09,0,0,1-.27.84c-.23.24-.35.41-.35.53l-.27.53a4.47,4.47,0,0,1-1.68,1.68,6.29,6.29,0,0,1-4.33.44,4.51,4.51,0,0,1-2.29-.79A5.3,5.3,0,0,1,557,115.8a4.86,4.86,0,0,1-.62-1.86,5.19,5.19,0,0,1-.27-1.68V66.84H553.9c-1.11,0-2.31,0-3.57,0s-2.47-.07-3.58-.13-1.89-.12-2.3-.18l-1.64-.26c-.73-.12-1.34-.24-1.81-.36a6.11,6.11,0,0,1-2.91-1.67,3.88,3.88,0,0,1-1-2.57V60.56a2.58,2.58,0,0,1,.18-1,3,3,0,0,1,1.41-1.77,11.55,11.55,0,0,1,1.11-.66,6.2,6.2,0,0,1,1.46-.57,12.23,12.23,0,0,1,2.65-.53,11.12,11.12,0,0,1,1.41-.09h7.38q2.79,0,5.88-.09c3.41-.06,6.82-.07,10.21-.05s6.76.11,10.11.23c.77.06,1.51.14,2.21.26a9.83,9.83,0,0,1,2.12.62,9.72,9.72,0,0,1,1.51.66A3.66,3.66,0,0,1,585.9,58.62Z"/><path class="cls-4" d="M624,101q.09,1.77.09,3.66c0,1.27,0,2.44-.09,3.5-.06,1.59-.14,3-.26,4.37a12.59,12.59,0,0,1-.71,3.36,3.93,3.93,0,0,1-1.63,2,4.67,4.67,0,0,1-3,.4,3.63,3.63,0,0,1-2.92-1.94,11.66,11.66,0,0,1-1.19-3.85,23.59,23.59,0,0,1-.22-4.37,32.41,32.41,0,0,0,0-3.45c-.06-1.29-.11-2.78-.13-4.46a25,25,0,0,0-.53-4.77,10.13,10.13,0,0,0-1.64-3.85A4.21,4.21,0,0,0,608.25,90a10.75,10.75,0,0,0-4.46.44,4.42,4.42,0,0,0-2.25,1.82,6.59,6.59,0,0,0-.84,2.87c-.09,1.12-.22,2.32-.4,3.62l-.09,3.45v6.45c0,1.06,0,2.16,0,3.31a9.43,9.43,0,0,1-.58,3.14,5.83,5.83,0,0,1-1.63,2.38,4.74,4.74,0,0,1-3.23,1,4.58,4.58,0,0,1-3.93-1.73,6.93,6.93,0,0,1-1.28-4.28V61.62c0-.35,0-.69,0-1s.08-.67.14-1a8.86,8.86,0,0,0,.26-1,5.28,5.28,0,0,1,.26-.93,2.48,2.48,0,0,1,.89-1.33,5,5,0,0,1,.88-.71,2.94,2.94,0,0,1,1-.35,8.17,8.17,0,0,1,1-.13c.35,0,.7-.05,1.06-.05a4.7,4.7,0,0,1,2.56.8,8.3,8.3,0,0,1,1,.75,2.76,2.76,0,0,1,.71,1.1,8.33,8.33,0,0,1,.71,3.19,11.42,11.42,0,0,1,.13,1.28c0,.56,0,1.13,0,1.72s0,1.17,0,1.73,0,1,0,1.28v.44c.06,1.88.09,3.8.09,5.74v7.42a23.72,23.72,0,0,1,7.78-1.19A16.38,16.38,0,0,1,615.32,81a15.32,15.32,0,0,1,5,3.8,14,14,0,0,1,2.52,4.68,21.88,21.88,0,0,1,.92,5.48C623.85,96.88,623.92,98.92,624,101Z"/><path class="cls-4" d="M657.3,106.34a13.09,13.09,0,0,1,2.17-.35,4.68,4.68,0,0,1,2,.26,3.45,3.45,0,0,1,1.54,1.19,3.88,3.88,0,0,1,.62,2.35,4.13,4.13,0,0,1-.53,2,7.56,7.56,0,0,1-1.32,1.77A9.1,9.1,0,0,1,660,115a14.64,14.64,0,0,1-1.86.93,26.18,26.18,0,0,1-5.87,1.76,28.77,28.77,0,0,1-6.85.44,27.38,27.38,0,0,1-9.15-1.9,13.88,13.88,0,0,1-6.85-5.7,20.56,20.56,0,0,1-2.74-8.66,30.42,30.42,0,0,1,.44-9,20.62,20.62,0,0,1,3.32-8.35,18.63,18.63,0,0,1,5.61-5.17A18.23,18.23,0,0,1,645,76.91a21.69,21.69,0,0,1,9.45,2,18.88,18.88,0,0,1,5.39,3.57,14.87,14.87,0,0,1,3.63,5.44,9.52,9.52,0,0,1,.57,1.95,19.63,19.63,0,0,1,.31,2.43,17.52,17.52,0,0,1,0,2.51,8.32,8.32,0,0,1-.44,2.21,7.11,7.11,0,0,1-1.33,2.48,4.85,4.85,0,0,1-2,1.32,11.33,11.33,0,0,1-3,.58c-1.15.09-2.52.16-4.11.22-1.41.06-2.74.09-4,.09s-2.5,0-3.8,0l-4-.09c-1.38,0-2.93-.07-4.64-.13a4.58,4.58,0,0,0,.49,3,6.11,6.11,0,0,0,2.08,2.12,10.41,10.41,0,0,0,3,1.28,16.13,16.13,0,0,0,3.27.53,19.4,19.4,0,0,0,5.74-.48C653.47,107.44,655.36,106.93,657.3,106.34ZM653.5,89.2A11,11,0,0,0,650,86.37a6.84,6.84,0,0,0-3-.58,11.18,11.18,0,0,0-3,.49,8.17,8.17,0,0,0-4.33,2.65,6.65,6.65,0,0,0-.61.84c-.3.44-.58.9-.84,1.37a6,6,0,0,0-.58,1.33c-.12.41-.06.61.18.61h17.32a6.78,6.78,0,0,0-.44-2.07A6.58,6.58,0,0,0,653.5,89.2Z"/></g><path class="cls-5" d="M180.13,156.76a56.06,56.06,0,0,1,17.06,11.1,77.44,77.44,0,0,1,13.36,16.58,82.38,82.38,0,0,1,8.69,20.11,79.3,79.3,0,0,1,3.06,21.73,61.11,61.11,0,0,1-7.57,30.9q-7.89,14.47-25.58,22.21a147.83,147.83,0,0,1-27.85,8.2,237.35,237.35,0,0,1-29.77,3.71v58.9a12.42,12.42,0,0,1-.48,3.54,11.17,11.17,0,0,0-.48,3.22q-.66,3.21-1.45,5.79a54.1,54.1,0,0,1-2.09,5.47c-.86,1.29-1.72,2.46-2.58,3.54a39.93,39.93,0,0,1-2.9,3.22,22.06,22.06,0,0,1-16.09,1.61,13.4,13.4,0,0,1-8.37-3.22,18.24,18.24,0,0,1-4.18-6.11,50.35,50.35,0,0,1-2.25-7.41c-.22-1.07-.38-2.09-.49-3.06a26.9,26.9,0,0,1-.16-3.05V174.46c0-1.29,0-2.63.16-4s.27-2.84.49-4.34a25.16,25.16,0,0,1,1.93-7.72q2.89-8.06,11.91-11a60.22,60.22,0,0,1,20.27-2.57,139.52,139.52,0,0,1,15.94,1.61q8.21,1.29,15.77,3t13.68,3.71Q176.27,155.14,180.13,156.76Zm.65,69.52q1.28-9-2.09-15.29a28.4,28.4,0,0,0-9.5-10.3,50.86,50.86,0,0,0-14-6.28,104.64,104.64,0,0,0-15.61-3.22,10.71,10.71,0,0,0-3.06-.32h-4.67q0,10.31.17,19.8t-.17,20.44v21.56a139,139,0,0,0,15.62-1.61,67.68,67.68,0,0,0,15.28-4.18,37.62,37.62,0,0,0,12.07-7.73Q179.82,234.32,180.78,226.28Z"/><path class="cls-5" d="M273.79,156.11a90.22,90.22,0,0,1,22.21-7.4,76,76,0,0,1,23-1,74.5,74.5,0,0,1,22.2,6.12A69,69,0,0,1,361,167.38a72.94,72.94,0,0,1,12.87,17.86,96.25,96.25,0,0,1,8.05,20.44,69.57,69.57,0,0,1,1.61,35.73,107.91,107.91,0,0,1-13.2,33.47,56.64,56.64,0,0,1-11.1,12.71,64.19,64.19,0,0,1-14,9.18A78,78,0,0,1,324.33,303a89,89,0,0,1-21.89.81q-19.32-1-34-9.66A70.61,70.61,0,0,1,245,272a77.36,77.36,0,0,1-11.59-30.74A83.85,83.85,0,0,1,235.49,206q5.14-19.31,15-31.38A66.93,66.93,0,0,1,273.79,156.11Zm9.66,43.13a29.43,29.43,0,0,0-7.4,11.27,51.93,51.93,0,0,0-3.22,14A43.84,43.84,0,0,0,274,239a40.45,40.45,0,0,0,5.63,13q3.21,4.83,11.58,8a60,60,0,0,0,17.39,3.87,25.08,25.08,0,0,0,18-5.64,40.38,40.38,0,0,0,11.75-15.61,47.18,47.18,0,0,0,3.7-20.27,40.19,40.19,0,0,0-5.79-20A23.28,23.28,0,0,0,325.45,193,37.46,37.46,0,0,0,311,189.75,44.84,44.84,0,0,0,296,192,32.94,32.94,0,0,0,283.45,199.24Z"/><path class="cls-5" d="M484.93,156.76A56.06,56.06,0,0,1,502,167.86a77.44,77.44,0,0,1,13.36,16.58A82.38,82.38,0,0,1,524,204.55a79.3,79.3,0,0,1,3.06,21.73,61.11,61.11,0,0,1-7.57,30.9q-7.89,14.47-25.58,22.21a147.83,147.83,0,0,1-27.85,8.2,237.35,237.35,0,0,1-29.77,3.71v58.9a12.42,12.42,0,0,1-.48,3.54,11.17,11.17,0,0,0-.48,3.22q-.66,3.21-1.45,5.79a54.1,54.1,0,0,1-2.09,5.47c-.86,1.29-1.72,2.46-2.58,3.54a39.93,39.93,0,0,1-2.9,3.22,22.06,22.06,0,0,1-16.09,1.61,13.4,13.4,0,0,1-8.37-3.22,18.24,18.24,0,0,1-4.18-6.11,50.35,50.35,0,0,1-2.25-7.41c-.22-1.07-.38-2.09-.49-3.06a26.9,26.9,0,0,1-.16-3.05V174.46c0-1.29.05-2.63.16-4s.27-2.84.49-4.34a25.16,25.16,0,0,1,1.93-7.72q2.89-8.06,11.91-11a60.22,60.22,0,0,1,20.27-2.57,139.52,139.52,0,0,1,15.94,1.61q8.21,1.29,15.77,3T475,153.22Q481.06,155.14,484.93,156.76Zm.65,69.52q1.28-9-2.09-15.29a28.4,28.4,0,0,0-9.5-10.3,50.86,50.86,0,0,0-14-6.28,104.64,104.64,0,0,0-15.61-3.22,10.76,10.76,0,0,0-3.06-.32h-4.67q0,10.31.17,19.8t-.17,20.44v21.56a138.62,138.62,0,0,0,15.61-1.61,67.63,67.63,0,0,0,15.29-4.18,37.62,37.62,0,0,0,12.07-7.73Q484.62,234.32,485.58,226.28Z"/><path class="cls-5" d="M627.19,156.76a56.06,56.06,0,0,1,17.06,11.1,77.44,77.44,0,0,1,13.36,16.58,82.38,82.38,0,0,1,8.69,20.11,79.3,79.3,0,0,1,3.06,21.73,61.11,61.11,0,0,1-7.57,30.9q-7.89,14.47-25.58,22.21a147.83,147.83,0,0,1-27.85,8.2,237.59,237.59,0,0,1-29.77,3.71v58.9a12.42,12.42,0,0,1-.48,3.54,11.17,11.17,0,0,0-.48,3.22q-.66,3.21-1.45,5.79a54.1,54.1,0,0,1-2.09,5.47c-.86,1.29-1.72,2.46-2.58,3.54a39.93,39.93,0,0,1-2.9,3.22,22.06,22.06,0,0,1-16.09,1.61,13.38,13.38,0,0,1-8.37-3.22,18.24,18.24,0,0,1-4.18-6.11,50.35,50.35,0,0,1-2.25-7.41c-.22-1.07-.38-2.09-.49-3.06a26.9,26.9,0,0,1-.16-3.05V174.46c0-1.29,0-2.63.16-4s.27-2.84.49-4.34a25.16,25.16,0,0,1,1.93-7.72q2.9-8.06,11.91-11a60.22,60.22,0,0,1,20.27-2.57,139.52,139.52,0,0,1,15.94,1.61q8.21,1.29,15.77,3t13.68,3.71Q623.32,155.14,627.19,156.76Zm.65,69.52q1.27-9-2.09-15.29a28.4,28.4,0,0,0-9.5-10.3,51,51,0,0,0-14-6.28,104.64,104.64,0,0,0-15.61-3.22,10.76,10.76,0,0,0-3.06-.32h-4.67q0,10.31.17,19.8t-.17,20.44v21.56a138.62,138.62,0,0,0,15.61-1.61,67.63,67.63,0,0,0,15.29-4.18,37.62,37.62,0,0,0,12.07-7.73Q626.88,234.32,627.84,226.28Z"/><path class="cls-5" d="M722.14,275.85c-.22,1.07-.38,2.09-.48,3a27.21,27.21,0,0,0-.16,3.06l-1.93,6.76a7.92,7.92,0,0,1-1,1.61l-1,1.93a12.51,12.51,0,0,1-5.79,5.79A24,24,0,0,1,695.43,300a16.7,16.7,0,0,1-8.69-3.22,12.13,12.13,0,0,1-4.51-5.47,36.9,36.9,0,0,1-1.93-6.44,20.23,20.23,0,0,1-1-5.8V98.82c0-1.5,0-2.84.16-4a31.2,31.2,0,0,1,.49-3.38,26.45,26.45,0,0,1,.8-3.86c.32-1.08.7-2.26,1.13-3.54a9.74,9.74,0,0,1,3.54-5.16,14.7,14.7,0,0,1,7.4-3.21,22.13,22.13,0,0,1,4.19-.81c1.28-.1,2.78-.16,4.5-.16a25.83,25.83,0,0,1,10.3,2.58,14.67,14.67,0,0,1,6.44,7.08,26.94,26.94,0,0,1,3.22,11.91q.32,3.21.48,9.65c.1,4.3.16,7.51.16,9.66v1.28q.65,10.3.64,19.8t-.32,20.76q0,10.95-.16,21.08t-.16,20.12v67.59a16.62,16.62,0,0,0,.16,2.41,16.86,16.86,0,0,1,.16,2.42A27.18,27.18,0,0,1,722.14,275.85Z"/><path class="cls-5" d="M843.81,257.5a48.15,48.15,0,0,1,7.88-1.29,16.82,16.82,0,0,1,7.4,1,12.45,12.45,0,0,1,5.64,4.34c1.49,2,2.25,4.89,2.25,8.53a15.28,15.28,0,0,1-1.93,7.4,28,28,0,0,1-4.83,6.44,32.18,32.18,0,0,1-6.44,5,47.82,47.82,0,0,1-6.76,3.38,94.58,94.58,0,0,1-21.4,6.44,106.65,106.65,0,0,1-25,1.61,100.5,100.5,0,0,1-33.31-6.92,50.42,50.42,0,0,1-24.94-20.76,74.53,74.53,0,0,1-10-31.55,110,110,0,0,1,1.61-32.83q3.54-18.66,12.07-30.41A68.13,68.13,0,0,1,766.56,159a66.14,66.14,0,0,1,32.51-8.69,79.5,79.5,0,0,1,34.44,7.08,68.93,68.93,0,0,1,19.63,13,53.52,53.52,0,0,1,13.19,19.8,32.89,32.89,0,0,1,2.1,7.08,74.19,74.19,0,0,1,1.12,8.85,67,67,0,0,1,0,9.18,29.45,29.45,0,0,1-1.61,8,25.2,25.2,0,0,1-4.82,9,17.72,17.72,0,0,1-7.41,4.83,41.39,41.39,0,0,1-10.78,2.09q-6.27.49-15,.81c-5.16.21-10,.32-14.49.32s-9.12-.05-13.84-.16L787,240q-7.57-.17-16.9-.49a16.46,16.46,0,0,0,1.77,11.11,22.49,22.49,0,0,0,7.56,7.72,38.34,38.34,0,0,0,11,4.67,58.84,58.84,0,0,0,11.9,1.93,70.85,70.85,0,0,0,20.93-1.77Q833.17,260.71,843.81,257.5ZM830,195.06a40.14,40.14,0,0,0-12.88-10.3,24.79,24.79,0,0,0-10.78-2.09,39.62,39.62,0,0,0-10.79,1.77,29.71,29.71,0,0,0-15.77,9.65,24.45,24.45,0,0,0-2.25,3.06c-1.08,1.61-2.09,3.27-3.06,5a23.13,23.13,0,0,0-2.09,4.83c-.43,1.5-.22,2.25.65,2.25h63.08A20.35,20.35,0,0,0,830,195.06Z"/><path class="cls-5" d="M579.6,58.62a3.7,3.7,0,0,1,1,2.38c0,.36,0,.73,0,1.11a8.68,8.68,0,0,1-.14,1A4.19,4.19,0,0,1,579.24,65a5,5,0,0,1-1.94.8,9.12,9.12,0,0,1-1.24.26,12.93,12.93,0,0,0-1.32.27,8.73,8.73,0,0,1-1.24.09h-5.83c-1.06.06-2.11.08-3.14.08h-3q.09,2.74.09,5.88t0,7.29q0,4.16-.09,9.63T561.39,102v6.72a7.08,7.08,0,0,0,.09,1.32v.67a4,4,0,0,1-.09.75,14,14,0,0,0-.26,1.85,3.73,3.73,0,0,1-.09.84,5.09,5.09,0,0,1-.27.84c-.23.24-.35.41-.35.53l-.26.53a4.62,4.62,0,0,1-1.68,1.68,6.29,6.29,0,0,1-4.33.44,4.51,4.51,0,0,1-2.3-.79,5.3,5.3,0,0,1-1.15-1.59,5,5,0,0,1-.62-1.86,5.18,5.18,0,0,1-.26-1.68V66.84h-2.21c-1.12,0-2.32,0-3.58,0s-2.46-.07-3.58-.13-1.89-.12-2.3-.18l-1.63-.26c-.74-.12-1.35-.24-1.82-.36a6.2,6.2,0,0,1-2.91-1.67,3.87,3.87,0,0,1-1-2.57V60.56a2.57,2.57,0,0,1,.17-1,2.94,2.94,0,0,1,1.42-1.77,10,10,0,0,1,1.1-.66,6.37,6.37,0,0,1,1.46-.57,12.35,12.35,0,0,1,2.65-.53A11.12,11.12,0,0,1,539,56h7.38q2.79,0,5.88-.09c3.42-.06,6.82-.07,10.21-.05s6.76.11,10.12.23c.76.06,1.5.14,2.21.26a10.17,10.17,0,0,1,2.12.62,9.21,9.21,0,0,1,1.5.66A3.66,3.66,0,0,1,579.6,58.62Z"/><path class="cls-5" d="M617.69,101c0,1.18.08,2.4.08,3.66s0,2.44-.08,3.5c-.06,1.59-.15,3-.27,4.37a12.21,12.21,0,0,1-.71,3.36,3.88,3.88,0,0,1-1.63,2,4.67,4.67,0,0,1-3.05.4,3.63,3.63,0,0,1-2.92-1.94,11.9,11.9,0,0,1-1.19-3.85,23.59,23.59,0,0,1-.22-4.37,32.41,32.41,0,0,0,0-3.45c-.06-1.29-.1-2.78-.13-4.46a25,25,0,0,0-.53-4.77,10.13,10.13,0,0,0-1.64-3.85A4.17,4.17,0,0,0,602,90a10.78,10.78,0,0,0-4.47.44,4.42,4.42,0,0,0-2.25,1.82,6.59,6.59,0,0,0-.84,2.87c-.09,1.12-.22,2.32-.4,3.62l-.09,3.45v6.45c0,1.06,0,2.16,0,3.31a9.43,9.43,0,0,1-.58,3.14,5.74,5.74,0,0,1-1.63,2.38,4.74,4.74,0,0,1-3.23,1,4.58,4.58,0,0,1-3.93-1.73,7,7,0,0,1-1.28-4.28V61.62c0-.35,0-.69,0-1s.08-.67.14-1a8.86,8.86,0,0,0,.26-1,4.56,4.56,0,0,1,.27-.93,2.42,2.42,0,0,1,.88-1.33,5.37,5.37,0,0,1,.88-.71,2.94,2.94,0,0,1,1-.35,8.46,8.46,0,0,1,1-.13c.35,0,.71-.05,1.06-.05a4.67,4.67,0,0,1,2.56.8,7.54,7.54,0,0,1,1,.75,2.76,2.76,0,0,1,.71,1.1,8.33,8.33,0,0,1,.71,3.19,9.44,9.44,0,0,1,.13,1.28c0,.56,0,1.13,0,1.72s0,1.17,0,1.73,0,1,0,1.28v.44c.06,1.88.09,3.8.09,5.74v7.42a23.76,23.76,0,0,1,7.78-1.19A16.46,16.46,0,0,1,609,81a15.38,15.38,0,0,1,5,3.8,13.81,13.81,0,0,1,2.52,4.68,21.44,21.44,0,0,1,.92,5.48C617.55,96.88,617.63,98.92,617.69,101Z"/><path class="cls-5" d="M651,106.34a13.09,13.09,0,0,1,2.17-.35,4.68,4.68,0,0,1,2,.26,3.53,3.53,0,0,1,1.55,1.19,4,4,0,0,1,.62,2.35,4.14,4.14,0,0,1-.54,2,7.56,7.56,0,0,1-1.32,1.77,9.1,9.1,0,0,1-1.77,1.37,14.64,14.64,0,0,1-1.86.93,26,26,0,0,1-5.87,1.76,28.77,28.77,0,0,1-6.85.44,27.38,27.38,0,0,1-9.15-1.9,13.88,13.88,0,0,1-6.85-5.7,20.41,20.41,0,0,1-2.73-8.66,30.09,30.09,0,0,1,.44-9,20.47,20.47,0,0,1,3.31-8.35,18.63,18.63,0,0,1,5.61-5.17,18.23,18.23,0,0,1,8.93-2.39,21.66,21.66,0,0,1,9.45,2,18.93,18.93,0,0,1,5.4,3.57,15,15,0,0,1,3.62,5.44,9.52,9.52,0,0,1,.57,1.95,19.63,19.63,0,0,1,.31,2.43,17.52,17.52,0,0,1,0,2.51,8.32,8.32,0,0,1-.44,2.21,7,7,0,0,1-1.33,2.48,4.78,4.78,0,0,1-2,1.32,11.25,11.25,0,0,1-3,.58c-1.15.09-2.52.16-4.11.22-1.41.06-2.74.09-4,.09s-2.5,0-3.8,0l-4-.09c-1.38,0-2.93-.07-4.64-.13a4.58,4.58,0,0,0,.49,3,6.11,6.11,0,0,0,2.08,2.12,10.41,10.41,0,0,0,3,1.28,16.13,16.13,0,0,0,3.27.53,19.5,19.5,0,0,0,5.75-.48C647.17,107.44,649.06,106.93,651,106.34ZM647.2,89.2a11,11,0,0,0-3.53-2.83,6.87,6.87,0,0,0-3-.58,11,11,0,0,0-3,.49,8.13,8.13,0,0,0-4.33,2.65,6.38,6.38,0,0,0-.62.84c-.3.44-.58.9-.84,1.37a6,6,0,0,0-.58,1.33c-.12.41-.06.61.18.61h17.32a6.78,6.78,0,0,0-.44-2.07A6.58,6.58,0,0,0,647.2,89.2Z"/></g></g></svg>