<svg xmlns="http://www.w3.org/2000/svg" width="113.031" height="42.906" viewBox="0 0 113.031 42.906">
  <defs>
    <style>
      .cls-1 {
        fill: #fff;
        fill-rule: evenodd;
      }
    </style>
  </defs>
  <path id="wittyfeed" class="cls-1" d="M740.114,353.6q-0.48,1.089-.75,1.759t-0.406,1.029q-0.135.357-.225,0.626c-0.08-.537-0.171-1.018-0.27-1.446a13.939,13.939,0,0,0-.451-1.476q-0.3-.834-0.811-2.028t-1.321-3.131H733l5.736,13.419q0.992-2.266,1.907-4.384t1.937-4.383q0.57,1.134,1.036,2.221t0.916,2.162q0.45,1.074.9,2.162t1.021,2.222l6.037-13.419h-2.883q-0.812,1.91-1.367,3.1t-0.916,2.028a13.722,13.722,0,0,0-.555,1.491,10.485,10.485,0,0,0-.316,1.461c-0.08-.238-0.2-0.552-0.345-0.939s-0.356-.895-0.616-1.521-0.591-1.4-.991-2.311-0.9-2.017-1.5-3.31h-2.492l0.871,1.849Q740.595,352.512,740.114,353.6Zm14.506-8.29a1.851,1.851,0,0,0,1.231.492,1.8,1.8,0,0,0,1.216-.492,1.773,1.773,0,0,0,0-2.579,1.769,1.769,0,0,0-1.216-.507,1.822,1.822,0,0,0-1.231.507A1.742,1.742,0,0,0,754.62,345.31Zm2.643,3.623H754.38v12.673h2.883V348.933Zm4.715,0h-2.163V351.5h2.163v10.108h2.853V351.5h3.333v-2.565h-3.333v-5.546h-2.853v5.546Zm9.49,0h-2.163V351.5h2.163v10.108h2.853V351.5h3.333v-2.565h-3.333v-5.546h-2.853v5.546Zm21.143,0h-3.094q-1.142,2.208-1.862,3.7t-1.171,2.505q-0.45,1.014-.691,1.654t-0.42,1.178q-0.151-.537-0.391-1.178t-0.69-1.654q-0.452-1.014-1.172-2.505t-1.862-3.7h-3.123q0.66,1.342,1.4,2.833l1.487,3.012q0.75,1.521,1.487,3.011t1.426,2.833q-0.512,1.044-.931,1.938t-0.811,1.745q-0.39.849-.781,1.669t-0.841,1.715h2.884Zm3.093,2.773v9.9h2.883v-9.9h3.964v-2.8h-3.964v-2.565a6.2,6.2,0,0,1,1.021-3.817,4.329,4.329,0,0,1,3.364-1.49v-2.714a7.633,7.633,0,0,0-5.406,2.013q-1.863,1.893-1.862,5.889V348.9h-2.193v2.8H795.7Zm17.569,6.382a3.711,3.711,0,0,1-1.307.76,4.671,4.671,0,0,1-1.576.283,3.762,3.762,0,0,1-2.043-.566,4.052,4.052,0,0,1-1.411-1.491q1.082-.417,2.372-0.94t2.583-1.028q1.291-.507,2.478-0.969t2.087-.791a7.025,7.025,0,0,0-2.327-3.414,5.947,5.947,0,0,0-3.8-1.3,6.444,6.444,0,0,0-2.568.522,6.813,6.813,0,0,0-2.133,1.431,6.958,6.958,0,0,0-1.456,2.117,6.42,6.42,0,0,0,0,5.159,6.945,6.945,0,0,0,1.456,2.117,6.692,6.692,0,0,0,2.163,1.431,6.8,6.8,0,0,0,2.658.522,7.913,7.913,0,0,0,2.7-.477,6.778,6.778,0,0,0,2.252-1.312Zm-1.8-4.846q-0.781.314-1.637,0.671t-1.712.7l-1.607.641v-0.119a3.346,3.346,0,0,1,.3-1.387,4.059,4.059,0,0,1,.811-1.193,3.892,3.892,0,0,1,2.763-1.148,3.537,3.537,0,0,1,1.411.313,2.186,2.186,0,0,1,1.081.969Q812.252,352.93,811.471,353.242Zm16.037,4.846a3.706,3.706,0,0,1-1.306.76,4.676,4.676,0,0,1-1.577.283,3.761,3.761,0,0,1-2.042-.566,4.054,4.054,0,0,1-1.412-1.491q1.082-.417,2.373-0.94t2.583-1.028q1.29-.507,2.477-0.969t2.088-.791a7.026,7.026,0,0,0-2.328-3.414,5.943,5.943,0,0,0-3.8-1.3,6.444,6.444,0,0,0-2.568.522,6.8,6.8,0,0,0-2.132,1.431,6.978,6.978,0,0,0-1.457,2.117,6.431,6.431,0,0,0,0,5.159,6.966,6.966,0,0,0,1.457,2.117,6.676,6.676,0,0,0,2.162,1.431,6.811,6.811,0,0,0,2.658.522,7.9,7.9,0,0,0,2.7-.477,6.773,6.773,0,0,0,2.253-1.312Zm-1.8-4.846q-0.782.314-1.636,0.671t-1.712.7l-1.607.641v-0.119a3.36,3.36,0,0,1,.3-1.387,4.059,4.059,0,0,1,.811-1.193,3.86,3.86,0,0,1,1.231-.835,3.82,3.82,0,0,1,1.532-.313,3.545,3.545,0,0,1,1.412.313,2.19,2.19,0,0,1,1.081.969Q826.487,352.93,825.706,353.242Zm6.863,4.622a6.267,6.267,0,0,0,1.261,2.117,5.8,5.8,0,0,0,2.042,1.431,6.906,6.906,0,0,0,2.748.522,6.6,6.6,0,0,0,1.547-.164,5.767,5.767,0,0,0,1.216-.432,5.091,5.091,0,0,0,.931-0.582,8.287,8.287,0,0,0,.661-0.581,1.785,1.785,0,0,1-.03.268,2,2,0,0,0-.03.328v0.835H845.8V338.318h-2.883v12.226q-0.18-.238-0.5-0.582a3.579,3.579,0,0,0-.826-0.641,5.44,5.44,0,0,0-1.232-.507,6.074,6.074,0,0,0-1.682-.209,6.708,6.708,0,0,0-2.6.492,6.378,6.378,0,0,0-2.073,1.372,6.219,6.219,0,0,0-1.381,2.1,7.152,7.152,0,0,0-.5,2.714A7.53,7.53,0,0,0,832.569,357.864Zm2.733-4.145a3.612,3.612,0,0,1,2.057-2.027,4.315,4.315,0,0,1,1.592-.284,4.259,4.259,0,0,1,1.607.3,3.923,3.923,0,0,1,1.261.806,3.494,3.494,0,0,1,.811,1.207,3.958,3.958,0,0,1,.285,1.506,4.072,4.072,0,0,1-.285,1.521,3.78,3.78,0,0,1-.811,1.252,3.681,3.681,0,0,1-1.261.835,4.24,4.24,0,0,1-1.607.3,4.123,4.123,0,0,1-1.592-.3,3.811,3.811,0,0,1-1.246-.82,3.589,3.589,0,0,1-.811-1.237,4.138,4.138,0,0,1-.286-1.551A3.939,3.939,0,0,1,835.3,353.719Z" transform="translate(-733 -338.313)"/>
  <path id="Global" class="cls-1" d="M811.053,381.209a8.783,8.783,0,0,0,2-.216,6.407,6.407,0,0,0,1.585-.574v-4.652h-3.079v1.282h1.652v2.594a3.643,3.643,0,0,1-.856.216,6.5,6.5,0,0,1-.9.068,3.792,3.792,0,0,1-2.981-1.134,4.35,4.35,0,0,1-1.013-3.011,5.047,5.047,0,0,1,.428-2.125,3.347,3.347,0,0,1,1.306-1.476,4.086,4.086,0,0,1,2.185-.544,7.837,7.837,0,0,1,2.778.552l0.135-1.238a7.18,7.18,0,0,0-1.389-.432,7.557,7.557,0,0,0-1.569-.164,5.777,5.777,0,0,0-2.808.671,4.86,4.86,0,0,0-1.93,1.893,5.649,5.649,0,0,0-.7,2.848,5.869,5.869,0,0,0,.676,2.862,4.784,4.784,0,0,0,1.847,1.909,5.2,5.2,0,0,0,2.628.671h0Zm7.073-.06h0.435l0.195-1.073a2.105,2.105,0,0,1-.781-0.105,0.569,0.569,0,0,1-.322-0.4,3.883,3.883,0,0,1-.083-0.954v-8.8h-1.352v9.572a1.8,1.8,0,0,0,.458,1.252,1.865,1.865,0,0,0,1.45.507h0Zm4.79,0a3.705,3.705,0,0,0,1.944-.5,3.275,3.275,0,0,0,1.269-1.365,4.525,4.525,0,0,0,0-3.876,3.279,3.279,0,0,0-1.269-1.364,4.045,4.045,0,0,0-3.9,0,3.3,3.3,0,0,0-1.262,1.364,4.535,4.535,0,0,0,0,3.876,3.3,3.3,0,0,0,1.262,1.365,3.7,3.7,0,0,0,1.952.5h0Zm0-1.193a2.1,2.1,0,0,1-1.675-.685,3.416,3.416,0,0,1,0-3.847,2.387,2.387,0,0,1,3.349,0,3.416,3.416,0,0,1,0,3.847,2.093,2.093,0,0,1-1.674.685h0Zm8.664-6.411a3.11,3.11,0,0,0-1.269.269,2.864,2.864,0,0,0-1.013.73v-4.726h-1.352V381h1.2l0.151-.895a2.263,2.263,0,0,0,.976.768,3.224,3.224,0,0,0,1.306.276,2.945,2.945,0,0,0,1.674-.507,3.559,3.559,0,0,0,1.2-1.379,4.172,4.172,0,0,0,.443-1.916,4.41,4.41,0,0,0-.406-1.886,3.388,3.388,0,0,0-1.164-1.394,3.007,3.007,0,0,0-1.749-.522h0Zm-0.165,6.411a2.069,2.069,0,0,1-1.569-.656,3.321,3.321,0,0,1,.007-3.883,2.046,2.046,0,0,1,1.562-.679,1.841,1.841,0,0,1,1.524.738,3.293,3.293,0,0,1,0,3.727,1.828,1.828,0,0,1-1.524.753h0Zm6.592,1.193a2.878,2.878,0,0,0,2.252-1.073,2.482,2.482,0,0,0,.353.611,1.183,1.183,0,0,0,.548.343,3.3,3.3,0,0,0,.992.119h0.1l0.21-1.073h-0.135a0.806,0.806,0,0,1-.556-0.164,0.8,0.8,0,0,1-.233-0.47,5.761,5.761,0,0,1-.052-0.9v-1.491a6.618,6.618,0,0,0-.263-2.087,1.92,1.92,0,0,0-.826-1.089,3,3,0,0,0-1.509-.328,4.567,4.567,0,0,0-1.382.209,3.619,3.619,0,0,0-1.111.552l0.2,1.088a3.724,3.724,0,0,1,1.007-.514,3.16,3.16,0,0,1,.931-0.142,1.373,1.373,0,0,1,1.606,1.685,7.759,7.759,0,0,0-3.078.626,2.038,2.038,0,0,0-1.321,1.983,2.013,2.013,0,0,0,.623,1.521,2.279,2.279,0,0,0,1.644.6h0Zm0.255-1.073a1.2,1.2,0,0,1-.833-0.276,1.077,1.077,0,0,1-.308-0.843,1.242,1.242,0,0,1,.7-1.185,5.839,5.839,0,0,1,2.32-.425v1.745a2.463,2.463,0,0,1-.833.715,2.191,2.191,0,0,1-1.044.269h0Zm7.133,1.073h0.435l0.2-1.073a2.1,2.1,0,0,1-.781-0.105,0.572,0.572,0,0,1-.323-0.4,3.934,3.934,0,0,1-.083-0.954v-8.8h-1.351v9.572a1.8,1.8,0,0,0,.458,1.252,1.861,1.861,0,0,0,1.449.507h0Z" transform="translate(-733 -338.313)"/>
</svg>
