<svg xmlns="http://www.w3.org/2000/svg" width="113" height="42.843" viewBox="0 0 113 42.843">
  <defs>
    <style>
      .cls-1 {
        fill: #fff;
        fill-rule: evenodd;
      }
    </style>
  </defs>
  <path id="wittyfeed" class="cls-1" d="M520.114,354.6q-0.48,1.089-.751,1.759t-0.405,1.029q-0.135.357-.225,0.626c-0.08-.537-0.171-1.018-0.27-1.446a13.939,13.939,0,0,0-.451-1.476q-0.3-.834-0.811-2.028t-1.321-3.131H513l5.736,13.418q0.992-2.265,1.907-4.383t1.937-4.383q0.57,1.134,1.036,2.221t0.916,2.162q0.45,1.074.9,2.162t1.021,2.221l6.037-13.418h-2.883q-0.812,1.91-1.367,3.1t-0.916,2.028a13.722,13.722,0,0,0-.555,1.491,10.485,10.485,0,0,0-.316,1.461c-0.08-.238-0.2-0.552-0.345-0.939s-0.356-.895-0.616-1.521-0.591-1.4-.991-2.311-0.9-2.017-1.5-3.31h-2.492l0.871,1.849Q520.595,353.512,520.114,354.6Zm14.506-8.29a1.851,1.851,0,0,0,1.231.492,1.8,1.8,0,0,0,1.216-.492,1.773,1.773,0,0,0,0-2.579,1.769,1.769,0,0,0-1.216-.507,1.822,1.822,0,0,0-1.231.507A1.742,1.742,0,0,0,534.62,346.31Zm2.643,3.623h-2.884v12.673h2.884V349.933Zm4.715,0h-2.163V352.5h2.163v10.108h2.853V352.5h3.333v-2.565h-3.333v-5.546h-2.853v5.546Zm9.49,0H549.3V352.5h2.163v10.108h2.853V352.5h3.333v-2.565h-3.333v-5.546h-2.853v5.546Zm21.143,0h-3.094q-1.142,2.208-1.862,3.7t-1.171,2.5q-0.45,1.016-.691,1.655t-0.42,1.178q-0.151-.537-0.391-1.178t-0.69-1.655q-0.452-1.013-1.172-2.5t-1.862-3.7h-3.123q0.66,1.342,1.4,2.833l1.487,3.012q0.75,1.521,1.487,3.011t1.426,2.833q-0.512,1.044-.931,1.938t-0.811,1.745q-0.39.849-.781,1.669t-0.841,1.715h2.884Zm3.093,2.773v9.9h2.883v-9.9h3.964v-2.8h-3.964v-2.564a6.2,6.2,0,0,1,1.021-3.817,4.329,4.329,0,0,1,3.364-1.49v-2.714a7.633,7.633,0,0,0-5.406,2.013q-1.863,1.893-1.862,5.889V349.9h-2.193v2.8H575.7Zm17.569,6.382a3.711,3.711,0,0,1-1.307.76,4.671,4.671,0,0,1-1.576.283,3.762,3.762,0,0,1-2.043-.566,4.052,4.052,0,0,1-1.411-1.491q1.082-.417,2.372-0.94t2.583-1.028q1.291-.507,2.478-0.969t2.087-.791a7.025,7.025,0,0,0-2.327-3.414,5.942,5.942,0,0,0-3.8-1.3,6.444,6.444,0,0,0-2.568.522,6.813,6.813,0,0,0-2.133,1.431,6.958,6.958,0,0,0-1.456,2.117,6.42,6.42,0,0,0,0,5.159,6.945,6.945,0,0,0,1.456,2.117,6.692,6.692,0,0,0,2.163,1.431,6.8,6.8,0,0,0,2.658.522,7.913,7.913,0,0,0,2.7-.477,6.778,6.778,0,0,0,2.252-1.312Zm-1.8-4.846q-0.781.314-1.637,0.671t-1.712.7l-1.607.641v-0.12a3.344,3.344,0,0,1,.3-1.386,4.059,4.059,0,0,1,.811-1.193,3.892,3.892,0,0,1,2.763-1.148,3.537,3.537,0,0,1,1.411.313,2.186,2.186,0,0,1,1.081.969Q592.252,353.93,591.471,354.242Zm16.037,4.846a3.706,3.706,0,0,1-1.306.76,4.676,4.676,0,0,1-1.577.283,3.759,3.759,0,0,1-2.042-.566,4.054,4.054,0,0,1-1.412-1.491q1.082-.417,2.373-0.94t2.583-1.028q1.29-.507,2.477-0.969t2.088-.791a7.026,7.026,0,0,0-2.328-3.414,5.938,5.938,0,0,0-3.8-1.3,6.444,6.444,0,0,0-2.568.522,6.8,6.8,0,0,0-2.132,1.431,6.978,6.978,0,0,0-1.457,2.117,6.431,6.431,0,0,0,0,5.159,6.966,6.966,0,0,0,1.457,2.117,6.676,6.676,0,0,0,2.162,1.431,6.811,6.811,0,0,0,2.658.522,7.9,7.9,0,0,0,2.7-.477,6.773,6.773,0,0,0,2.253-1.312Zm-1.8-4.846q-0.782.314-1.637,0.671t-1.711.7l-1.607.641v-0.12a3.359,3.359,0,0,1,.3-1.386,4.059,4.059,0,0,1,.811-1.193,3.86,3.86,0,0,1,1.231-.835,3.817,3.817,0,0,1,1.532-.313,3.545,3.545,0,0,1,1.412.313,2.19,2.19,0,0,1,1.081.969Q606.487,353.93,605.706,354.242Zm6.863,4.622a6.267,6.267,0,0,0,1.261,2.117,5.789,5.789,0,0,0,2.042,1.431,6.906,6.906,0,0,0,2.748.522,6.6,6.6,0,0,0,1.547-.164,5.767,5.767,0,0,0,1.216-.432,5.091,5.091,0,0,0,.931-0.582,8.287,8.287,0,0,0,.661-0.581,1.785,1.785,0,0,1-.03.268,2,2,0,0,0-.03.328v0.835H625.8V339.318h-2.883v12.225q-0.18-.237-0.5-0.581a3.579,3.579,0,0,0-.826-0.641,5.44,5.44,0,0,0-1.232-.507,6.074,6.074,0,0,0-1.682-.209,6.708,6.708,0,0,0-2.6.492,6.378,6.378,0,0,0-2.073,1.372,6.219,6.219,0,0,0-1.381,2.1,7.152,7.152,0,0,0-.5,2.714A7.53,7.53,0,0,0,612.569,358.864Zm2.733-4.145a3.618,3.618,0,0,1,2.057-2.028,4.332,4.332,0,0,1,1.592-.283,4.25,4.25,0,0,1,1.606.3,3.932,3.932,0,0,1,1.262.805,3.508,3.508,0,0,1,.811,1.208,3.958,3.958,0,0,1,.285,1.506,4.072,4.072,0,0,1-.285,1.521,3.78,3.78,0,0,1-.811,1.252,3.676,3.676,0,0,1-1.262.835,4.231,4.231,0,0,1-1.606.3,4.119,4.119,0,0,1-1.592-.3,3.811,3.811,0,0,1-1.246-.82,3.589,3.589,0,0,1-.811-1.237,4.138,4.138,0,0,1-.286-1.551A3.939,3.939,0,0,1,615.3,354.719Z" transform="translate(-513 -339.313)"/>
  <path id="India" class="cls-1" d="M596.518,382h1.426V371.564h-1.426V382Zm3.409,0h1.351v-5.308a1.679,1.679,0,0,1,.811-0.715,2.943,2.943,0,0,1,1.2-.239,1.833,1.833,0,0,1,1.479.529,2.647,2.647,0,0,1,.443,1.708V382h1.352v-4.025q0-3.429-3-3.43a3.876,3.876,0,0,0-1.253.2,3.459,3.459,0,0,0-1.179.723l-0.15-.775h-1.051V382Zm13.559-11.182v4.7a2.59,2.59,0,0,0-1.006-.731,3.271,3.271,0,0,0-1.246-.239,3.043,3.043,0,0,0-1.757.522,3.407,3.407,0,0,0-1.179,1.4,4.4,4.4,0,0,0-.413,1.893,4.131,4.131,0,0,0,.443,1.909,3.546,3.546,0,0,0,1.209,1.371,3.007,3.007,0,0,0,1.7.507,3.09,3.09,0,0,0,1.276-.268,2.42,2.42,0,0,0,.976-0.776l0.15,0.895h1.2V370.818h-1.352Zm-2.012,10.138a1.958,1.958,0,0,1-1.607-.745,2.854,2.854,0,0,1-.6-1.849,2.913,2.913,0,0,1,.593-1.886,2.036,2.036,0,0,1,2.643-.432,2.256,2.256,0,0,1,.818.9,2.992,2.992,0,0,1,.315,1.416,3.039,3.039,0,0,1-.315,1.461,2.077,2.077,0,0,1-.811.858,2.1,2.1,0,0,1-1.036.275h0Zm5.181-7.9h1.351v-1.491h-1.351v1.491Zm0,8.945h1.351V374.7h-1.351V382Zm4.895,0.149a2.88,2.88,0,0,0,2.252-1.073,2.45,2.45,0,0,0,.353.611,1.183,1.183,0,0,0,.548.343,3.29,3.29,0,0,0,.991.119H625.8l0.211-1.073h-0.136a0.805,0.805,0,0,1-.555-0.164,0.8,0.8,0,0,1-.233-0.47,5.761,5.761,0,0,1-.052-0.9v-1.491a6.618,6.618,0,0,0-.263-2.087,1.924,1.924,0,0,0-.826-1.089,3,3,0,0,0-1.509-.328,4.567,4.567,0,0,0-1.382.209,3.608,3.608,0,0,0-1.111.552l0.2,1.088a3.734,3.734,0,0,1,1.006-.514,3.17,3.17,0,0,1,.931-0.142,1.373,1.373,0,0,1,1.607,1.685,7.759,7.759,0,0,0-3.078.626,2.039,2.039,0,0,0-1.322,1.983,2.016,2.016,0,0,0,.623,1.521,2.283,2.283,0,0,0,1.645.6h0Zm0.255-1.073a1.2,1.2,0,0,1-.833-0.276,1.073,1.073,0,0,1-.308-0.843,1.242,1.242,0,0,1,.7-1.185,5.839,5.839,0,0,1,2.32-.425v1.745a2.463,2.463,0,0,1-.833.715,2.194,2.194,0,0,1-1.044.269h0Z" transform="translate(-513 -339.313)"/>
</svg>
