<svg xmlns="http://www.w3.org/2000/svg" viewBox="0 0 495.69 212.13"><defs><style>.cls-1{fill:#fff;}.cls-2{fill:#fee000;}.cls-3{fill:#00adb3;}</style></defs><title>Popu</title><g id="Layer_2" data-name="Layer 2"><g id="Layer_1-2" data-name="Layer 1"><path class="cls-1" d="M57.3,71.84A35.81,35.81,0,0,1,68.14,78.9a49.27,49.27,0,0,1,8.49,10.54,52.37,52.37,0,0,1,5.52,12.79A50.47,50.47,0,0,1,84.1,116a38.85,38.85,0,0,1-4.81,19.64q-5,9.21-16.27,14.12A93.83,93.83,0,0,1,45.32,155a151,151,0,0,1-18.93,2.35v37.45a7.83,7.83,0,0,1-.31,2.25,7.06,7.06,0,0,0-.31,2,37.79,37.79,0,0,1-.92,3.68,33.18,33.18,0,0,1-1.33,3.48q-.82,1.23-1.64,2.25a25.91,25.91,0,0,1-1.84,2,14,14,0,0,1-10.23,1,8.48,8.48,0,0,1-5.32-2,11.65,11.65,0,0,1-2.66-3.89A32.2,32.2,0,0,1,.41,201C.27,200.27.17,199.63.1,199a17.11,17.11,0,0,1-.1-1.94V83.1c0-.82,0-1.67.1-2.56s.17-1.81.31-2.76a16.09,16.09,0,0,1,1.23-4.91,11.11,11.11,0,0,1,7.57-7A38.43,38.43,0,0,1,22.1,64.27a90.24,90.24,0,0,1,10.13,1q5.22.82,10,1.94T51,69.59Q54.84,70.82,57.3,71.84ZM57.7,116a15.51,15.51,0,0,0-1.33-9.72,18,18,0,0,0-6-6.55,32.22,32.22,0,0,0-8.9-4,66.17,66.17,0,0,0-9.92-2,6.78,6.78,0,0,0-1.94-.2h-3q0,6.55.1,12.58t-.1,13v13.71a88.19,88.19,0,0,0,9.92-1,43.22,43.22,0,0,0,9.72-2.66,24,24,0,0,0,7.67-4.91A13.16,13.16,0,0,0,57.7,116Z"/><path class="cls-1" d="M116.84,71.43A57.46,57.46,0,0,1,131,66.72a48.18,48.18,0,0,1,14.63-.61A47.44,47.44,0,0,1,159.71,70a44,44,0,0,1,12.58,8.59A46.31,46.31,0,0,1,180.48,90a61.25,61.25,0,0,1,5.12,13,44.29,44.29,0,0,1,1,22.71,68.67,68.67,0,0,1-8.39,21.28,36.06,36.06,0,0,1-7.06,8.08,40.79,40.79,0,0,1-8.9,5.83,49.43,49.43,0,0,1-13.3,4,56.58,56.58,0,0,1-13.91.51,46.13,46.13,0,0,1-21.59-6.14A44.92,44.92,0,0,1,98.53,145.1a49.27,49.27,0,0,1-7.37-19.54,53.36,53.36,0,0,1,1.33-22.41q3.27-12.28,9.51-20A42.55,42.55,0,0,1,116.84,71.43ZM123,98.85a18.75,18.75,0,0,0-4.71,7.16,33,33,0,0,0-2,8.9,28,28,0,0,0,.72,9.21,25.83,25.83,0,0,0,3.58,8.29q2,3.07,7.37,5.12A38.13,38.13,0,0,0,138.94,140a16,16,0,0,0,11.46-3.58,25.68,25.68,0,0,0,7.47-9.92,30,30,0,0,0,2.35-12.89,25.5,25.5,0,0,0-3.68-12.69,14.78,14.78,0,0,0-6.85-6,23.89,23.89,0,0,0-9.21-2A28.54,28.54,0,0,0,131,94.25,21,21,0,0,0,123,98.85Z"/><path class="cls-1" d="M251.07,71.84a35.81,35.81,0,0,1,10.85,7.06,49.27,49.27,0,0,1,8.49,10.54,52.37,52.37,0,0,1,5.52,12.79A50.47,50.47,0,0,1,277.88,116a38.85,38.85,0,0,1-4.81,19.64q-5,9.21-16.27,14.12A93.83,93.83,0,0,1,239.1,155a151,151,0,0,1-18.93,2.35v37.45a7.83,7.83,0,0,1-.31,2.25,7.06,7.06,0,0,0-.31,2,37.79,37.79,0,0,1-.92,3.68,33.18,33.18,0,0,1-1.33,3.48q-.82,1.23-1.64,2.25a25.91,25.91,0,0,1-1.84,2,14,14,0,0,1-10.23,1,8.48,8.48,0,0,1-5.32-2,11.65,11.65,0,0,1-2.66-3.89,32.2,32.2,0,0,1-1.43-4.71c-.14-.68-.24-1.33-.31-1.94a17.11,17.11,0,0,1-.1-1.94V83.1c0-.82,0-1.67.1-2.56s.17-1.81.31-2.76a16.09,16.09,0,0,1,1.23-4.91,11.11,11.11,0,0,1,7.57-7,38.43,38.43,0,0,1,12.89-1.64,90.24,90.24,0,0,1,10.13,1q5.22.82,10,1.94t8.7,2.35Q248.61,70.82,251.07,71.84Zm.41,44.2a15.51,15.51,0,0,0-1.33-9.72,18,18,0,0,0-6-6.55,32.22,32.22,0,0,0-8.9-4,66.17,66.17,0,0,0-9.92-2,6.78,6.78,0,0,0-1.94-.2h-3q0,6.55.1,12.58t-.1,13v13.71a88.19,88.19,0,0,0,9.92-1,43.22,43.22,0,0,0,9.72-2.66,24,24,0,0,0,7.67-4.91A13.16,13.16,0,0,0,251.48,116Z"/><path class="cls-1" d="M341.51,71.84a35.81,35.81,0,0,1,10.85,7.06,49.27,49.27,0,0,1,8.49,10.54,52.37,52.37,0,0,1,5.52,12.79A50.47,50.47,0,0,1,368.32,116a38.85,38.85,0,0,1-4.81,19.64q-5,9.21-16.27,14.12a93.83,93.83,0,0,1-17.7,5.22,151,151,0,0,1-18.93,2.35v37.45a7.83,7.83,0,0,1-.31,2.25,7.06,7.06,0,0,0-.31,2,37.79,37.79,0,0,1-.92,3.68,33.18,33.18,0,0,1-1.33,3.48q-.82,1.23-1.64,2.25a25.91,25.91,0,0,1-1.84,2,14,14,0,0,1-10.23,1,8.48,8.48,0,0,1-5.32-2,11.65,11.65,0,0,1-2.66-3.89,32.2,32.2,0,0,1-1.43-4.71c-.14-.68-.24-1.33-.31-1.94a17.11,17.11,0,0,1-.1-1.94V83.1c0-.82,0-1.67.1-2.56s.17-1.81.31-2.76a16.09,16.09,0,0,1,1.23-4.91,11.11,11.11,0,0,1,7.57-7,38.43,38.43,0,0,1,12.89-1.64,90.24,90.24,0,0,1,10.13,1q5.22.82,10,1.94t8.7,2.35Q339.05,70.82,341.51,71.84Zm.41,44.2a15.51,15.51,0,0,0-1.33-9.72,18,18,0,0,0-6-6.55,32.22,32.22,0,0,0-8.9-4,66.17,66.17,0,0,0-9.92-2,6.78,6.78,0,0,0-1.94-.2h-3q0,6.55.1,12.58t-.1,13v13.71a88.19,88.19,0,0,0,9.92-1,43.22,43.22,0,0,0,9.72-2.66,24,24,0,0,0,7.67-4.91A13.16,13.16,0,0,0,341.92,116Z"/><path class="cls-1" d="M401.87,147.55c-.14.68-.24,1.33-.31,1.94a17.12,17.12,0,0,0-.1,1.94l-1.23,4.3a4.82,4.82,0,0,1-.61,1L399,158a8,8,0,0,1-3.68,3.68,15.27,15.27,0,0,1-10.44,1.23,10.62,10.62,0,0,1-5.52-2,7.71,7.71,0,0,1-2.86-3.48,23,23,0,0,1-1.23-4.09,12.93,12.93,0,0,1-.61-3.68V35c0-1,0-1.81.1-2.56a19.71,19.71,0,0,1,.31-2.15,16.88,16.88,0,0,1,.51-2.45c.21-.68.44-1.43.72-2.25a6.2,6.2,0,0,1,2.25-3.27,9.39,9.39,0,0,1,4.71-2,14.19,14.19,0,0,1,2.66-.51c.82-.07,1.77-.1,2.86-.1a16.45,16.45,0,0,1,6.55,1.64,9.36,9.36,0,0,1,4.09,4.5,17.13,17.13,0,0,1,2,7.57q.2,2,.31,6.14t.1,6.14v.82q.41,6.55.41,12.58t-.2,13.2q0,7-.1,13.4t-.1,12.79v43a10.54,10.54,0,0,0,.1,1.54,11,11,0,0,1,.1,1.53A17.07,17.07,0,0,1,401.87,147.55Z"/><path class="cls-1" d="M479.22,135.89a30.72,30.72,0,0,1,5-.82,10.72,10.72,0,0,1,4.71.61,7.88,7.88,0,0,1,3.58,2.76,9,9,0,0,1,1.43,5.42,9.69,9.69,0,0,1-1.23,4.71,17.82,17.82,0,0,1-3.07,4.09,20.51,20.51,0,0,1-4.09,3.17,31.2,31.2,0,0,1-4.3,2.15,60.23,60.23,0,0,1-13.61,4.09,67.48,67.48,0,0,1-15.86,1,63.77,63.77,0,0,1-21.18-4.4,32,32,0,0,1-15.86-13.2,47.45,47.45,0,0,1-6.34-20.05,70.09,70.09,0,0,1,1-20.87q2.25-11.87,7.67-19.34a43.32,43.32,0,0,1,13-12,42.12,42.12,0,0,1,20.67-5.52,50.48,50.48,0,0,1,21.9,4.5,43.82,43.82,0,0,1,12.48,8.29,34,34,0,0,1,8.39,12.58,21.11,21.11,0,0,1,1.33,4.5,47.66,47.66,0,0,1,.72,5.63,42.39,42.39,0,0,1,0,5.83,19,19,0,0,1-1,5.12,16.08,16.08,0,0,1-3.07,5.73,11.3,11.3,0,0,1-4.71,3.07,26.49,26.49,0,0,1-6.85,1.33q-4,.31-9.51.51-4.91.21-9.21.2t-8.8-.1l-9.31-.2q-4.81-.1-10.74-.31a10.49,10.49,0,0,0,1.13,7.06,14.34,14.34,0,0,0,4.81,4.91,24.47,24.47,0,0,0,7,3,37.68,37.68,0,0,0,7.57,1.23,45,45,0,0,0,13.3-1.13Q472.47,137.93,479.22,135.89Zm-8.8-39.7a25.52,25.52,0,0,0-8.19-6.55,15.82,15.82,0,0,0-6.85-1.33,25.39,25.39,0,0,0-6.85,1.12,18.87,18.87,0,0,0-10,6.14,15.41,15.41,0,0,0-1.43,1.94q-1,1.53-1.94,3.17a14.46,14.46,0,0,0-1.33,3.07q-.41,1.43.41,1.43h40.11a12.91,12.91,0,0,0-3.89-9Z"/><path class="cls-2" d="M304,2.82a2.93,2.93,0,0,1,.78,1.9c0,.28,0,.58,0,.88a7.09,7.09,0,0,1-.11.81,3.36,3.36,0,0,1-.92,1.48,4,4,0,0,1-1.55.64,7.09,7.09,0,0,1-1,.21,10.6,10.6,0,0,0-1.06.21,7,7,0,0,1-1,.07h-4.65q-1.27.07-2.5.07h-2.43q.07,2.19.07,4.69t0,5.82q0,3.31-.07,7.69t0,10.15v5.36a5.74,5.74,0,0,0,.07,1.06v.53a3.16,3.16,0,0,1-.07.6,11.07,11.07,0,0,0-.21,1.48,3.11,3.11,0,0,1-.07.67,4.43,4.43,0,0,1-.21.67c-.19.19-.28.33-.28.42l-.21.42A3.64,3.64,0,0,1,287.12,50a5.05,5.05,0,0,1-3.45.35,3.65,3.65,0,0,1-1.83-.63,4.3,4.3,0,0,1-.92-1.27,3.91,3.91,0,0,1-.49-1.48,4.21,4.21,0,0,1-.21-1.34V9.38h-1.76q-1.34,0-2.85,0t-2.85-.11q-1.34-.07-1.83-.14l-1.3-.21q-.88-.14-1.45-.28a4.91,4.91,0,0,1-2.33-1.34,3.08,3.08,0,0,1-.78-2V4.37a2,2,0,0,1,.14-.78,2.32,2.32,0,0,1,1.13-1.41,7,7,0,0,1,.88-.53,5.15,5.15,0,0,1,1.16-.46,10.52,10.52,0,0,1,2.12-.42,9.15,9.15,0,0,1,1.13-.07h5.89q2.22,0,4.69-.07,4.09-.07,8.14,0t8.07.18q.92.07,1.76.21a7.73,7.73,0,0,1,1.69.49,7,7,0,0,1,1.2.53A2.82,2.82,0,0,1,304,2.82Z"/><path class="cls-2" d="M334.35,36.66q.07,1.41.07,2.92t-.07,2.79q-.07,1.9-.21,3.49a10,10,0,0,1-.56,2.68,3.13,3.13,0,0,1-1.3,1.62,3.73,3.73,0,0,1-2.43.32,2.88,2.88,0,0,1-2.33-1.55,9.36,9.36,0,0,1-1-3.07,19.14,19.14,0,0,1-.18-3.49,27.24,27.24,0,0,0,0-2.75q-.07-1.55-.11-3.56a19.82,19.82,0,0,0-.42-3.81,8.11,8.11,0,0,0-1.3-3.07,3.34,3.34,0,0,0-2.75-1.34,8.57,8.57,0,0,0-3.56.35,3.51,3.51,0,0,0-1.8,1.45,5.23,5.23,0,0,0-.67,2.29q-.11,1.34-.32,2.89l-.07,2.75v5.15q0,1.27,0,2.64a7.66,7.66,0,0,1-.46,2.5,4.68,4.68,0,0,1-1.3,1.9,3.78,3.78,0,0,1-2.57.78,3.66,3.66,0,0,1-3.14-1.37,5.57,5.57,0,0,1-1-3.42V5.22q0-.42,0-.81c0-.26.06-.53.11-.81a6.15,6.15,0,0,0,.21-.81,3.78,3.78,0,0,1,.21-.74A1.93,1.93,0,0,1,308.13,1a3.69,3.69,0,0,1,.71-.56,2.19,2.19,0,0,1,.78-.28,6.9,6.9,0,0,1,.78-.11q.42,0,.85,0a3.73,3.73,0,0,1,2,.63,6.83,6.83,0,0,1,.78.6,2.19,2.19,0,0,1,.56.88,6.55,6.55,0,0,1,.56,2.54,7.69,7.69,0,0,1,.11,1q0,.67,0,1.37c0,.47,0,.93,0,1.37s0,.79,0,1V9.8q.07,2.26.07,4.58V20.3a18.86,18.86,0,0,1,6.2-1,13.1,13.1,0,0,1,5.78,1.3,12.25,12.25,0,0,1,4,3,11.11,11.11,0,0,1,2,3.74,17.38,17.38,0,0,1,.74,4.37Q334.28,34.12,334.35,36.66Z"/><path class="cls-2" d="M360.93,40.89a10.67,10.67,0,0,1,1.73-.28,3.71,3.71,0,0,1,1.62.21,2.72,2.72,0,0,1,1.23,1,3.11,3.11,0,0,1,.49,1.87,3.34,3.34,0,0,1-.42,1.62,6.15,6.15,0,0,1-1.06,1.41,7.09,7.09,0,0,1-1.41,1.09,10.82,10.82,0,0,1-1.48.74,20.71,20.71,0,0,1-4.69,1.41,23.26,23.26,0,0,1-5.46.35,22,22,0,0,1-7.3-1.52,11,11,0,0,1-5.46-4.55,16.34,16.34,0,0,1-2.19-6.91,24.1,24.1,0,0,1,.35-7.19,16.42,16.42,0,0,1,2.64-6.66A14.92,14.92,0,0,1,344,19.32a14.51,14.51,0,0,1,7.12-1.9A17.41,17.41,0,0,1,358.68,19a15.12,15.12,0,0,1,4.3,2.85,11.76,11.76,0,0,1,2.89,4.34,7.31,7.31,0,0,1,.46,1.55,16.26,16.26,0,0,1,.25,1.94,14.45,14.45,0,0,1,0,2,6.5,6.5,0,0,1-.35,1.76,5.55,5.55,0,0,1-1.06,2,3.89,3.89,0,0,1-1.62,1.06,9.16,9.16,0,0,1-2.36.46q-1.38.1-3.28.18-1.69.07-3.17.07t-3,0L348.49,37l-3.7-.11a3.61,3.61,0,0,0,.39,2.43,4.94,4.94,0,0,0,1.66,1.69,8.46,8.46,0,0,0,2.4,1,13,13,0,0,0,2.61.42,15.52,15.52,0,0,0,4.58-.39Q358.61,41.59,360.93,40.89Zm-3-13.68A8.78,8.78,0,0,0,355.08,25a5.45,5.45,0,0,0-2.36-.46,8.78,8.78,0,0,0-2.36.39A6.51,6.51,0,0,0,346.9,27a5.26,5.26,0,0,0-.49.67c-.24.35-.46.72-.67,1.09a4.94,4.94,0,0,0-.46,1.06q-.14.49.14.49h13.82a4.46,4.46,0,0,0-1.34-3.1Z"/><path class="cls-3" d="M49.83,73.46s23.54,6.33,26,26.65C72.28,92.54,68.35,82.3,49.83,73.46Z"/><path class="cls-3" d="M152.23,73.46s23.54,6.33,26,26.65C174.68,92.54,170.75,82.3,152.23,73.46Z"/><path class="cls-3" d="M243.5,75s23.54,6.33,26,26.65C265.94,94.06,262,83.82,243.5,75Z"/><path class="cls-3" d="M335.16,76.38s23.54,6.33,26,26.65C357.61,95.46,353.68,85.22,335.16,76.38Z"/><path class="cls-3" d="M323.57,20.73s8.49,2.28,9.36,9.61C331.66,27.61,330.24,23.92,323.57,20.73Z"/><path class="cls-3" d="M355.7,19s8.5,2.29,9.37,9.62C363.8,25.92,362.39,22.22,355.7,19Z"/><path class="cls-3" d="M465.43,75s23.54,6.33,26,26.65C487.88,94.06,484,83.82,465.43,75Z"/><path class="cls-3" d="M398.78,36.67v77.92L396,36.67S397.41,33.76,398.78,36.67Z"/><path class="cls-3" d="M288.37,9.71V37.6l-1-27.89S287.88,8.67,288.37,9.71Z"/></g></g></svg>