<?xml version="1.0" encoding="UTF-8"?>
<!DOCTYPE svg PUBLIC "-//W3C//DTD SVG 1.1//EN" "http://www.w3.org/Graphics/SVG/1.1/DTD/svg11.dtd">
<!-- Creator: CorelDRAW X7 -->
<svg xmlns="http://www.w3.org/2000/svg" xml:space="preserve" width="85.2846mm" height="22.849mm" version="1.1" style="shape-rendering:geometricPrecision; text-rendering:geometricPrecision; image-rendering:optimizeQuality; fill-rule:evenodd; clip-rule:evenodd"
viewBox="0 0 8528 2285"
 xmlns:xlink="http://www.w3.org/1999/xlink">
 <defs>
  <style type="text/css">
   <![CDATA[
    .fil0 {fill:#221E1F;fill-rule:nonzero}
   ]]>
  </style>
 </defs>
 <g id="Layer_x0020_1">
  <metadata id="CorelCorpID_0Corel-Layer"/>
  <g id="_2223202241376">
   <g>
    <path class="fil0" d="M8306 2186l-8084 0c-122,0 -222,-100 -222,-222l0 98c0,123 100,223 222,223l8084 0c122,0 222,-100 222,-223l0 -98c0,122 -100,222 -222,222z"/>
   </g>
   <g>
    <path class="fil0" d="M8306 99l-8084 0c-122,0 -222,100 -222,222l0 -99c0,-122 100,-222 222,-222l8084 0c122,0 222,100 222,222l0 99c0,-122 -100,-222 -222,-222z"/>
   </g>
   <g>
    <path class="fil0" d="M1175 1905l0 -1525 417 0c80,0 153,10 220,31 66,21 124,53 172,94 49,41 86,92 113,152 26,59 40,128 40,205 0,60 -9,120 -28,179 -18,60 -47,113 -88,160 -41,47 -94,86 -160,115 -66,29 -146,44 -240,44l-214 0 0 545 -232 0zm232 -761l0 0 208 0c56,0 103,-10 141,-30 38,-20 68,-43 89,-71 22,-29 38,-59 47,-91 9,-32 13,-61 13,-86 0,-27 -4,-56 -13,-87 -9,-32 -25,-61 -48,-89 -22,-27 -52,-50 -89,-68 -37,-18 -83,-28 -138,-28l-210 0 0 550z"/>
    <path class="fil0" d="M2177 1144c0,-106 20,-206 61,-300 40,-95 96,-178 167,-250 71,-71 153,-128 247,-169 94,-41 195,-62 303,-62 107,0 207,21 302,62 95,41 177,98 248,169 71,72 127,155 169,250 41,94 62,194 62,300 0,108 -21,209 -62,302 -42,94 -98,177 -169,248 -71,70 -153,126 -248,167 -95,41 -195,61 -302,61 -108,0 -209,-20 -303,-61 -94,-41 -176,-97 -247,-167 -71,-71 -127,-154 -167,-248 -41,-93 -61,-194 -61,-302zm229 2l0 0c0,77 14,149 43,217 29,68 69,128 119,178 51,51 109,91 177,120 67,29 139,44 214,44 76,0 147,-15 214,-44 66,-29 125,-69 174,-120 50,-50 90,-110 118,-178 29,-68 43,-141 43,-219 0,-78 -14,-150 -43,-218 -28,-68 -68,-127 -119,-178 -50,-50 -109,-90 -175,-120 -67,-29 -138,-44 -214,-44 -75,0 -147,15 -214,44 -68,30 -126,70 -176,120 -50,51 -89,110 -118,179 -29,69 -43,142 -43,219z"/>
    <path class="fil0" d="M3898 1905l0 -1525 416 0c80,0 153,10 220,31 67,21 124,53 172,94 49,41 86,92 113,152 27,59 40,128 40,205 0,60 -9,120 -27,179 -19,60 -48,113 -89,160 -40,47 -94,86 -160,115 -66,29 -146,44 -239,44l-215 0 0 545 -231 0zm231 -761l0 0 208 0c56,0 103,-10 141,-30 38,-20 68,-43 90,-71 21,-29 37,-59 46,-91 9,-32 14,-61 14,-86 0,-27 -5,-56 -14,-87 -9,-32 -25,-61 -47,-89 -23,-27 -53,-50 -90,-68 -37,-18 -83,-28 -138,-28l-210 0 0 550z"/>
    <path class="fil0" d="M5006 1905l0 -1525 417 0c80,0 153,10 220,31 66,21 124,53 172,94 48,41 86,92 113,152 26,59 40,128 40,205 0,60 -10,120 -28,179 -18,60 -47,113 -88,160 -41,47 -94,86 -160,115 -66,29 -146,44 -240,44l-214 0 0 545 -232 0zm232 -761l0 0 208 0c56,0 103,-10 141,-30 38,-20 67,-43 89,-71 22,-29 37,-59 46,-91 10,-32 14,-61 14,-86 0,-27 -4,-56 -14,-87 -9,-32 -24,-61 -47,-89 -22,-27 -52,-50 -89,-68 -37,-18 -83,-28 -138,-28l-210 0 0 550z"/>
    <polygon class="fil0" points="6115,1905 6115,380 6346,380 6346,1686 7104,1686 7104,1905 "/>
    <polygon class="fil0" points="7211,1905 7211,380 8212,380 8212,588 7442,588 7442,1034 8128,1034 8128,1247 7442,1247 7442,1693 8242,1693 8242,1905 "/>
    <g>
     <polygon class="fil0" points="367,1489 456,1489 456,1645 988,1645 988,1739 456,1739 456,1892 367,1892 "/>
     <path class="fil0" d="M988 1421l-621 0 0 -93 264 0 0 -311 -264 0 0 -95c8,0 21,0 42,0 20,0 44,0 72,0 28,0 59,0 93,0 34,0 69,0 104,1 35,0 69,0 103,0 34,0 65,0 93,0 28,0 52,0 73,0 20,0 34,0 41,0l0 94 -268 0 0 311 268 0 0 93z"/>
     <polygon class="fil0" points="988,813 367,813 367,405 452,405 452,718 634,718 634,439 720,439 720,718 902,718 902,393 988,393 "/>
    </g>
   </g>
  </g>
 </g>
</svg>
