<?xml version="1.0" encoding="UTF-8"?>
<!DOCTYPE svg PUBLIC "-//W3C//DTD SVG 1.1//EN" "http://www.w3.org/Graphics/SVG/1.1/DTD/svg11.dtd">
<!-- Creator: CorelDRAW X7 -->
<svg xmlns="http://www.w3.org/2000/svg" xml:space="preserve" width="73.7631mm" height="17.3004mm" version="1.1" style="shape-rendering:geometricPrecision; text-rendering:geometricPrecision; image-rendering:optimizeQuality; fill-rule:evenodd; clip-rule:evenodd"
viewBox="0 0 7374 1729"
 xmlns:xlink="http://www.w3.org/1999/xlink">
 <defs>
  <style type="text/css">
   <![CDATA[
    .fil2 {fill:#1F1F1E;fill-rule:nonzero}
    .fil3 {fill:#221E1F;fill-rule:nonzero}
    .fil1 {fill:#2F2F2E;fill-rule:nonzero}
    .fil4 {fill:#FFBC39;fill-rule:nonzero}
    .fil0 {fill:white;fill-rule:nonzero}
   ]]>
  </style>
 </defs>
 <g id="Layer_x0020_1">
  <metadata id="CorelCorpID_0Corel-Layer"/>
  <g id="_2286309567232">
   <path class="fil0" d="M2581 437l-8 247c-62,3 -121,7 -176,13 -59,245 -98,470 -119,675l-224 58 122 -705c-24,3 -47,7 -71,12l-71 13 -16 -248 563 -65z"/>
   <path class="fil0" d="M2629 493l245 -43c-44,169 -80,323 -107,462l110 -23 67 -396 246 -43c-94,362 -153,669 -178,922l-228 58 61 -360c-25,5 -63,13 -113,23 -17,109 -29,202 -36,279l-228 58 161 -937z"/>
   <path class="fil0" d="M3440 690c-7,25 -13,51 -18,76l-15 73 212 -45 -12 183c-100,17 -179,33 -237,46 -3,18 -6,36 -9,53l-10 52 247 -36 -17 247c-128,10 -289,41 -484,91l158 -951 441 -65 -17 247c-87,8 -166,17 -239,29z"/>
   <path class="fil0" d="M4115 491c137,-41 250,-62 337,-62 119,0 178,41 177,125 -3,167 -144,340 -422,518 -20,108 -34,208 -43,300l-211 58c3,-19 14,-78 32,-177l59 -315c52,-289 76,-438 71,-447zm167 212l0 0c-6,25 -12,50 -17,75l-15 73c83,-41 136,-84 160,-129 3,-7 5,-13 5,-17 0,-15 -11,-23 -33,-23 -21,0 -55,7 -100,21z"/>
   <path class="fil0" d="M5024 392c93,0 160,52 199,156 20,54 30,113 30,178 0,62 -9,129 -28,202 -32,123 -89,237 -169,342 -99,127 -203,191 -312,191 -95,0 -162,-52 -202,-157 -19,-51 -29,-108 -29,-172 0,-63 10,-131 29,-204 33,-125 89,-240 169,-344 98,-128 202,-192 313,-192zm-48 329l0 0c-49,0 -98,39 -149,119 -40,63 -69,124 -85,184 -7,32 -11,61 -11,87 0,36 8,66 26,89 20,25 49,38 85,38 49,0 94,-26 134,-78 32,-42 55,-91 69,-148 17,-66 20,-131 11,-196 -11,-63 -38,-95 -80,-95z"/>
   <path class="fil0" d="M5363 491c137,-41 250,-62 337,-62 119,0 178,41 177,125 -3,167 -144,340 -422,518 -20,108 -34,208 -43,300l-211 58c3,-19 14,-78 32,-177l59 -315c52,-289 76,-438 71,-447zm167 212l0 0c-6,25 -12,50 -17,75l-15 73c83,-41 136,-84 160,-129 3,-7 5,-13 5,-17 0,-15 -11,-23 -33,-23 -21,0 -55,7 -100,21z"/>
   <path class="fil0" d="M5903 491c137,-41 249,-62 337,-62 119,0 178,41 176,125 -2,167 -143,340 -422,518 -19,108 -33,208 -42,300l-211 58c3,-19 13,-78 32,-177l58 -315c52,-289 76,-438 72,-447zm167 212l0 0c-6,25 -12,50 -17,75l-15 73c82,-41 136,-84 159,-129 4,-7 6,-13 6,-17 0,-15 -11,-23 -33,-23 -22,0 -55,7 -100,21z"/>
   <path class="fil0" d="M6452 493l228 -43c-64,245 -113,471 -147,678l233 -36 -20 247c-120,10 -272,41 -457,91l163 -937z"/>
   <path class="fil0" d="M7118 690c-7,25 -14,51 -19,76l-14 73 212 -45 -12 183c-101,17 -180,33 -237,46 -4,18 -7,36 -9,53l-10 52 247 -36 -18 247c-127,10 -288,41 -484,91l158 -951 442 -65 -17 247c-87,8 -167,17 -239,29z"/>
  </g>
  <g id="_2286309574368">
   <path class="fil1" d="M1136 1179l-159 28c-11,-138 -29,-284 -29,-398 0,-47 212,-69 225,-49 2,3 -21,221 -37,419z"/>
   <path class="fil1" d="M1246 1611c-7,-4 -14,-8 -22,-13 0,0 -1,-1 -2,-1 -2,-1 -3,-2 -5,-3 -2,-1 -3,-2 -4,-3 -2,-1 -3,-2 -4,-3 -3,-1 -6,-3 -8,-5 -1,0 -1,0 -2,-1 -2,-2 -5,-3 -7,-5 -1,-1 -2,-1 -3,-2 -2,-1 -4,-3 -5,-4 -1,-1 -2,-2 -3,-3 -2,-1 -4,-3 -6,-4 0,-1 -1,-2 -2,-2 -2,-2 -4,-4 -6,-6 0,0 -1,-1 -2,-1 -5,-5 -9,-10 -14,-16 0,0 -1,-1 -1,-2 -2,-2 -3,-4 -5,-6 0,-1 -1,-2 -2,-2 -1,-2 -2,-5 -3,-7 -1,-1 -2,-1 -2,-2 -5,-10 -9,-20 -12,-30 -6,-26 -4,-103 2,-199l-143 25c1,28 2,55 2,81 0,35 -2,68 -5,98 0,0 0,0 0,0 0,0 0,0 0,0 0,0 0,0 0,0 -3,31 -8,59 -14,81 -20,73 63,132 93,142 56,20 204,13 218,-18 7,-17 12,-63 -33,-89z"/>
   <path class="fil2" d="M1246 1611c-2,-1 -5,-3 -8,-4 24,26 25,51 14,65 -21,28 -116,25 -166,9 -35,-11 -73,-49 -79,-72 -3,-7 -3,-17 -4,-27 0,-7 0,-14 1,-21 0,-1 0,-1 0,-1 0,-4 0,-7 1,-11 0,-1 0,-2 0,-2 4,-55 16,-134 16,-229 0,-175 -13,-270 -8,-332 4,-41 95,-87 149,-95 7,-77 12,-130 11,-131 -13,-20 -225,2 -225,49 0,201 55,499 34,686 0,0 0,0 0,0 0,0 0,0 0,0 0,0 0,0 0,0 0,0 0,0 0,0 -3,31 -8,59 -14,81 -20,73 63,132 93,142 56,20 204,13 218,-18 7,-17 12,-63 -33,-89z"/>
   <g>
    <path class="fil3" d="M1136 1179c-3,39 -7,106 -10,141l-141 -4c-2,-35 -4,-72 -7,-109l158 -28z"/>
   </g>
  </g>
  <g id="_2286309573792">
   <path class="fil1" d="M419 1179l159 28c11,-138 29,-284 29,-398 0,-47 -212,-69 -225,-49 -2,3 21,221 37,419z"/>
   <path class="fil1" d="M309 1611c7,-4 14,-8 22,-13 0,0 1,-1 2,-1 2,-1 3,-2 5,-3 2,-1 3,-2 4,-3 2,-1 3,-2 4,-3 3,-1 6,-3 8,-5 1,0 1,0 2,-1 2,-2 5,-3 7,-5 1,-1 2,-1 3,-2 2,-1 3,-3 5,-4 1,-1 2,-2 3,-3 2,-1 4,-3 6,-4 0,-1 1,-2 2,-2 2,-2 4,-4 6,-6 0,0 1,-1 2,-1 5,-5 9,-10 14,-16 0,0 1,-1 1,-2 2,-2 3,-4 5,-6 0,-1 1,-2 2,-2 1,-2 2,-5 3,-7 1,-1 1,-1 2,-2 5,-10 9,-20 12,-30 6,-26 4,-103 -2,-199l143 25c-1,28 -2,55 -2,81 0,35 2,68 5,98 0,0 0,0 0,0 0,0 0,0 0,0 0,0 0,0 0,0 3,31 8,59 14,81 20,73 -63,132 -93,142 -56,20 -204,13 -218,-18 -7,-17 -12,-63 33,-89z"/>
   <path class="fil2" d="M309 1611c2,-1 5,-3 8,-4 -24,26 -25,51 -14,65 21,28 116,25 166,9 35,-11 73,-49 79,-72 2,-7 3,-17 4,-27 0,-7 0,-14 -1,-21 0,-1 0,-1 0,-1 0,-4 0,-7 -1,-11 0,-1 0,-2 0,-2 -4,-55 -16,-134 -16,-229 0,-175 13,-270 8,-332 -4,-41 -95,-87 -149,-95 -7,-77 -12,-130 -11,-131 13,-20 225,2 225,49 0,201 -55,499 -34,686 0,0 0,0 0,0 0,0 0,0 0,0 0,0 0,0 0,0 0,0 0,0 0,0 3,31 8,59 14,81 20,73 -63,132 -93,142 -56,20 -204,13 -218,-18 -7,-17 -12,-63 33,-89z"/>
   <g>
    <path class="fil3" d="M418 1179c4,39 8,106 11,141l141 -4c2,-35 4,-72 7,-109l-159 -28z"/>
   </g>
  </g>
  <path class="fil0" d="M328 307l-170 449c-21,53 -22,111 -5,165l27 88c23,74 78,133 150,161l22 9c47,18 98,22 147,11 73,-16 173,-38 178,-38 8,0 276,8 315,8 15,0 79,1 152,2 147,3 265,-119 258,-265l-20 -391c0,-20 -4,-40 -9,-59 -11,-35 -28,-91 -35,-110 -7,-15 -46,-57 -80,-93 -33,-34 -74,-58 -120,-69 -104,-26 -289,-72 -294,-74 -6,-2 -214,30 -318,46 -38,5 -74,20 -106,42 -42,29 -74,70 -92,118z"/>
  <g id="_2286309576384">
   <g>
    <path class="fil4" d="M1553 901l-2 3c-12,-170 -39,-382 -137,-558 -120,-217 -322,-333 -599,-344l-28 -1 0 -1 -12 0 -8 0 0 1 -28 1c-277,11 -479,127 -599,344 -102,182 -127,404 -139,577 -7,116 22,207 87,268 77,73 183,84 239,84 18,0 31,-2 36,-2l412 -17 416 17c5,1 18,2 36,2 7,0 15,0 23,-1 61,4 156,20 216,73 17,19 33,41 46,69 57,-135 41,-515 41,-515zm-279 151l0 0c-55,52 -132,60 -172,60 -13,0 -23,-1 -27,-2l-299 -12 -297 12c-4,1 -14,2 -27,2 -40,0 -117,-8 -172,-61 -47,-44 -68,-109 -63,-193 8,-125 27,-285 100,-417 87,-156 232,-240 432,-248l21 -1 0 0 6 0 8 0 0 0 21 1c199,8 345,92 432,249 73,131 92,291 100,416 5,84 -16,149 -63,194z"/>
   </g>
  </g>
  <path class="fil2" d="M1055 740c1,-3 0,-5 -1,-7 -1,-1 -2,-3 -3,-5 -2,-2 -4,-4 -6,-7 -3,-2 -7,-4 -14,-5 -4,-2 -11,-3 -18,-3 -3,-1 -6,-1 -9,-1 -4,0 -7,0 -11,0l-452 0c-2,0 -5,0 -7,0 -2,0 -5,0 -8,1 -3,0 -6,1 -9,1 -3,1 -5,2 -8,3 -3,1 -5,1 -8,2 -3,1 -5,3 -6,5 -4,3 -7,7 -9,13 -3,8 -4,16 -4,24 -1,8 0,16 1,24 1,23 6,47 14,70 7,24 22,45 43,64 20,17 44,31 73,40 28,9 58,16 88,19 17,2 35,3 54,4 18,1 36,1 54,0 28,-1 56,-5 85,-13 29,-7 55,-17 78,-29 23,-13 42,-28 57,-46 15,-18 23,-38 25,-61l3 -86c-2,-3 -3,-5 -2,-7z"/>
  <path class="fil0" d="M1383 484c0,0 -5,-354 -336,-396 69,33 238,76 336,396z"/>
 </g>
</svg>
