<svg xmlns="http://www.w3.org/2000/svg" viewBox="0 0 90 90">
  <defs>
    <style>
      .cls-1 {
        fill: #303030;
      }

      .cls-2 {
        fill: #41dce0;
      }
    </style>
  </defs>
  <g id="Symbol_6_1" data-name="Symbol 6 – 1" transform="translate(2424 93)">
    <rect id="Rectangle_891" data-name="Rectangle 891" class="cls-1" width="90" height="90" rx="10" transform="translate(-2424 -93)"/>
    <path id="Path_54" data-name="Path 54" class="cls-2" d="M313.978,34.44c0,.181-.254,1.706-.726,4.646-.363,2.178-.8,5.3-1.307,9.4H286.031c-1.343,0-2.5.036-3.448.073-1.27.073-2.432.109-3.448.109-.581,0-.835-.145-.835-.472a1.151,1.151,0,0,1,.254-.653c.871-1.307,2.541-4.319,5.045-9l13.865-25.624a81.918,81.918,0,0,0,4.1-7.985c-1.053-.073-3.012-.145-5.88-.145-4.065,0-7.041.835-9,2.541a17.614,17.614,0,0,0-4.9,7.513c-.254.8-.581,1.161-.907,1.161-.363,0-.508-.181-.508-.581a2.478,2.478,0,0,1,.181-.835c.363-1.67,1.161-5.553,2.432-11.687,2.359.29,7.731.472,16.151.472,3.049,0,6.025-.109,8.965-.29,1.452-.109,2.359-.145,2.758-.145.653,0,1.234.036,1.778.073a29.68,29.68,0,0,1-2.577,5.771c-2,3.557-5.009,8.965-8.965,16.188q-.762,1.415-11.868,21.958c5.009,0,7.84-.036,8.566-.073a25.985,25.985,0,0,0,8.493-1.379c3.012-1.234,5.19-4.827,6.606-10.78.145-.653.4-.98.8-.98C313.8,33.714,313.978,33.968,313.978,34.44Z" transform="translate(-2692.523 -73.9)"/>
    <path id="Path_55" data-name="Path 55" class="cls-2" d="M413.8,76.277c0,.363-.363.544-1.125.581a66.433,66.433,0,0,0-8.239.617A10.544,10.544,0,0,0,400.521,79a1.258,1.258,0,0,1-.726.254c-.181,0-.254-.181-.254-.508V75.951a8.993,8.993,0,0,0-.073-1.053c-2.722,2.9-5.7,4.392-8.892,4.392a8.525,8.525,0,0,1-6.751-2.758c-1.053-1.125-1.561-3.23-1.561-6.279V53.23c0-.944-.145-1.561-.436-1.778a5.046,5.046,0,0,0-2.359-.4c-1.125-.036-1.67-.218-1.67-.508,0-.363.29-.508.907-.508h.726c.653,0,1.633.036,2.976.109s2.214.109,2.722.109c.073,0,.544-.036,1.343-.109s2-.109,3.557-.109h1.234v7.077c0,3.375-.036,5.843-.145,7.4a14.582,14.582,0,0,1-.145,2.033q0,6.914.871,8.6a2.94,2.94,0,0,0,2.758,1.706c1.452,0,2.795-.8,4.065-2.432a2.929,2.929,0,0,0,.69-1.488,36.3,36.3,0,0,0,.109-3.7V57.985a57.357,57.357,0,0,0-.145-5.771c-.073-.835-.617-1.234-1.6-1.234h-1.815c-.617,0-.907-.181-.907-.508,0-.254,1.161-.4,3.521-.4,2.033,0,5.263-.036,9.691-.073V71.232a22.143,22.143,0,0,0,.145,3.629q.109.544.98.762a26.957,26.957,0,0,0,3.521.145C413.514,75.769,413.8,75.915,413.8,76.277Z" transform="translate(-2755.909 -105)"/>
  </g>
</svg>
