<svg xmlns="http://www.w3.org/2000/svg" viewBox="0 0 242 126"><defs><style>.cls-1{fill:none;stroke:#fff;stroke-miterlimit:10;stroke-width:7px;}.cls-2{fill:#fff;}</style></defs><title>thepopple</title><g id="Layer_2" data-name="Layer 2"><g id="Layer_1-2" data-name="Layer 1"><circle class="cls-1" cx="179" cy="63" r="59.5"/><path class="cls-2" d="M5,39.5h99a1,1,0,0,1,1,1v4a1,1,0,0,1-1,1H1a1,1,0,0,1-1-1v0a5,5,0,0,1,5-5Z"/><path class="cls-2" d="M34.5,59.5H104a1,1,0,0,1,1,1v4a1,1,0,0,1-1,1H30.5a1,1,0,0,1-1-1v0a5,5,0,0,1,5-5Z"/><path class="cls-2" d="M70.5,79.5H104a1,1,0,0,1,1,1v4a1,1,0,0,1-1,1H66.5a1,1,0,0,1-1-1v0a5,5,0,0,1,5-5Z"/><g id="Layer_1-3" data-name="Layer_1"><g id="_2286309574368" data-name=" 2286309574368"><path class="cls-2" d="M190.55,73.86l-5.24.93c-.37-4.55-1-9.37-1-13.12,0-1.55,7-2.28,7.42-1.62C191.83,60.15,191.07,67.34,190.55,73.86Z"/><path class="cls-2" d="M194.17,88.1c-.23-.13-.46-.26-.72-.43a.15.15,0,0,0-.07,0l-.16-.1a.39.39,0,0,1-.14-.1.45.45,0,0,1-.13-.1.68.68,0,0,1-.26-.16s0,0-.07,0-.16-.1-.23-.17-.06,0-.1-.06a.76.76,0,0,1-.16-.14l-.1-.1a2.26,2.26,0,0,1-.2-.13.06.06,0,0,0-.06-.06l-.2-.2a.11.11,0,0,0-.07,0c-.16-.17-.29-.33-.46-.53a.11.11,0,0,1,0-.07c-.07-.06-.1-.13-.17-.2a.06.06,0,0,0-.06-.06c0-.07-.07-.17-.1-.23s-.07,0-.07-.07a6.77,6.77,0,0,1-.39-1,35.28,35.28,0,0,1,.06-6.56l-4.71.83c0,.92.07,1.81.07,2.67a32.19,32.19,0,0,1-.17,3.23h0A16.49,16.49,0,0,1,185,87c-.66,2.4,2.08,4.35,3.06,4.68,1.85.66,6.73.43,7.19-.59A2.38,2.38,0,0,0,194.17,88.1Z"/><path class="cls-2" d="M194.17,88.1a1.56,1.56,0,0,0-.26-.13c.79.86.82,1.68.46,2.14-.69.93-3.82.83-5.47.3A4.57,4.57,0,0,1,186.29,88a4.31,4.31,0,0,1-.13-.89,4.11,4.11,0,0,1,0-.7v0a1.46,1.46,0,0,1,0-.36V86c.13-1.81.53-4.41.53-7.55,0-5.76-.43-8.9-.27-10.94.13-1.35,3.13-2.87,4.91-3.13.23-2.54.4-4.29.37-4.32-.43-.66-7.42.07-7.42,1.62,0,6.62,1.81,16.44,1.12,22.61h0A16.49,16.49,0,0,1,185,87c-.66,2.4,2.08,4.35,3.06,4.68,1.85.66,6.73.43,7.19-.59A2.38,2.38,0,0,0,194.17,88.1Z"/><path class="cls-2" d="M190.55,73.86c-.1,1.29-.23,3.5-.33,4.65l-4.65-.13c-.07-1.16-.13-2.38-.23-3.59Z"/></g><g id="_2286309573792" data-name=" 2286309573792"><path class="cls-2" d="M166.91,73.86l5.24.93c.37-4.55,1-9.37,1-13.12,0-1.55-7-2.28-7.42-1.62C165.63,60.15,166.39,67.34,166.91,73.86Z"/><path class="cls-2" d="M163.29,88.1c.23-.13.46-.26.72-.43a.15.15,0,0,1,.07,0l.16-.1a.28.28,0,0,0,.13-.1.39.39,0,0,0,.14-.1.76.76,0,0,0,.26-.16s0,0,.07,0,.16-.1.23-.17.06,0,.1-.06.09-.1.16-.14l.1-.1a2.26,2.26,0,0,0,.2-.13.06.06,0,0,1,.06-.06l.2-.2a.11.11,0,0,1,.07,0c.16-.17.29-.33.46-.53a.11.11,0,0,0,0-.07c.07-.06.1-.13.17-.2a.06.06,0,0,1,.06-.06l.1-.23.07-.07a6.77,6.77,0,0,0,.39-1,36.24,36.24,0,0,0-.06-6.56l4.71.83c0,.92-.07,1.81-.07,2.67a32.19,32.19,0,0,0,.17,3.23h0a16.49,16.49,0,0,0,.46,2.67c.66,2.4-2.08,4.35-3.07,4.68-1.84.66-6.72.43-7.18-.59A2.38,2.38,0,0,1,163.29,88.1Z"/><path class="cls-2" d="M163.29,88.1a1.56,1.56,0,0,1,.26-.13c-.79.86-.82,1.68-.46,2.14.69.93,3.82.83,5.47.3a4.55,4.55,0,0,0,2.6-2.37,6.18,6.18,0,0,0,.14-.89,4.11,4.11,0,0,0,0-.7v0a1.46,1.46,0,0,0,0-.36V86c-.13-1.81-.53-4.41-.53-7.55,0-5.76.43-8.9.27-10.94-.13-1.35-3.13-2.87-4.91-3.13-.23-2.54-.4-4.29-.37-4.32.43-.66,7.42.07,7.42,1.62,0,6.62-1.81,16.44-1.12,22.61h0a16.49,16.49,0,0,0,.46,2.67c.66,2.4-2.08,4.35-3.07,4.68-1.84.66-6.72.43-7.18-.59A2.38,2.38,0,0,1,163.29,88.1Z"/><path class="cls-2" d="M166.88,73.86c.13,1.29.26,3.5.36,4.65l4.65-.13c.07-1.16.13-2.38.23-3.59Z"/></g><path class="cls-2" d="M163.91,45.12l-5.6,14.8a8.13,8.13,0,0,0-.17,5.44l.89,2.9A8.37,8.37,0,0,0,164,73.57l.72.29a8.29,8.29,0,0,0,4.85.36c2.41-.52,5.7-1.25,5.87-1.25s9.09.27,10.38.27l5,.06a8.32,8.32,0,0,0,8.5-8.73l-.65-12.89a8,8,0,0,0-.3-2c-.36-1.15-.92-3-1.16-3.62A23,23,0,0,0,194.57,43a8.12,8.12,0,0,0-4-2.27c-3.43-.86-9.52-2.37-9.69-2.44s-7,1-10.48,1.52A7.89,7.89,0,0,0,167,41.23,8.28,8.28,0,0,0,163.91,45.12Z"/><g id="_2286309576384" data-name=" 2286309576384"><path class="cls-2" d="M204.29,64.7l-.06.1c-.4-5.61-1.29-12.59-4.52-18.4-4-7.15-10.61-11-19.74-11.33L179,35v0h-.66v0l-.92,0c-9.13.36-15.79,4.18-19.74,11.33-3.37,6-4.19,13.32-4.59,19-.23,3.83.73,6.83,2.87,8.84A11.63,11.63,0,0,0,163.88,77c.59,0,1-.07,1.19-.07l13.58-.56,13.71.56a7.86,7.86,0,0,0,1.19.07,4.91,4.91,0,0,0,.75,0c2,.14,5.15.66,7.12,2.41a9.27,9.27,0,0,1,1.52,2.27C204.82,77.22,204.29,64.7,204.29,64.7Zm-9.19,5h0a8.43,8.43,0,0,1-5.67,2,5,5,0,0,1-.89-.06l-9.86-.4-9.79.4a5,5,0,0,1-.89.06,8.27,8.27,0,0,1-5.67-2c-1.55-1.45-2.24-3.59-2.08-6.36.27-4.12.89-9.39,3.3-13.74,2.87-5.15,7.65-7.91,14.24-8.18l.69,0h.46l.7,0c6.56.27,11.37,3,14.24,8.21,2.4,4.32,3,9.59,3.29,13.71C197.34,66.05,196.64,68.19,195.1,69.68Z"/></g><path class="cls-2" d="M187.88,59.39a.26.26,0,0,0,0-.23,1.58,1.58,0,0,1-.1-.16,2.33,2.33,0,0,1-.19-.23,1,1,0,0,0-.46-.17,1.47,1.47,0,0,0-.6-.1,1,1,0,0,0-.29,0H170.7a.9.9,0,0,0-.26,0c-.1,0-.2,0-.3,0l-.26.1c-.1,0-.17,0-.26.07a.33.33,0,0,0-.2.16.93.93,0,0,0-.3.43,2.22,2.22,0,0,0-.13.79,3.57,3.57,0,0,0,0,.8,8.62,8.62,0,0,0,.46,2.3,4.61,4.61,0,0,0,1.42,2.11,6.82,6.82,0,0,0,2.41,1.32,14,14,0,0,0,2.9.63c.56.06,1.15.1,1.78.13a17.61,17.61,0,0,0,1.78,0,12.13,12.13,0,0,0,2.8-.43,11,11,0,0,0,2.57-1A6.48,6.48,0,0,0,187,64.47a3.51,3.51,0,0,0,.82-2l.1-2.84C187.88,59.52,187.84,59.46,187.88,59.39Z"/><path class="cls-2" d="M198.69,51s-.17-11.66-11.08-13.05C189.89,39,195.46,40.41,198.69,51Z"/></g></g></g></svg>