<svg xmlns="http://www.w3.org/2000/svg" fill="currentColor" viewBox="0 0 24 24">
    <path d="M7.92 20.88c8.3 0 12.84-6.88 12.84-12.85v-.58c.87-.64 1.63-1.43 2.24-2.34-.82.38-1.7.62-2.6.72.95-.56 1.65-1.45 2-2.5-.9.53-1.86.9-2.87 1.1-1.4-1.48-3.63-1.85-5.43-.9-1.8.98-2.73 3.03-2.27 5.02-3.63-.18-7-1.9-9.3-4.72-1.2 2.07-.58 4.7 1.4 6.03-.72-.02-1.42-.22-2.05-.57v.06c0 2.15 1.52 4 3.62 4.43-.66.18-1.36.2-2.04.07.6 1.84 2.3 3.1 4.22 3.14-1.6 1.25-3.57 1.94-5.6 1.93-.36 0-.72 0-1.08-.05 2.06 1.32 4.47 2.03 6.92 2.02"/>
</svg>