<svg xmlns="http://www.w3.org/2000/svg" width="17" height="20"><path d="M16.066 2.434a3.07 3.07 0 0 0-2.253-.934H3.187a3.071 3.071 0 0 0-2.253.935A3.071 3.071 0 0 0 0 4.687v10.626a3.071 3.071 0 0 0 .935 2.253 3.071 3.071 0 0 0 2.252.934h10.626A3.194 3.194 0 0 0 17 15.313V4.687a3.071 3.071 0 0 0-.934-2.253zm-3.06 5.607a2.94 2.94 0 0 1 .011.3 6.7 6.7 0 0 1-1.1 3.658 6.983 6.983 0 0 1-1.334 1.516 5.987 5.987 0 0 1-1.86 1.051 6.767 6.767 0 0 1-2.324.393 6.522 6.522 0 0 1-3.564-1.04 4.49 4.49 0 0 0 .553.033 4.593 4.593 0 0 0 2.889-1 2.208 2.208 0 0 1-1.345-.465 2.363 2.363 0 0 1-.825-1.151 3.112 3.112 0 0 0 .432.044 2.164 2.164 0 0 0 .561-.08 2.325 2.325 0 0 1-1.362-.8 2.21 2.21 0 0 1-.553-1.478v-.029a2.745 2.745 0 0 0 1.107.288 2.192 2.192 0 0 1-1.005-1.938 2.3 2.3 0 0 1 .321-1.173 6.589 6.589 0 0 0 2.125 1.716 6.581 6.581 0 0 0 2.679.72 2.137 2.137 0 0 1-.055-.531 2.324 2.324 0 0 1 2.325-2.325 2.21 2.21 0 0 1 1.694.731 4.624 4.624 0 0 0 1.483-.564 2.26 2.26 0 0 1-1.029 1.3 4.927 4.927 0 0 0 1.339-.376 4.522 4.522 0 0 1-1.164 1.2z" fill="#fff" fill-rule="evenodd"/></svg>