<svg xmlns="http://www.w3.org/2000/svg" viewBox="0 0 242 126"><title>winger_geeksmate</title><circle cx="179" cy="63" r="59.5" fill="none" stroke="#fff" stroke-miterlimit="10" stroke-width="7"/><path d="M162.05,49.68h4.89V80.53a12.61,12.61,0,0,1-1.1,5.28,13.09,13.09,0,0,1-3,4.25,14.55,14.55,0,0,1-4.47,2.88A14.19,14.19,0,0,1,152.83,94a14.56,14.56,0,0,1-6.17-1.38,34,34,0,0,1-5.1-2.87c.66-.81,1.31-1.61,1.95-2.42s1.28-1.6,2-2.41a21.57,21.57,0,0,0,3.29,2,8.84,8.84,0,0,0,7.31.32,8.43,8.43,0,0,0,2.66-1.73,7.65,7.65,0,0,0,1.74-2.63,8.87,8.87,0,0,0,.6-3.29V74.85a5.16,5.16,0,0,1,.32-.67,6.9,6.9,0,0,0,.32-.67,6.13,6.13,0,0,1-.93.85,9.2,9.2,0,0,1-1.84,1.1,17,17,0,0,1-2.69,1,13,13,0,0,1-3.48.43,14.41,14.41,0,0,1-5.6-1.1,14.15,14.15,0,0,1-4.54-3,13.79,13.79,0,0,1-3-4.39,13.51,13.51,0,0,1,0-10.68,14,14,0,0,1,3-4.46,14.33,14.33,0,0,1,4.54-3,13.92,13.92,0,0,1,5.6-1.14,10.7,10.7,0,0,1,3.55.57,18,18,0,0,1,2.83,1.24,11.1,11.1,0,0,1,1.92,1.31c.47.43.71.71.71.85a9.37,9.37,0,0,1,.14-1.63A10.73,10.73,0,0,0,162.05,49.68ZM144.46,62.94a8.06,8.06,0,0,0,2.31,5.85,8.73,8.73,0,0,0,12,0,8.06,8.06,0,0,0,2.31-5.85,7.93,7.93,0,0,0-2.31-5.85,9,9,0,0,0-12,0A7.93,7.93,0,0,0,144.46,62.94Z" fill="#fff"/><path d="M175.45,49.68h5.18v.64c.09,1.13.18,2.16.25,3.08s.15,2,.24,3.09a12,12,0,0,1,4.51-5.36A13.65,13.65,0,0,1,192.68,49,9.6,9.6,0,0,1,199,51a7.73,7.73,0,0,1,2.8,5.14A11.89,11.89,0,0,1,206.3,51a13.82,13.82,0,0,1,6.88-2,9.45,9.45,0,0,1,6.59,2.2A7.84,7.84,0,0,1,222.32,57V76.27h-5.88V59.68a5,5,0,0,0-5.32-4.82,9.63,9.63,0,0,0-3.51.64,9.31,9.31,0,0,0-2.94,1.77A8.93,8.93,0,0,0,202.61,60a7.53,7.53,0,0,0-.78,3.41v12.9H196V59.68a5,5,0,0,0-5.32-4.82,9.63,9.63,0,0,0-3.51.64,9.47,9.47,0,0,0-3,1.77,8.9,8.9,0,0,0-2,2.69,7.53,7.53,0,0,0-.78,3.41v12.9h-5.89Z" fill="#fff"/><path d="M5,39.5h99a1,1,0,0,1,1,1v4a1,1,0,0,1-1,1H1a1,1,0,0,1-1-1v0a5,5,0,0,1,5-5Z" fill="#fff"/><path d="M34.5,59.5H104a1,1,0,0,1,1,1v4a1,1,0,0,1-1,1H30.5a1,1,0,0,1-1-1v0a5,5,0,0,1,5-5Z" fill="#fff"/><path d="M70.5,79.5H104a1,1,0,0,1,1,1v4a1,1,0,0,1-1,1H66.5a1,1,0,0,1-1-1v0A5,5,0,0,1,70.5,79.5Z" fill="#fff"/></svg>