<svg xmlns="http://www.w3.org/2000/svg" viewBox="0 0 242 126"><title>winger_innervoice</title><circle cx="179" cy="63" r="59.5" fill="none" stroke="#fff" stroke-miterlimit="10" stroke-width="7"/><path d="M153.32,42.12a4.39,4.39,0,0,1,1.41-3.35,4.53,4.53,0,0,1,3.17-1.32,4.66,4.66,0,0,1,4.5,4.67A4.27,4.27,0,0,1,161,45.43a4.52,4.52,0,0,1-3.09,1.28,4.62,4.62,0,0,1-3.17-1.28A4.27,4.27,0,0,1,153.32,42.12ZM161.43,88h-7.32V54.9h7.32Z" fill="#fff"/><path d="M187.79,90q-4.77-8.82-9.52-17.54T168.75,54.9h7.31q1.41,2.66,3.09,5.47c1.11,1.88,2.22,3.76,3.3,5.64s2.09,3.78,3,5.69a55,55,0,0,1,2.34,5.68,38.79,38.79,0,0,1,2.29-5.68q1.41-2.86,3-5.69l3.26-5.64q1.63-2.82,3.13-5.47h7.32q-4.77,8.82-9.52,17.55T187.79,90Z" fill="#fff"/><path d="M5,39.5h99a1,1,0,0,1,1,1v4a1,1,0,0,1-1,1H1a1,1,0,0,1-1-1v0a5,5,0,0,1,5-5Z" fill="#fff"/><path d="M34.5,59.5H104a1,1,0,0,1,1,1v4a1,1,0,0,1-1,1H30.5a1,1,0,0,1-1-1v0a5,5,0,0,1,5-5Z" fill="#fff"/><path d="M70.5,79.5H104a1,1,0,0,1,1,1v4a1,1,0,0,1-1,1H66.5a1,1,0,0,1-1-1v0a5,5,0,0,1,5-5Z" fill="#fff"/></svg>