<svg xmlns="http://www.w3.org/2000/svg" viewBox="0 0 242 126"><title>winger_wittyfeed</title><path d="M238.5,63A59.5,59.5,0,1,1,179,3.5,59.5,59.5,0,0,1,238.5,63Z" fill="none" stroke="#fff" stroke-miterlimit="10" stroke-width="7"/><path d="M160.78,62c-.28-.56-.55-1.12-.81-1.66s-.54-1.1-.82-1.67H165q2.06,4.47,4.43,9a62.76,62.76,0,0,1,3.93,9.11,61.75,61.75,0,0,1,3.94-9.11q2.37-4.5,4.43-9h5.89q-3.61,7.09-7.13,14.11T173.4,86.9q-2.4-4.82-4.82-9.53t-4.82-9.54q-2.41,4.82-4.82,9.54t-4.82,9.53q-3.62-7.08-7.13-14.11t-7.13-14.11h5.89q2.06,4.47,4.43,9a62.83,62.83,0,0,1,3.94,9.11,53.46,53.46,0,0,1,3.15-7.48C158.52,66.85,159.69,64.42,160.78,62Z" fill="#fff"/><path d="M190.21,63.79V58h4.54V48.61a17.51,17.51,0,0,1,1.31-7,14.94,14.94,0,0,1,3.58-5.14,15.34,15.34,0,0,1,5.42-3.19A23.22,23.22,0,0,1,211.84,32v5.6a12.73,12.73,0,0,0-8.05,3.12c-2.11,1.89-3.16,4.59-3.16,8.08V58h8.3v5.75h-8.3V85.27h-5.88V63.79Z" fill="#fff"/><path d="M104,45.5H1a1,1,0,0,1-1-1H0a5,5,0,0,1,5-5h99a1,1,0,0,1,1,1v4A1,1,0,0,1,104,45.5Zm1,19v-4a1,1,0,0,0-1-1H34.5a5,5,0,0,0-5,5h0a1,1,0,0,0,1,1H104A1,1,0,0,0,105,64.5Zm0,20v-4a1,1,0,0,0-1-1H70.5a5,5,0,0,0-5,5h0a1,1,0,0,0,1,1H104A1,1,0,0,0,105,84.5Z" fill="#fff"/></svg>