<svg xmlns="http://www.w3.org/2000/svg" viewBox="0 0 242 126"><title>winger_foodmate</title><circle cx="179" cy="63" r="59.5" fill="none" stroke="#fff" stroke-miterlimit="10" stroke-width="7"/><path d="M141.59,63.79V58h4.54V48.61a17.69,17.69,0,0,1,1.31-7A15,15,0,0,1,151,36.45a15.34,15.34,0,0,1,5.42-3.19A23.16,23.16,0,0,1,163.22,32v5.6a12.78,12.78,0,0,0-8.05,3.12c-2.1,1.89-3.15,4.59-3.15,8.08V58h8.29v5.75H152V85.27h-5.89V63.79Z" fill="#fff"/><path d="M167,58.68h5.18v.64c.09,1.13.17,2.16.24,3.08s.16,1.95.25,3.09a11.94,11.94,0,0,1,4.5-5.36A13.69,13.69,0,0,1,184.21,58a9.6,9.6,0,0,1,6.28,2,7.77,7.77,0,0,1,2.8,5.14,11.94,11.94,0,0,1,4.53-5.1,13.85,13.85,0,0,1,6.88-2,9.46,9.46,0,0,1,6.6,2.2A7.92,7.92,0,0,1,213.85,66V85.27H208V68.68a5.34,5.34,0,0,0-1.38-3.3,5.44,5.44,0,0,0-3.93-1.52,9.63,9.63,0,0,0-3.51.64,9.35,9.35,0,0,0-2.95,1.77A8.9,8.9,0,0,0,194.14,69a7.53,7.53,0,0,0-.78,3.41v12.9h-5.89V68.68a5.34,5.34,0,0,0-1.38-3.3,5.45,5.45,0,0,0-3.94-1.52,9.63,9.63,0,0,0-3.51.64,9.31,9.31,0,0,0-2.94,1.77A8.93,8.93,0,0,0,173.64,69a7.53,7.53,0,0,0-.78,3.41v12.9H167Z" fill="#fff"/><path d="M5,39.5h99a1,1,0,0,1,1,1v4a1,1,0,0,1-1,1H1a1,1,0,0,1-1-1v0a5,5,0,0,1,5-5Z" fill="#fff"/><path d="M34.5,59.5H104a1,1,0,0,1,1,1v4a1,1,0,0,1-1,1H30.5a1,1,0,0,1-1-1v0a5,5,0,0,1,5-5Z" fill="#fff"/><path d="M70.5,79.5H104a1,1,0,0,1,1,1v4a1,1,0,0,1-1,1H66.5a1,1,0,0,1-1-1v0A5,5,0,0,1,70.5,79.5Z" fill="#fff"/></svg>