<svg xmlns="http://www.w3.org/2000/svg" viewBox="0 0 242 126"><title>thepopple</title><circle cx="179" cy="63" r="59.5" fill="none" stroke="#fff" stroke-miterlimit="10" stroke-width="7"/><path d="M5,39.5h99a1,1,0,0,1,1,1v4a1,1,0,0,1-1,1H1a1,1,0,0,1-1-1v0A5,5,0,0,1,5,39.5Z" fill="#fff"/><path d="M34.5,59.5H104a1,1,0,0,1,1,1v4a1,1,0,0,1-1,1H30.5a1,1,0,0,1-1-1v0a5,5,0,0,1,5-5Z" fill="#fff"/><path d="M70.5,79.5H104a1,1,0,0,1,1,1v4a1,1,0,0,1-1,1H66.5a1,1,0,0,1-1-1v0a5,5,0,0,1,5-5Z" fill="#fff"/><path d="M215,61.05c-.63,1.54-1.95,2.31-3.32,3.09q-14.7,8.48-29.38,17A21.37,21.37,0,0,1,157.72,79l-.37-.3a1.35,1.35,0,0,0-.11.87v18c0,2.63-.52,3.43-2.87,4.43h-1.6c0-.19-.2-.19-.33-.25a3.63,3.63,0,0,1-2.3-3.64q0-9.52,0-19c0-5.29,0-10.58,0-15.86a21.5,21.5,0,0,1,14.42-20.78.37.37,0,0,0,.14-.09c-.16-.32-.5-.4-.77-.56l-16-9.25a3.54,3.54,0,1,1,3.41-6.2c3.36,1.9,6.69,3.86,10,5.78,6.94,4,13.92,7.94,20.84,12a20.93,20.93,0,0,1,10.5,15.49,22.1,22.1,0,0,1-.16,7.3c.36,0,.59-.23.85-.38l15.32-8.83c3.1-1.79,4.69-1.34,6.31,1.78Zm-57.65,1.61a14.2,14.2,0,1,0,14.19-14.23A14.2,14.2,0,0,0,157.35,62.66Z" fill="#fff"/></svg>