<svg xmlns="http://www.w3.org/2000/svg" viewBox="0 0 242 126"><title>winger_duniyadigest</title><circle cx="179" cy="63" r="59.5" fill="none" stroke="#fff" stroke-miterlimit="10" stroke-width="7"/><path d="M5,39.5h99a1,1,0,0,1,1,1v4a1,1,0,0,1-1,1H1a1,1,0,0,1-1-1v0a5,5,0,0,1,5-5Z" fill="#fff"/><path d="M34.5,59.5H104a1,1,0,0,1,1,1v4a1,1,0,0,1-1,1H30.5a1,1,0,0,1-1-1v0a5,5,0,0,1,5-5Z" fill="#fff"/><path d="M70.5,79.5H104a1,1,0,0,1,1,1v4a1,1,0,0,1-1,1H66.5a1,1,0,0,1-1-1v0A5,5,0,0,1,70.5,79.5Z" fill="#fff"/><path d="M146.45,87.86c2.46,0,4.77,0,7.08,0a.72.72,0,0,1,.52.37,4.34,4.34,0,0,1,.43,1.1,3.15,3.15,0,0,0,3.19,2.58c2,.09,3.9.12,5.85,0a2.05,2.05,0,0,0,2.15-1.88,19.86,19.86,0,0,0,.45-2.54c.07-.7-.21-.93-.94-.94h-5l.44-1.75a4.18,4.18,0,0,0,.2-.83c.05-1,.47-1.72,1.62-1.78.15,0,.36-.27.42-.45a11.89,11.89,0,0,0,.3-1.37c-.3.06-.51.09-.71.14-2.81.68-5.65.28-8.47.23a14.7,14.7,0,0,1-3.73-.56,4,4,0,0,1-3.19-4.39c.22-2.87.6-5.73,1.08-8.57.72-4.21,1.57-8.41,2.39-12.6a20.48,20.48,0,0,1,.71-2.43,5.85,5.85,0,0,1,5.49-4.32c3.18-.21,6.38-.22,9.57-.31.7,0,1.41,0,2.1,0,.3-1.74.6-3.39.87-5,.11-.7-.15-1-.86-1-.33,0-.66,0-1,0l-20.7,0-.54,0c.14-1.11.24-2.2.41-3.28.11-.65.35-1.28.52-1.92a.7.7,0,0,1,.77-.56c3,0,6-.09,9.06-.09,12.42,0,24.85,0,37.28,0,4,0,7.94.22,11.91.4a9.09,9.09,0,0,1,2.79.54c2.66,1,3.31,3.08,3.07,5.3-.31,2.92-.91,5.82-1.41,8.73s-1,5.85-1.54,8.77-1,5.77-1.51,8.65-1,5.86-1.57,8.78q-.57,2.91-1.34,5.77A4.73,4.73,0,0,1,201.43,86c-.87.31-1.69.75-2.55,1.11a2,2,0,0,1-.75.19l-22,.13-.46,0c.13-1.13.19-2.23.38-3.31,1.37-7.75,2.77-15.49,4.14-23.24q1.62-9.16,3.2-18.34c0-.26.06-.53.09-.86a18.8,18.8,0,0,0-4.86,0,.84.84,0,0,0-.71.76c-.67,3.39-1.35,6.77-2,10.16-.11.58-.31.83-1,.82-4.07,0-8.13,0-12.19,0-3.17,0-4,1-4.54,4-.81,4.73-1.59,9.47-2.38,14.2-.1.63-.19,1.26-.27,1.9-.12.88.18,1.33,1.05,1.39,1.75.1,3.5.19,5.25.14a2.69,2.69,0,0,0,2.68-2.43c.42-1.93.74-3.87,1.09-5.82.11-.58.17-1.17.26-1.79h8.31c-.34,2-.66,4-1,6-.55,3.19-1.11,6.37-1.67,9.56a6.75,6.75,0,0,1-.16,1.11,1.72,1.72,0,0,0,.64,2,2.78,2.78,0,0,1,.79,2.38,26.21,26.21,0,0,1-1.68,6.85,3.51,3.51,0,0,1-1.79,2c-.83.41-1.67.81-2.51,1.2a1.48,1.48,0,0,1-.58.13c-3.84,0-7.68,0-11.51,0a6.76,6.76,0,0,1-6.75-4.66Zm50.2-46.28v.1c-1.38,0-2.75,0-4.13,0-.46,0-.62.19-.68.61-.08.65-.2,1.3-.31,1.95q-.71,4.1-1.42,8.19c-.46,2.69-.93,5.38-1.39,8.07s-.94,5.42-1.4,8.13-.92,5.38-1.39,8.07c-.24,1.36-.49,2.73-.73,4.09-.07.41,0,.68.53.67,1.19,0,2.38,0,3.56,0,1.44,0,2.89.1,4.33.07,2.65,0,3.18-.53,3.64-3.13,1.67-9.51,3.36-19,5-28.55.4-2.36.6-4.75.9-7.12.06-.46-.1-.7-.59-.74C200.59,41.88,198.62,41.73,196.65,41.58Z" fill="#fff"/></svg>