<svg xmlns="http://www.w3.org/2000/svg" width="133" height="35" viewBox="0 0 133 35" >
  <metadata><?xpacket begin="﻿" id="W5M0MpCehiHzreSzNTczkc9d"?>
<x:xmpmeta xmlns:x="adobe:ns:meta/" x:xmptk="Adobe XMP Core 5.6-c138 79.159824, 2016/09/14-01:09:01        ">
   <rdf:RDF xmlns:rdf="http://www.w3.org/1999/02/22-rdf-syntax-ns#">
      <rdf:Description rdf:about=""/>
   </rdf:RDF>
</x:xmpmeta>                                    
<?xpacket end="w"?></metadata>
<defs>
    <style>
      .cls-1 {
        fill: #046fc2;
        fill-rule: evenodd;
      }
    </style>
  </defs>
  <path id="wittyfeed" class="cls-1" d="M8.38,18.219q-0.567,1.3-.885,2.1T7.016,21.543q-0.159.427-.266,0.747-0.142-.96-0.319-1.724a16.563,16.563,0,0,0-.531-1.76q-0.354-1-.956-2.418T3.386,12.654h-3.4l6.765,16Q7.919,25.953,9,23.428T11.284,18.2q0.672,1.352,1.222,2.649t1.08,2.578q0.531,1.28,1.063,2.578t1.2,2.649l7.119-16h-3.4q-0.956,2.276-1.612,3.7t-1.08,2.418a16.4,16.4,0,0,0-.655,1.778,12.726,12.726,0,0,0-.372,1.742q-0.142-.427-0.407-1.12T14.72,19.357q-0.461-1.12-1.169-2.756T11.78,12.654H8.84l1.027,2.2Q8.946,16.921,8.38,18.219ZM25.487,8.334a2.17,2.17,0,0,0,1.452.587,2.109,2.109,0,0,0,1.435-.587,1.977,1.977,0,0,0,.655-1.547,1.992,1.992,0,0,0-.655-1.529,2.077,2.077,0,0,0-1.434-.6,2.137,2.137,0,0,0-1.452.6,1.967,1.967,0,0,0-.673,1.529A1.952,1.952,0,0,0,25.487,8.334Zm3.117,4.32H25.2V27.766h3.4V12.654Zm5.56,0h-2.55v3.058h2.55V27.766h3.365V15.712h3.932V12.654H37.529V6.04H34.164v6.614Zm11.192,0h-2.55v3.058h2.55V27.766h3.365V15.712h3.932V12.654H48.721V6.04H45.357v6.614Zm24.935,0H66.643q-1.347,2.632-2.2,4.409T63.066,20.05q-0.531,1.209-.815,1.973t-0.5,1.4q-0.178-.64-0.46-1.4T60.48,20.05q-0.531-1.208-1.381-2.987t-2.2-4.409H53.219q0.779,1.6,1.647,3.378t1.753,3.591l1.753,3.591q0.867,1.778,1.682,3.378-0.6,1.245-1.1,2.311T58,30.984Q57.54,32,57.08,32.975T56.088,35.02h3.4Zm3.648,3.307v11.8h3.4v-11.8h4.675V12.618H77.339V9.561a7.449,7.449,0,0,1,1.2-4.551,5.083,5.083,0,0,1,3.967-1.778V0a8.944,8.944,0,0,0-6.375,2.4q-2.2,2.258-2.2,7.023v3.2H71.354v3.342h2.586Zm20.72,7.609a4.359,4.359,0,0,1-1.541.907,5.458,5.458,0,0,1-1.859.338,4.391,4.391,0,0,1-2.409-.676,4.8,4.8,0,0,1-1.665-1.778q1.275-.5,2.8-1.12t3.046-1.227q1.523-.6,2.922-1.156t2.462-.942a8.377,8.377,0,0,0-2.745-4.071,6.958,6.958,0,0,0-4.48-1.547,7.535,7.535,0,0,0-3.028.622,8.02,8.02,0,0,0-2.515,1.707,8.3,8.3,0,0,0-1.718,2.525,7.738,7.738,0,0,0,0,6.151,8.3,8.3,0,0,0,1.718,2.525,8.005,8.005,0,0,0,5.685,2.329,9.238,9.238,0,0,0,3.188-.569,7.966,7.966,0,0,0,2.656-1.565Zm-2.125-5.778q-0.921.373-1.93,0.8t-2.019.836q-1.01.409-1.895,0.764V20.05a4.04,4.04,0,0,1,.354-1.653A4.842,4.842,0,0,1,88,16.974a4.531,4.531,0,0,1,1.452-1,4.443,4.443,0,0,1,1.806-.373,4.122,4.122,0,0,1,1.665.373A2.591,2.591,0,0,1,94.2,17.134Q93.455,17.419,92.534,17.792Zm18.914,5.778a4.365,4.365,0,0,1-1.541.907,5.459,5.459,0,0,1-1.859.338,4.39,4.39,0,0,1-2.409-.676,4.807,4.807,0,0,1-1.665-1.778q1.275-.5,2.8-1.12t3.047-1.227q1.522-.6,2.922-1.156t2.461-.942a8.371,8.371,0,0,0-2.745-4.071,6.956,6.956,0,0,0-4.48-1.547,7.538,7.538,0,0,0-3.029.622,8.021,8.021,0,0,0-2.514,1.707,8.3,8.3,0,0,0-1.718,2.525,7.733,7.733,0,0,0,0,6.151,8.291,8.291,0,0,0,1.718,2.525,8,8,0,0,0,5.684,2.329,9.238,9.238,0,0,0,3.188-.569,7.975,7.975,0,0,0,2.657-1.565Zm-2.125-5.778q-0.922.373-1.931,0.8t-2.019.836q-1.01.409-1.9,0.764V20.05a4.03,4.03,0,0,1,.355-1.653,4.822,4.822,0,0,1,.956-1.422,4.525,4.525,0,0,1,1.452-1,4.445,4.445,0,0,1,1.807-.373,4.12,4.12,0,0,1,1.664.373,2.588,2.588,0,0,1,1.275,1.156Q110.243,17.419,109.323,17.792Zm8.093,5.511a7.507,7.507,0,0,0,1.487,2.525,6.853,6.853,0,0,0,2.409,1.707,8.074,8.074,0,0,0,3.241.622,7.709,7.709,0,0,0,1.824-.2,6.816,6.816,0,0,0,1.434-.516,6.042,6.042,0,0,0,1.1-.693,10.09,10.09,0,0,0,.78-0.693,2.254,2.254,0,0,1-.036.32,2.359,2.359,0,0,0-.035.391v1h3.4V0h-3.4V14.574q-0.213-.284-0.585-0.693a4.178,4.178,0,0,0-.974-0.764,6.4,6.4,0,0,0-1.452-.6,7.1,7.1,0,0,0-1.983-.249,7.84,7.84,0,0,0-3.064.587,7.51,7.51,0,0,0-2.444,1.636,7.4,7.4,0,0,0-1.629,2.507,8.618,8.618,0,0,0-.585,3.236A9.073,9.073,0,0,0,117.416,23.3Zm3.223-4.942A4.341,4.341,0,0,1,121.6,16.9a4.294,4.294,0,0,1,1.47-.96,5.044,5.044,0,0,1,1.877-.338,4.955,4.955,0,0,1,1.9.356,4.6,4.6,0,0,1,1.488.96,4.155,4.155,0,0,1,.956,1.44,4.769,4.769,0,0,1,.337,1.8,4.905,4.905,0,0,1-.337,1.813,4.488,4.488,0,0,1-.956,1.493,4.316,4.316,0,0,1-1.488,1,4.945,4.945,0,0,1-1.9.356,4.814,4.814,0,0,1-1.877-.356,4.5,4.5,0,0,1-1.47-.978,4.293,4.293,0,0,1-.956-1.476,4.982,4.982,0,0,1-.336-1.849A4.749,4.749,0,0,1,120.639,18.361Z"/>
</svg>
