<svg xmlns="http://www.w3.org/2000/svg" width="70" height="39.219" viewBox="0 0 70 39.219">
  <metadata><?xpacket begin="﻿" id="W5M0MpCehiHzreSzNTczkc9d"?>
<x:xmpmeta xmlns:x="adobe:ns:meta/" x:xmptk="Adobe XMP Core 5.6-c138 79.159824, 2016/09/14-01:09:01        ">
   <rdf:RDF xmlns:rdf="http://www.w3.org/1999/02/22-rdf-syntax-ns#">
      <rdf:Description rdf:about=""/>
   </rdf:RDF>
</x:xmpmeta>
                                                                                                    
                                                                                                    
                                                                                                    
                                                                                                    
                                                                                                    
                                                                                                    
                                                                                                    
                                                                                                    
                                                                                                    
                                                                                                    
                                                                                                    
                                                                                                    
                                                                                                    
                                                                                                    
                                                                                                    
                                                                                                    
                                                                                                    
                                                                                                    
                                                                                                    
                                                                                                    
                           
<?xpacket end="w"?></metadata>
<defs>
    <style>
      .cls-1 {
        fill: #fff;
        fill-rule: evenodd;
      }
    </style>
  </defs>
  <path id="powered_by" data-name="powered by" class="cls-1" d="M259.988,37.917v3.964H259V40.426a4.313,4.313,0,0,1-3.346,1.6,4.421,4.421,0,0,1,0-8.84,4.313,4.313,0,0,1,3.346,1.6V25.664h0.992V37.287C260,37.391,260,37.5,260,37.6S260,37.813,259.988,37.917Zm-4.353-3.675a3.365,3.365,0,1,0,3.318,3.365A3.342,3.342,0,0,0,255.635,34.242Zm-4.476-3.935,0.88,0.332-0.586,1.616-8-3.013,0.586-1.616,0.839,0.316,0.975-2.7a0.334,0.334,0,0,1,.42-0.223l5.688,2.128a0.344,0.344,0,0,1,.178.447Zm-7.3,4.968h0l-4.933,1.883a2.289,2.289,0,0,0,2.014,1.22,2.263,2.263,0,0,0,1.6-.669l0.53,0.648a3.064,3.064,0,0,1-2.132.866,3.185,3.185,0,1,1,3.013-3.985Zm-2.918-1.6a2.326,2.326,0,0,0-2.3,2.352,2.425,2.425,0,0,0,.036.412l4.232-1.623A2.287,2.287,0,0,0,240.943,33.674Zm6.926,4.749a2.3,2.3,0,0,0,1.609-.656l0.481,0.588a3.068,3.068,0,0,1-2.135.867,3.184,3.184,0,1,1,3.016-3.984l-0.1.036h0l-4.937,1.884A2.328,2.328,0,0,0,247.869,38.424Zm2.009-3.581a2.323,2.323,0,0,0-2.009-1.168,2.354,2.354,0,0,0-2.333,2.375,2.393,2.393,0,0,0,.042.443Zm-9.662,7.989c0.795-.618,1.12-2.436,2.45-2.436a1.849,1.849,0,0,1,1.75,1.01,1.846,1.846,0,0,1,1.749-1.01c1.33,0,1.655,1.818,2.45,2.436,0.977,0.759,2.25,1,4.666.654a7.844,7.844,0,0,1-4.375,1.544s-0.233-.021-0.6-0.084a3.972,3.972,0,0,1-7.732-.01c-0.4.072-.653,0.094-0.653,0.094a7.844,7.844,0,0,1-4.375-1.544C237.966,43.829,239.239,43.591,240.216,42.832Zm4.229,4.4a3.485,3.485,0,0,0,3.413-2.372,5.644,5.644,0,0,1-3.442-1.905,5.6,5.6,0,0,1-3.389,1.894A3.485,3.485,0,0,0,244.445,47.228ZM234.03,30.475c0,0.079,0,.157.008,0.234l0,0V33.18h2.858v1.01h-2.858v7.751h-0.991V34.19H231.7V33.18h1.342V30.808c-0.006-.1-0.011-0.194-0.011-0.293a4.507,4.507,0,0,1,4.385-4.544v1A3.475,3.475,0,0,0,234.03,30.475ZM222.311,47.7l3.149-6.02-4.029-8.547h1.087l3.472,7.535,3.918-7.491H231L223.478,47.7h-1.167Zm-3.733-5.762h-0.991V34.19h-1.75V33.18h1.75V28.4h0.991V33.18h2.45v1.01h-2.45v7.751Zm-6.065,0h-0.992V34.19h-1.749V33.18h1.749V28.4h0.992V33.18h2.449v1.01h-2.449v7.751Zm-5.7-10.659a0.678,0.678,0,1,1,.671-0.678A0.675,0.675,0,0,1,206.812,31.282Zm-6.864,10.484-0.091.175-2.695-5.684-2.869,5.394h0l-0.151.291L190,33.208h1.108l3.072,6.668,2.434-4.774-0.9-1.893h1.108l3.076,6.678,3.456-6.678h1.108l-4.513,8.562Zm7.375,0.2-0.983-.047-0.014-8.708,1-.01v8.765ZM191.43,12.706a2.794,2.794,0,0,1,.786-0.781,1.8,1.8,0,0,1,.985-0.28,1.547,1.547,0,0,1,1.293.575,2.907,2.907,0,0,1,.45,1.8,3.725,3.725,0,0,1-.123.987,2.256,2.256,0,0,1-.369.77,1.658,1.658,0,0,1-.608.5,1.914,1.914,0,0,1-.846.176,2.309,2.309,0,0,1-.46-0.044,1.524,1.524,0,0,1-.41-0.146,1.683,1.683,0,0,1-.365-0.264,2.286,2.286,0,0,1-.333-0.4V12.706Zm-0.077-1.254a0.146,0.146,0,0,0-.16-0.138H190.9v7.409h0.528V16.056a1.991,1.991,0,0,0,.7.6,2.129,2.129,0,0,0,.963.2,2.265,2.265,0,0,0,1.02-.22,2.2,2.2,0,0,0,.748-0.6,2.676,2.676,0,0,0,.462-0.9,3.876,3.876,0,0,0,.157-1.119,3.288,3.288,0,0,0-.564-2.1,1.907,1.907,0,0,0-1.57-.7,2.082,2.082,0,0,0-1.092.292,2.9,2.9,0,0,0-.85.787Zm7.389-.025a2.165,2.165,0,0,0-.786.569,2.494,2.494,0,0,0-.49.888,4.1,4.1,0,0,0,0,2.324,2.5,2.5,0,0,0,.49.886,2.137,2.137,0,0,0,.786.567,2.9,2.9,0,0,0,2.107,0,2.109,2.109,0,0,0,.783-0.567,2.522,2.522,0,0,0,.487-0.886,4.1,4.1,0,0,0,0-2.324A2.52,2.52,0,0,0,201.632,12a2.137,2.137,0,0,0-.783-0.569A2.864,2.864,0,0,0,198.742,11.428Zm0.2,4.851a1.615,1.615,0,0,1-.61-0.481,2.169,2.169,0,0,1-.369-0.756,4.025,4.025,0,0,1,0-1.983,2.2,2.2,0,0,1,.369-0.762,1.63,1.63,0,0,1,.61-0.487,2.232,2.232,0,0,1,1.711,0,1.63,1.63,0,0,1,.61.487,2.158,2.158,0,0,1,.366.762,4.122,4.122,0,0,1,0,1.983,2.131,2.131,0,0,1-.366.756,1.615,1.615,0,0,1-.61.481A2.266,2.266,0,0,1,198.94,16.279Zm12.273-4.964a0.191,0.191,0,0,0-.115.036,0.2,0.2,0,0,0-.072.1l-1.391,4.318q-0.039.127-.063,0.242c-0.017.077-.032,0.154-0.047,0.231-0.018-.077-0.039-0.154-0.061-0.231s-0.045-.158-0.071-0.242l-1.452-4.356a0.156,0.156,0,0,0-.16-0.121h-0.214a0.152,0.152,0,0,0-.154.121l-1.463,4.356c-0.029.084-.055,0.166-0.077,0.245l-0.066.234c-0.011-.077-0.026-0.155-0.044-0.234s-0.039-.16-0.061-0.245l-1.38-4.318a0.2,0.2,0,0,0-.066-0.091,0.191,0.191,0,0,0-.127-0.041h-0.4l1.826,5.473h0.374a0.134,0.134,0,0,0,.132-0.116l1.518-4.444a2.1,2.1,0,0,0,.083-0.33c0.011,0.055.024,0.11,0.038,0.165s0.032,0.11.05,0.165l1.5,4.444a0.131,0.131,0,0,0,.126.116h0.391l1.826-5.473h-0.38Zm2.365,2.184a2.765,2.765,0,0,1,.2-0.776,1.9,1.9,0,0,1,.394-0.594,1.655,1.655,0,0,1,.58-0.38,2.062,2.062,0,0,1,.759-0.132,1.767,1.767,0,0,1,.685.129,1.522,1.522,0,0,1,.536.371,1.673,1.673,0,0,1,.349.591,2.341,2.341,0,0,1,.124.789h-3.625Zm3.955,0.335a0.129,0.129,0,0,0,.11-0.044,0.292,0.292,0,0,0,.033-0.165,2.887,2.887,0,0,0-.168-1.023,2.194,2.194,0,0,0-.459-0.751,1.943,1.943,0,0,0-.688-0.465,2.276,2.276,0,0,0-.858-0.159,2.549,2.549,0,0,0-1.042.2,2.207,2.207,0,0,0-.775.564,2.488,2.488,0,0,0-.484.858,3.377,3.377,0,0,0-.168,1.086,3.959,3.959,0,0,0,.179,1.24,2.587,2.587,0,0,0,.508.916,2.168,2.168,0,0,0,.792.569,2.6,2.6,0,0,0,1.023.2,3.156,3.156,0,0,0,.614-0.06,3.546,3.546,0,0,0,.572-0.162,2.487,2.487,0,0,0,.484-0.245,1.487,1.487,0,0,0,.349-0.308l-0.143-.176a0.126,0.126,0,0,0-.11-0.055,0.371,0.371,0,0,0-.176.091,2.86,2.86,0,0,1-.327.2,2.67,2.67,0,0,1-.509.2,2.5,2.5,0,0,1-.715.091,2.109,2.109,0,0,1-.836-0.159,1.681,1.681,0,0,1-.638-0.476,2.214,2.214,0,0,1-.407-0.784,3.723,3.723,0,0,1-.143-1.084v-0.1h3.982Zm2.689-2.348a0.218,0.218,0,0,0-.049-0.132,0.185,0.185,0,0,0-.132-0.039H219.76v5.473h0.528V13.245a4.545,4.545,0,0,1,.267-0.652,1.851,1.851,0,0,1,.341-0.476,1.3,1.3,0,0,1,.44-0.289,1.532,1.532,0,0,1,.564-0.1,1.334,1.334,0,0,1,.355.038,0.811,0.811,0,0,0,.2.039,0.106,0.106,0,0,0,.1-0.088l0.044-.363a0.852,0.852,0,0,0-.292-0.107,1.845,1.845,0,0,0-.335-0.03,1.664,1.664,0,0,0-.58.1,1.539,1.539,0,0,0-.473.278,1.891,1.891,0,0,0-.374.443,3.4,3.4,0,0,0-.289.6Zm3.993,2.013a2.765,2.765,0,0,1,.2-0.776,1.885,1.885,0,0,1,.394-0.594,1.655,1.655,0,0,1,.58-0.38,2.054,2.054,0,0,1,.759-0.132,1.771,1.771,0,0,1,.685.129,1.531,1.531,0,0,1,.536.371,1.673,1.673,0,0,1,.349.591,2.341,2.341,0,0,1,.124.789h-3.625Zm3.955,0.335a0.129,0.129,0,0,0,.11-0.044,0.292,0.292,0,0,0,.033-0.165,2.887,2.887,0,0,0-.168-1.023,2.194,2.194,0,0,0-.459-0.751A1.952,1.952,0,0,0,227,11.386a2.276,2.276,0,0,0-.858-0.159,2.549,2.549,0,0,0-1.042.2,2.2,2.2,0,0,0-.775.564,2.472,2.472,0,0,0-.484.858,3.377,3.377,0,0,0-.168,1.086,3.93,3.93,0,0,0,.179,1.24,2.587,2.587,0,0,0,.508.916,2.168,2.168,0,0,0,.792.569,2.6,2.6,0,0,0,1.023.2,3.156,3.156,0,0,0,.614-0.06,3.546,3.546,0,0,0,.572-0.162,2.516,2.516,0,0,0,.484-0.245,1.507,1.507,0,0,0,.349-0.308l-0.143-.176a0.128,0.128,0,0,0-.11-0.055,0.367,0.367,0,0,0-.176.091,2.86,2.86,0,0,1-.327.2,2.7,2.7,0,0,1-.509.2,2.5,2.5,0,0,1-.715.091,2.109,2.109,0,0,1-.836-0.159,1.673,1.673,0,0,1-.638-0.476,2.214,2.214,0,0,1-.407-0.784,3.689,3.689,0,0,1-.143-1.084v-0.1h3.982Zm5.962,1.534a2.685,2.685,0,0,1-.787.787,1.81,1.81,0,0,1-.984.281,1.542,1.542,0,0,1-1.295-.575,2.915,2.915,0,0,1-.449-1.8,3.723,3.723,0,0,1,.124-0.987,2.238,2.238,0,0,1,.369-0.77,1.664,1.664,0,0,1,.607-0.5,2.1,2.1,0,0,1,1.719.016,1.874,1.874,0,0,1,.7.665v2.877Zm0-6.583V12.03a2.015,2.015,0,0,0-.71-0.605,2.127,2.127,0,0,0-.962-0.2,2.263,2.263,0,0,0-1.02.22,2.167,2.167,0,0,0-.746.6,2.707,2.707,0,0,0-.459.9,3.876,3.876,0,0,0-.157,1.119,3.3,3.3,0,0,0,.561,2.1,1.9,1.9,0,0,0,1.573.7,2.065,2.065,0,0,0,1.089-.291,2.909,2.909,0,0,0,.847-0.786l0.055,0.864a0.151,0.151,0,0,0,.165.143h0.286v-8h-0.522Zm7.161,3.921a2.819,2.819,0,0,1,.781-0.781,1.833,1.833,0,0,1,1.017-.28,1.518,1.518,0,0,1,1.265.572,2.717,2.717,0,0,1,.451,1.705,4.182,4.182,0,0,1-.121,1.05,2.229,2.229,0,0,1-.366.795,1.635,1.635,0,0,1-.61.5,1.951,1.951,0,0,1-.855.176,1.911,1.911,0,0,1-.861-0.19,1.881,1.881,0,0,1-.7-0.663V12.706Zm0-3.921h-0.528v8h0.319a0.136,0.136,0,0,0,.148-0.138l0.039-.676a2.018,2.018,0,0,0,.706.663,2.058,2.058,0,0,0,.993.223,2.3,2.3,0,0,0,1.007-.212,2.1,2.1,0,0,0,.745-0.6,2.748,2.748,0,0,0,.465-0.935,4.338,4.338,0,0,0,.159-1.213,4.071,4.071,0,0,0-.143-1.13,2.385,2.385,0,0,0-.415-0.839,1.819,1.819,0,0,0-.663-0.522,2.074,2.074,0,0,0-.885-0.181,2.172,2.172,0,0,0-1.111.278,2.759,2.759,0,0,0-.836.762V8.785Zm10.087,2.53a0.182,0.182,0,0,0-.11.036,0.234,0.234,0,0,0-.077.1L249.372,15.7q-0.033.082-.063,0.168c-0.02.057-.039,0.115-0.058,0.173-0.014-.059-0.03-0.116-0.046-0.173s-0.036-.113-0.058-0.168L247.3,11.447a0.2,0.2,0,0,0-.066-0.091,0.2,0.2,0,0,0-.132-0.041h-0.434l2.315,5.269-0.962,2.14H248.4a0.211,0.211,0,0,0,.151-0.05,0.372,0.372,0,0,0,.085-0.127l3.146-7.232h-0.4Z" transform="translate(-190 -8.781)"/>
</svg>
