<?xml version="1.0" encoding="iso-8859-1"?>
<!-- Generator: Adobe Illustrator 16.0.0, SVG Export Plug-In . SVG Version: 6.00 Build 0)  -->
<!DOCTYPE svg PUBLIC "-//W3C//DTD SVG 1.1//EN" "http://www.w3.org/Graphics/SVG/1.1/DTD/svg11.dtd">
<svg version="1.1" id="Layer_1" xmlns="http://www.w3.org/2000/svg" xmlns:xlink="http://www.w3.org/1999/xlink" x="0px" y="0px"
	 width="546.911px" height="143.428px" viewBox="0 0 546.911 143.428" style="enable-background:new 0 0 546.911 143.428;"
	 xml:space="preserve">
<g>
	<path style="fill:#FFFFFF;" d="M40.625,60.866l-4.223-9.028h12.086C51.401,58.149,53.826,63.537,55.77,68
		c1.94,4.466,3.542,8.227,4.805,11.285c1.26,3.058,2.257,5.533,2.985,7.426c0.728,1.893,1.286,3.422,1.674,4.587
		c0.387-2.621,0.896-4.999,1.529-7.135c0.63-2.134,1.529-4.562,2.694-7.281c1.165-2.716,2.644-6.018,4.441-9.901
		c1.795-3.882,4.004-8.93,6.625-15.144h13.979l-29.268,65.526c-1.845-3.688-3.495-7.304-4.951-10.849
		c-1.456-3.542-2.912-7.062-4.368-10.557s-2.938-7.012-4.441-10.557c-1.506-3.542-3.181-7.158-5.023-10.848
		c-3.301,7.378-6.432,14.513-9.392,21.405c-2.962,6.894-6.043,14.029-9.246,21.405L0,51.837h13.979
		c2.621,6.312,4.755,11.408,6.407,15.29c1.649,3.884,2.96,7.185,3.932,9.901c0.969,2.719,1.697,5.122,2.184,7.208
		c0.484,2.088,0.921,4.441,1.311,7.062c0.291-0.874,0.655-1.893,1.092-3.058c0.437-1.165,1.092-2.839,1.966-5.024
		c0.874-2.184,2.086-5.046,3.64-8.591C36.062,71.083,38.1,66.497,40.625,60.866z"/>
	<path style="fill:#FFFFFF;" d="M102.072,27.812c0-2.523,0.921-4.609,2.767-6.261c1.843-1.649,3.834-2.476,5.97-2.476
		c2.134,0,4.1,0.826,5.897,2.476c1.795,1.652,2.694,3.738,2.694,6.261c0,2.621-0.899,4.732-2.694,6.334
		c-1.797,1.602-3.763,2.403-5.897,2.403c-2.136,0-4.127-0.801-5.97-2.403C102.993,32.544,102.072,30.433,102.072,27.812z
		 M117.652,113.723h-13.979V51.837h13.979V113.723z"/>
	<path style="fill:#FFFFFF;" d="M140.512,24.754h13.833v27.083h16.163V64.36h-16.163v49.362h-13.833V64.36h-10.484V51.837h10.484
		V24.754z"/>
	<path style="fill:#FFFFFF;" d="M186.524,24.754h13.833v27.083h16.163V64.36h-16.163v49.362h-13.833V64.36h-10.484V51.837h10.484
		V24.754z"/>
	<path style="fill:#FFFFFF;" d="M244.623,143.428h-13.979c1.456-2.912,2.814-5.704,4.077-8.373c1.261-2.671,2.523-5.388,3.786-8.154
		c1.26-2.767,2.571-5.605,3.931-8.518c1.358-2.912,2.862-6.066,4.514-9.465c-2.234-4.368-4.539-8.978-6.917-13.833
		c-2.38-4.853-4.783-9.756-7.208-14.707c-2.427-4.951-4.83-9.852-7.208-14.707c-2.38-4.853-4.637-9.465-6.771-13.833h15.144
		c3.688,7.185,6.698,13.203,9.028,18.056c2.33,4.855,4.223,8.932,5.679,12.231c1.456,3.301,2.571,5.995,3.349,8.082
		c0.776,2.088,1.406,4.004,1.893,5.751c0.583-1.748,1.261-3.663,2.039-5.751c0.776-2.086,1.893-4.78,3.349-8.082
		c1.456-3.299,3.349-7.376,5.679-12.231c2.33-4.853,5.338-10.871,9.028-18.056h14.998L244.623,143.428z"/>
	<path style="fill:#FFFFFF;" d="M293.402,65.379V51.692h10.63V38.587c0-13.007,3.008-22.593,9.027-28.758
		c6.018-6.164,14.755-9.44,26.211-9.829v13.25c-7.572,0.487-13.01,2.912-16.309,7.281c-3.302,4.368-4.951,10.582-4.951,18.638
		v12.522h19.221v13.688H318.01v48.343h-13.979V65.379H293.402z"/>
	<path style="fill:#FFFFFF;" d="M399.551,106.588c-3.01,2.719-6.65,4.855-10.921,6.407c-4.272,1.552-8.642,2.33-13.104,2.33
		c-4.564,0-8.859-0.851-12.887-2.548c-4.029-1.697-7.524-4.027-10.484-6.99c-2.963-2.96-5.314-6.407-7.063-10.338
		c-1.747-3.932-2.621-8.129-2.621-12.595c0-4.464,0.874-8.664,2.621-12.596c1.748-3.931,4.1-7.376,7.063-10.338
		c2.96-2.96,6.406-5.29,10.338-6.989c3.932-1.697,8.082-2.548,12.45-2.548c6.989,0,13.128,2.111,18.42,6.334
		c5.29,4.223,9.051,9.781,11.285,16.672c-2.912,1.069-6.286,2.355-10.12,3.859c-3.836,1.506-7.84,3.083-12.014,4.732
		c-4.174,1.651-8.35,3.326-12.521,5.023c-4.176,1.7-8.01,3.229-11.504,4.587c1.649,3.01,3.932,5.438,6.844,7.28
		c2.912,1.845,6.211,2.767,9.902,2.767c2.522,0,5.07-0.459,7.645-1.383c2.57-0.921,4.682-2.159,6.334-3.713L399.551,106.588z
		 M387.32,70.185c-1.165-2.134-2.912-3.713-5.241-4.732c-2.33-1.019-4.612-1.529-6.844-1.529c-2.621,0-5.098,0.51-7.427,1.529
		c-2.329,1.02-4.321,2.38-5.97,4.077c-1.652,1.7-2.963,3.641-3.932,5.825c-0.972,2.184-1.457,4.441-1.457,6.771v0.583
		c2.426-0.969,5.024-2.014,7.791-3.131c2.767-1.115,5.533-2.257,8.3-3.422s5.41-2.257,7.936-3.276
		C383,71.859,385.282,70.963,387.32,70.185z"/>
	<path style="fill:#FFFFFF;" d="M468.572,106.588c-3.01,2.719-6.65,4.855-10.921,6.407c-4.272,1.552-8.641,2.33-13.104,2.33
		c-4.564,0-8.86-0.851-12.887-2.548c-4.029-1.697-7.524-4.027-10.484-6.99c-2.962-2.96-5.314-6.407-7.063-10.338
		c-1.747-3.932-2.621-8.129-2.621-12.595c0-4.464,0.874-8.664,2.621-12.596c1.748-3.931,4.101-7.376,7.063-10.338
		c2.96-2.96,6.407-5.29,10.339-6.989c3.931-1.697,8.081-2.548,12.449-2.548c6.989,0,13.128,2.111,18.42,6.334
		c5.29,4.223,9.051,9.781,11.285,16.672c-2.912,1.069-6.286,2.355-10.12,3.859c-3.836,1.506-7.84,3.083-12.013,4.732
		c-4.175,1.651-8.351,3.326-12.522,5.023c-4.176,1.7-8.009,3.229-11.504,4.587c1.649,3.01,3.932,5.438,6.844,7.28
		c2.912,1.845,6.211,2.767,9.901,2.767c2.523,0,5.072-0.459,7.645-1.383c2.571-0.921,4.683-2.159,6.335-3.713L468.572,106.588z
		 M456.34,70.185c-1.165-2.134-2.912-3.713-5.242-4.732c-2.329-1.019-4.611-1.529-6.844-1.529c-2.621,0-5.096,0.51-7.426,1.529
		c-2.33,1.02-4.32,2.38-5.97,4.077c-1.652,1.7-2.963,3.641-3.932,5.825c-0.972,2.184-1.456,4.441-1.456,6.771v0.583
		c2.425-0.969,5.023-2.014,7.79-3.131c2.767-1.115,5.533-2.257,8.3-3.422s5.41-2.257,7.936-3.276
		C452.02,71.859,454.302,70.963,456.34,70.185z"/>
	<path style="fill:#FFFFFF;" d="M480.658,82.853c0-4.853,0.801-9.269,2.402-13.251c1.602-3.979,3.833-7.401,6.698-10.266
		c2.862-2.862,6.211-5.096,10.047-6.698c3.834-1.602,8.031-2.403,12.596-2.403c3.105,0,5.824,0.341,8.154,1.02
		c2.329,0.68,4.318,1.506,5.97,2.475c1.649,0.972,2.985,2.016,4.005,3.131c1.019,1.117,1.819,2.063,2.402,2.839V0h13.979v113.723
		h-13.979v-4.077c0-0.484,0.048-1.019,0.146-1.602c0.096-0.583,0.146-1.02,0.146-1.311c-0.874,0.874-1.943,1.82-3.203,2.839
		c-1.263,1.019-2.767,1.966-4.515,2.839c-1.747,0.874-3.713,1.576-5.896,2.111c-2.185,0.533-4.686,0.801-7.499,0.801
		c-4.951,0-9.393-0.851-13.324-2.548s-7.232-4.027-9.901-6.99c-2.671-2.96-4.71-6.407-6.115-10.338
		C481.36,91.517,480.658,87.319,480.658,82.853z M494.636,82.562c0,2.719,0.459,5.242,1.383,7.572
		c0.922,2.33,2.232,4.346,3.932,6.043c1.697,1.7,3.713,3.035,6.043,4.004c2.33,0.972,4.9,1.456,7.718,1.456
		c2.814,0,5.41-0.484,7.79-1.456c2.378-0.969,4.416-2.33,6.115-4.077c1.697-1.747,3.008-3.786,3.932-6.116
		c0.922-2.33,1.384-4.805,1.384-7.426c0-2.621-0.462-5.071-1.384-7.353c-0.924-2.28-2.234-4.246-3.932-5.897
		c-1.699-1.649-3.737-2.96-6.115-3.932c-2.38-0.969-4.976-1.456-7.79-1.456c-2.817,0-5.388,0.462-7.718,1.383
		c-2.33,0.924-4.346,2.234-6.043,3.932c-1.699,1.7-3.01,3.69-3.932,5.97C495.095,77.49,494.636,79.941,494.636,82.562z"/>
</g>
</svg>
