
<svg xmlns="http://www.w3.org/2000/svg" width="107" height="36" viewBox="0 0 547 143" fill="#a42a21">
    <path d="M41 61l-4-9h12C51 58 54 64 56 68c2 4 4 8 5 11 1 3 2 6 3 7 1 2 1 3 2 5 0-3 1-5 2-7 1-2 2-5 3-7 1-3 3-6 4-10 2-4 4-9 7-15h14l-29 66c-2-4-3-7-5-11 -1-4-3-7-4-11s-3-7-4-11c-2-4-3-7-5-11 -3 7-6 15-9 21 -3 7-6 14-9 21L0 52h14c3 6 5 11 6 15 2 4 3 7 4 10 1 3 2 5 2 7 0 2 1 4 1 7 0-1 1-2 1-3 0-1 1-3 2-5 1-2 2-5 4-9C36 71 38 66 41 61z"></path>
    <path d="M102 28c0-3 1-5 3-6 2-2 4-2 6-2 2 0 4 1 6 2 2 2 3 4 3 6 0 3-1 5-3 6 -2 2-4 2-6 2 -2 0-4-1-6-2C103 33 102 30 102 28zM118 114h-14V52h14V114z"></path>
    <path d="M141 25h14v27h16V64h-16v49h-14V64h-10V52h10V25z"></path>
    <path d="M187 25h14v27h16V64h-16v49h-14V64h-10V52h10V25z"></path>
    <path d="M245 143h-14c1-3 3-6 4-8 1-3 3-5 4-8 1-3 3-6 4-9 1-3 3-6 5-9 -2-4-5-9-7-14 -2-5-5-10-7-15 -2-5-5-10-7-15 -2-5-5-9-7-14h15c4 7 7 13 9 18 2 5 4 9 6 12 1 3 3 6 3 8 1 2 1 4 2 6 1-2 1-4 2-6 1-2 2-5 3-8 1-3 3-7 6-12 2-5 5-11 9-18h15L245 143z"></path>
    <path d="M293 65V52h11V39c0-13 3-23 9-29 6-6 15-9 26-10v13c-8 0-13 3-16 7 -3 4-5 11-5 19v13h19v14H318v48h-14V65H293z"></path>
    <path d="M400 107c-3 3-7 5-11 6 -4 2-9 2-13 2 -5 0-9-1-13-3 -4-2-8-4-10-7 -3-3-5-6-7-10 -2-4-3-8-3-13 0-4 1-9 3-13 2-4 4-7 7-10 3-3 6-5 10-7 4-2 8-3 12-3 7 0 13 2 18 6 5 4 9 10 11 17 -3 1-6 2-10 4 -4 2-8 3-12 5 -4 2-8 3-13 5 -4 2-8 3-12 5 2 3 4 5 7 7 3 2 6 3 10 3 3 0 5 0 8-1 3-1 5-2 6-4L400 107zM387 70c-1-2-3-4-5-5 -2-1-5-2-7-2 -3 0-5 1-7 2 -2 1-4 2-6 4 -2 2-3 4-4 6 -1 2-1 4-1 7v1c2-1 5-2 8-3 3-1 6-2 8-3s5-2 8-3C383 72 385 71 387 70z"></path>
    <path d="M469 107c-3 3-7 5-11 6 -4 2-9 2-13 2 -5 0-9-1-13-3 -4-2-8-4-10-7 -3-3-5-6-7-10 -2-4-3-8-3-13 0-4 1-9 3-13 2-4 4-7 7-10 3-3 6-5 10-7 4-2 8-3 12-3 7 0 13 2 18 6 5 4 9 10 11 17 -3 1-6 2-10 4 -4 2-8 3-12 5 -4 2-8 3-13 5 -4 2-8 3-12 5 2 3 4 5 7 7 3 2 6 3 10 3 3 0 5 0 8-1 3-1 5-2 6-4L469 107zM456 70c-1-2-3-4-5-5 -2-1-5-2-7-2 -3 0-5 1-7 2 -2 1-4 2-6 4 -2 2-3 4-4 6 -1 2-1 4-1 7v1c2-1 5-2 8-3 3-1 6-2 8-3s5-2 8-3C452 72 454 71 456 70z"></path>
    <path d="M481 83c0-5 1-9 2-13 2-4 4-7 7-10 3-3 6-5 10-7 4-2 8-2 13-2 3 0 6 0 8 1 2 1 4 2 6 2 2 1 3 2 4 3 1 1 2 2 2 3V0h14v114h-14v-4c0 0 0-1 0-2 0-1 0-1 0-1 -1 1-2 2-3 3 -1 1-3 2-5 3 -2 1-4 2-6 2 -2 1-5 1-7 1 -5 0-9-1-13-3s-7-4-10-7c-3-3-5-6-6-10C481 92 481 87 481 83zM495 83c0 3 0 5 1 8 1 2 2 4 4 6 2 2 4 3 6 4 2 1 5 1 8 1 3 0 5 0 8-1 2-1 4-2 6-4 2-2 3-4 4-6 1-2 1-5 1-7 0-3 0-5-1-7 -1-2-2-4-4-6 -2-2-4-3-6-4 -2-1-5-1-8-1 -3 0-5 0-8 1 -2 1-4 2-6 4 -2 2-3 4-4 6C495 77 495 80 495 83z"></path>
</svg>
