<svg xmlns="http://www.w3.org/2000/svg" width="17" height="20"><path d="M16.066 2.434a3.07 3.07 0 0 0-2.253-.934H3.187a3.071 3.071 0 0 0-2.253.935A3.071 3.071 0 0 0 0 4.687v10.626a3.071 3.071 0 0 0 .935 2.253 3.071 3.071 0 0 0 2.252.934h10.626A3.194 3.194 0 0 0 17 15.313V4.687a3.071 3.071 0 0 0-.934-2.253zm-6.027 1.522h.741v3.011a1.677 1.677 0 0 0 .011.288.163.163 0 0 0 .177.177.646.646 0 0 0 .465-.343V3.956h.742v4.1h-.742v-.447a1.237 1.237 0 0 1-.852.5.467.467 0 0 1-.476-.3 2.067 2.067 0 0 1-.066-.609V3.956zm-2.8 1.328a1.64 1.64 0 0 1 .232-.963.994.994 0 0 1 .863-.421 1.03 1.03 0 0 1 .863.421 1.64 1.64 0 0 1 .232.963v1.439a1.579 1.579 0 0 1-.232.963 1.03 1.03 0 0 1-.863.421.994.994 0 0 1-.863-.421 1.64 1.64 0 0 1-.232-.963V5.284zM5.246 2.55l.586 2.159L6.4 2.55h.83l-1 3.277v2.225h-.818V5.827A15.2 15.2 0 0 0 4.9 4.078l-.252-.764-.266-.764h.864zm9.121 13.361a1.555 1.555 0 0 1-.471.808 1.45 1.45 0 0 1-.835.388q-1.516.166-4.56.166t-4.561-.166a1.452 1.452 0 0 1-.84-.388 1.556 1.556 0 0 1-.47-.808 13.569 13.569 0 0 1-.221-2.878 13.854 13.854 0 0 1 .221-2.878 1.53 1.53 0 0 1 .47-.814 1.477 1.477 0 0 1 .847-.382A45.32 45.32 0 0 1 8.5 8.793a45.516 45.516 0 0 1 4.56.166 1.493 1.493 0 0 1 .841.382 1.514 1.514 0 0 1 .476.814 14.175 14.175 0 0 1 .21 2.878 13.572 13.572 0 0 1-.22 2.878zM3.32 10.985h.863v4.682H5v-4.682h.888v-.775H3.32v.775zM7.371 14.7a.647.647 0 0 1-.465.343.153.153 0 0 1-.166-.166 1.664 1.664 0 0 1-.011-.288V11.6H6v3.21a1.881 1.881 0 0 0 .066.6.435.435 0 0 0 .465.31 1.177 1.177 0 0 0 .841-.5v.443h.741v-4.058h-.742v3.1zm2.867-3.155a.984.984 0 0 0-.753.443V10.21h-.741v5.457h.741v-.4a1 1 0 0 0 .753.454.567.567 0 0 0 .587-.465 2.884 2.884 0 0 0 .075-.806v-1.616a2.949 2.949 0 0 0-.078-.819.567.567 0 0 0-.584-.465zm-.067 2.955q0 .542-.321.543a.52.52 0 0 1-.365-.177v-2.475a.52.52 0 0 1 .365-.177q.321 0 .321.553v1.738zm2.757 0q0 .116-.005.183c0 .044-.006.07-.006.077a.321.321 0 0 1-.332.288q-.376 0-.376-.565v-.72h1.471v-.841a1.586 1.586 0 0 0-.232-.952.994.994 0 0 0-.864-.421 1.053 1.053 0 0 0-.886.421 1.618 1.618 0 0 0-.221.952v1.428a1.557 1.557 0 0 0 .232.952 1.064 1.064 0 0 0 .9.421 1 1 0 0 0 .886-.443 1.041 1.041 0 0 0 .166-.443 3.7 3.7 0 0 0 .022-.476v-.1h-.755v.239zm-.719-1.721q0-.564.365-.564t.365.564v.377h-.73v-.378zM8.334 7.432q.354 0 .354-.564V5.14q0-.575-.354-.576t-.354.576v1.727q0 .565.354.565z" fill="#fff" fill-rule="evenodd"/></svg>