<?xml version="1.0" encoding="iso-8859-1"?>
<!-- Generator: Adobe Illustrator 16.0.0, SVG Export Plug-In . SVG Version: 6.00 Build 0)  -->
<!DOCTYPE svg PUBLIC "-//W3C//DTD SVG 1.1//EN" "http://www.w3.org/Graphics/SVG/1.1/DTD/svg11.dtd">
<svg version="1.1" id="Layer_1" xmlns="http://www.w3.org/2000/svg" xmlns:xlink="http://www.w3.org/1999/xlink" x="0px" y="0px"
	 width="614.4px" height="228px" viewBox="0 0 614.4 228" style="enable-background:new 0 0 614.4 228;" xml:space="preserve">
<path style="fill-rule:evenodd;clip-rule:evenodd;fill:#FFFFFF;" d="M606.337,124.399v36.085h-8.675v-12.728
	c-6.644,7.785-16.517,12.728-27.549,12.728c-20.009,0-36.229-16.233-36.229-36.257c0-20.025,16.22-36.081,36.229-36.081
	c11.032,0,20.905,4.766,27.549,12.55V19.548h8.675v104.505c0,0.057,0.004,0.115,0.004,0.174
	C606.341,124.285,606.337,124.342,606.337,124.399 M596.4,123.225c-0.892-14.101-12.592-25.265-26.904-25.265
	c-14.892,0-26.964,12.086-26.964,26.992c0,14.909,12.072,26.994,26.964,26.994c14.313,0,26.013-11.163,26.904-25.265V123.225z
	 M529.454,61.709l7.517,2.781l-5.011,13.563l-68.341-25.294l5.012-13.564l7.162,2.651l8.327-22.694
	c0.569-1.552,2.174-2.388,3.588-1.869l48.59,17.859c1.413,0.52,2.095,2.199,1.526,3.749L529.454,61.709z M467.109,103.406
	l0.004,0.007l-42.161,15.815c3.347,6.09,9.816,10.219,17.25,10.219c5.332,0,10.164-2.128,13.709-5.578l4.471,5.37
	c-4.761,4.452-11.151,7.182-18.18,7.182c-14.722,0-26.653-11.943-26.653-26.675s11.932-26.674,26.653-26.674
	c12.414,0,22.85,8.499,25.808,20.001L467.109,103.406z M442.202,90.045c-10.869,0-19.678,8.82-19.678,19.7
	c0,1.174,0.109,2.319,0.306,3.438l36.197-13.64C455.579,93.85,449.336,90.045,442.202,90.045 M501.242,129.943
	c5.38,0,10.26-2.139,13.845-5.61l4.087,4.906c-4.763,4.451-11.153,7.181-18.184,7.181c-14.717,0-26.648-11.943-26.648-26.675
	s11.932-26.674,26.648-26.674c12.418,0,22.851,8.499,25.812,20.001l-0.902,0.333l0.002,0.007l-42.296,15.868
	C486.943,125.619,493.584,129.943,501.242,129.943 M518.38,99.829c-3.471-5.854-9.844-9.784-17.138-9.784
	c-11.006,0-19.928,8.933-19.928,19.951c0,1.254,0.122,2.479,0.342,3.671L518.38,99.829z M456.897,146.398
	c11.361,0,14.947,8.477,14.947,8.477s3.584-8.477,14.946-8.477c11.361,0,14.133,15.261,20.925,20.445
	c8.346,6.368,19.218,8.374,39.858,5.483c0,0-16.616,13.876-37.368,12.968c-1.285-0.059-1.986-0.176-5.098-0.709
	c-2.988,14.604-16.63,25.642-33.013,25.642c-16.419,0-30.079-11.077-33.031-25.727c-3.386,0.602-4.174,0.732-5.583,0.794
	c-20.75,0.908-37.366-12.968-37.366-12.968c20.638,2.891,31.512,0.885,39.858-5.483
	C442.766,161.659,445.536,146.398,456.897,146.398 M472.096,203.745c14,0,25.773-8.454,29.158-19.908
	c-9.166-1.985-22.954-6.447-29.409-15.996c-6.346,9.388-19.783,13.861-28.941,15.895C446.25,195.242,458.05,203.745,472.096,203.745
	 M383.159,63.122c0,0.653,0.003,1.995,0.003,1.995l0.005,23.03h24.411l-0.004,8.385h-24.412v9.972v53.981h-8.469V96.531h-11.46
	l0.01-8.385h11.46l-0.01-23.529c0,0-0.006-0.848-0.006-1.247c0-20.819,16.666-37.73,37.371-38.13v8.476
	C396.055,33.983,383.159,47.042,383.159,63.122 M283.021,207.733l26.928-50.454l-33.406-69.155h9.467l28.473,60.663l32.105-60.641
	h9.465l-63.067,119.587H283.021z M251.133,160.484h-8.468V96.531h-14.947v-8.478h14.947V45.667h8.468v42.386h20.925v8.478h-20.925
	v62.833V160.484z M199.32,160.484h-8.47V96.531h-14.946v-8.478h14.946V45.667h8.47v42.386h20.924v8.478H199.32v62.833V160.484z
	 M152.738,70.596c-3.164,0-5.728-2.567-5.728-5.733c0-3.166,2.564-5.733,5.728-5.733c3.162,0,5.726,2.567,5.726,5.733
	C158.463,68.028,155.9,70.596,152.738,70.596 M91.938,159.014l-0.777,1.471l-22.979-48.833l-24.547,46.404l-0.008-0.012
	l-1.292,2.441L7.008,88.146h9.466l26.238,53.882l20.791-40.076l-6.606-13.806h9.466l25.217,53.968l28.457-53.968h9.466
	L91.938,159.014z M157.469,160.484h-8.47V88.146h8.47v71.218V160.484z"/>
</svg>
