<svg xmlns="http://www.w3.org/2000/svg" width="24" height="24" viewBox="0 0 24 24">
  <metadata><?xpacket begin="﻿" id="W5M0MpCehiHzreSzNTczkc9d"?>
<x:xmpmeta xmlns:x="adobe:ns:meta/" x:xmptk="Adobe XMP Core 5.6-c138 79.159824, 2016/09/14-01:09:01        ">
   <rdf:RDF xmlns:rdf="http://www.w3.org/1999/02/22-rdf-syntax-ns#">
      <rdf:Description rdf:about=""/>
   </rdf:RDF>
</x:xmpmeta>
                                                                                                    
                                                                                                    
                                                                                                    
                                                                                                    
                                                                                                    
                                                                                                    
                                                                                                    
                                                                                                    
                                                                                                    
                                                                                                    
                                                                                                    
                                                                                                    
                                                                                                    
                                                                                                    
                                                                                                    
                                                                                                    
                                                                                                    
                                                                                                    
                                                                                                    
                                                                                                    
                           
<?xpacket end="w"?></metadata>
<defs>
    <style>
      .cls-1 {
        fill: #fff;
        fill-rule: evenodd;
      }
    </style>
  </defs>
  <path id="appetizer" class="cls-1" d="M3.517,24a3.536,3.536,0,0,0,3.114-1.825,4.013,4.013,0,0,1-1.236-1.913,4.282,4.282,0,0,1-.9.1A4.2,4.2,0,0,1,.892,18.342,3.322,3.322,0,0,0,0,20.6,3.465,3.465,0,0,0,3.517,24ZM1.24,17.609a3.231,3.231,0,0,0,.141.292A3.536,3.536,0,0,0,4.5,19.73a3.627,3.627,0,0,0,.769-0.084,3.932,3.932,0,0,1-.031-0.471,3.875,3.875,0,0,1,.26-1.387c0.039-.1.08-0.2,0.127-0.3s0.093-.189.146-0.28A4.1,4.1,0,0,1,6.74,16.08a4.152,4.152,0,0,1-3.765-2.812A3.4,3.4,0,0,0,.98,16.329a3.294,3.294,0,0,0,.148.971C1.161,17.406,1.2,17.508,1.24,17.609Zm7.4-.862a3.921,3.921,0,0,1-.32-0.807h0Q8.158,15.992,8,16.058A3.491,3.491,0,0,0,6.291,17.6a3.157,3.157,0,0,0-.143.3,3.23,3.23,0,0,0-.118.328,3.29,3.29,0,0,0-.143.953c0,0.092.007,0.182,0.014,0.271,0.009,0.11.024,0.218,0.043,0.324a3.159,3.159,0,0,0,.072.308,3.432,3.432,0,0,0,1.139,1.709c0.087,0.07.177,0.136,0.271,0.2a3.581,3.581,0,0,0,1.979.591,3.465,3.465,0,0,0,3.518-3.4c0-.095-0.007-0.187-0.015-0.28a4.357,4.357,0,0,1-.559.041A4.189,4.189,0,0,1,8.645,16.747Zm-5.14-4c0.022,0.1.05,0.2,0.081,0.3a3.511,3.511,0,0,0,3.366,2.413,3.6,3.6,0,0,0,.912-0.12c0.105-.027.209-0.059,0.31-0.1L8.2,15.236c-0.009-.109-0.017-0.219-0.017-0.331a3.929,3.929,0,0,1,1.265-2.887,3.918,3.918,0,0,1-.757-1.994,4.249,4.249,0,0,1-4.185-.4,3.336,3.336,0,0,0-1.07,2.438,3.277,3.277,0,0,0,.022.372C3.467,12.536,3.483,12.641,3.5,12.743Zm9.925,5.4a3.536,3.536,0,0,0,1.647-1.093,3.972,3.972,0,0,1-1.5-3.092c0-.1.008-0.206,0.016-0.308a4.312,4.312,0,0,1-.754.07,4.258,4.258,0,0,1-1.91-.452c-0.1-.05-0.2-0.1-0.291-0.162s-0.193-.122-0.285-0.189A4.122,4.122,0,0,1,9.862,12.5a3.335,3.335,0,0,0-1.031,2.4c0,0.008,0,.016,0,0.024,0,0.086.006,0.171,0.013,0.256,0,0.033,0,.067.009,0.1,0.008,0.071.021,0.141,0.033,0.211,0.007,0.039.013,0.079,0.022,0.119,0.014,0.064.033,0.126,0.05,0.188a3.5,3.5,0,0,0,3.39,2.5,3.648,3.648,0,0,0,.446-0.031c0.109-.013.216-0.03,0.322-0.053S13.327,18.173,13.43,18.142ZM4.75,9.016q0.135,0.105.281,0.2A3.6,3.6,0,0,0,8.69,9.32c0.007-.067.017-0.133,0.027-0.2,0.017-.112.036-0.223,0.062-0.332s0.05-.208.083-0.309A4.06,4.06,0,0,1,10.47,6.375s0-.006,0-0.009a3.466,3.466,0,0,0-3.518-3.4,3.465,3.465,0,0,0-3.518,3.4A3.337,3.337,0,0,0,4.5,8.8C4.582,8.878,4.664,8.949,4.75,9.016Zm4.711-.27C9.453,8.774,9.446,8.8,9.438,8.832a3.266,3.266,0,0,0-.072.338c-0.005.032-.011,0.064-0.015,0.1-0.012.1-.019,0.193-0.023,0.292,0,0.04-.006.079-0.006,0.12,0,0,0,.006,0,0.009a3.3,3.3,0,0,0,.625,1.93c0.062,0.086.126,0.169,0.2,0.248s0.144,0.159.222,0.234c0.032,0.03.067,0.058,0.1,0.088a3.549,3.549,0,0,0,.612.436,3.58,3.58,0,0,0,1.765.464,3.637,3.637,0,0,0,.867-0.108,3.952,3.952,0,0,1,.416-1.008c0.054-.091.109-0.182,0.169-0.27s0.127-.169.195-0.251a4.184,4.184,0,0,1,1.831-1.277,3.251,3.251,0,0,0-.937-2.834c0.044-.107.085-0.215,0.134-0.319s0.1-.2.147-0.292c1.28-2.486,3.776-3.975,6.4-5.037,1.017-.41.571-2.034-0.461-1.617-3.1,1.254-5.882,2.948-7.424,5.8-0.05.092-.1,0.189-0.143,0.283s-0.1.187-.142,0.285a3.606,3.606,0,0,0-2.795.291,3.72,3.72,0,0,0-.771.573A3.384,3.384,0,0,0,9.461,8.746Zm5.982,7.777c0.083,0.07.169,0.135,0.258,0.2s0.179,0.117.272,0.17a3.578,3.578,0,0,0,1.773.468,3.4,3.4,0,1,0,0-6.8,3.7,3.7,0,0,0-1.231.219,3.47,3.47,0,0,0-1.5,1.039c-0.068.081-.133,0.165-0.194,0.252s-0.12.181-.172,0.275a3.338,3.338,0,0,0-.308.767,3.208,3.208,0,0,0-.075.361,3.315,3.315,0,0,0-.04.488A3.348,3.348,0,0,0,15.443,16.523ZM24,8.991s-2.69-7.648-5.9-3.859S21.763,10.459,24,8.991Z"/>
</svg>
