<svg xmlns="http://www.w3.org/2000/svg" width="24" height="24" viewBox="0 0 24 24">
  <metadata><?xpacket begin="﻿" id="W5M0MpCehiHzreSzNTczkc9d"?>
<x:xmpmeta xmlns:x="adobe:ns:meta/" x:xmptk="Adobe XMP Core 5.6-c138 79.159824, 2016/09/14-01:09:01        ">
   <rdf:RDF xmlns:rdf="http://www.w3.org/1999/02/22-rdf-syntax-ns#">
      <rdf:Description rdf:about=""/>
   </rdf:RDF>
</x:xmpmeta>
                                                                                                    
                                                                                                    
                                                                                                    
                                                                                                    
                                                                                                    
                                                                                                    
                                                                                                    
                                                                                                    
                                                                                                    
                                                                                                    
                                                                                                    
                                                                                                    
                                                                                                    
                                                                                                    
                                                                                                    
                                                                                                    
                                                                                                    
                                                                                                    
                                                                                                    
                                                                                                    
                           
<?xpacket end="w"?></metadata>
<defs>
    <style>
      .cls-1 {
        fill: #fff;
        fill-rule: evenodd;
      }
    </style>
  </defs>
  <path id="bakery" class="cls-1" d="M16.1,15.433a8.854,8.854,0,0,1-7.34-.655,5.658,5.658,0,0,1-3.82,1.507A5.537,5.537,0,0,1,3.53,16.1l1.4,7.9h14.2l1.3-7.34a5.089,5.089,0,0,1-.9.086A5.144,5.144,0,0,1,16.1,15.433Zm-6.87,7.111a0.434,0.434,0,0,1-.063,0,0.443,0.443,0,0,1-.431-0.392L8.186,18.2a0.455,0.455,0,0,1,.37-0.518,0.443,0.443,0,0,1,.494.387L9.6,22.026A0.455,0.455,0,0,1,9.227,22.544Zm3.592-.432a0.437,0.437,0,1,1-.873,0v-4a0.437,0.437,0,1,1,.873,0v4Zm3.213,0.045a0.435,0.435,0,0,1-.494.387,0.455,0.455,0,0,1-.369-0.518l0.547-3.958a0.443,0.443,0,0,1,.494-0.387,0.455,0.455,0,0,1,.369.518ZM2.874,14.894c0.079,0.038.16,0.075,0.241,0.11s0.158,0.063.238,0.091a4.706,4.706,0,0,0,1.584.277,4.828,4.828,0,0,0,3.688-1.741,8.009,8.009,0,0,0,7.673.749,4.366,4.366,0,0,0,3.23,1.449,4.277,4.277,0,0,0,1.07-.141c0.078-.02.156-0.038,0.233-0.062s0.159-.057.237-0.088A4.676,4.676,0,0,0,24,11.145a4.667,4.667,0,0,0-3.116-4.463A7.693,7.693,0,0,0,13.141.005a7.774,7.774,0,0,0-7.379,5.1,4.728,4.728,0,0,0-.825-0.078A5.057,5.057,0,0,0,0,10.2,5.185,5.185,0,0,0,2.874,14.894Z"/>
</svg>
