<svg xmlns="http://www.w3.org/2000/svg" xmlns:xlink="http://www.w3.org/1999/xlink" width="24" height="24" viewBox="0 0 24 24">
  <metadata><?xpacket begin="﻿" id="W5M0MpCehiHzreSzNTczkc9d"?>
<x:xmpmeta xmlns:x="adobe:ns:meta/" x:xmptk="Adobe XMP Core 5.6-c138 79.159824, 2016/09/14-01:09:01        ">
   <rdf:RDF xmlns:rdf="http://www.w3.org/1999/02/22-rdf-syntax-ns#">
      <rdf:Description rdf:about=""/>
   </rdf:RDF>
</x:xmpmeta>
                                                                                                    
                                                                                                    
                                                                                                    
                                                                                                    
                                                                                                    
                                                                                                    
                                                                                                    
                                                                                                    
                                                                                                    
                                                                                                    
                                                                                                    
                                                                                                    
                                                                                                    
                                                                                                    
                                                                                                    
                                                                                                    
                                                                                                    
                                                                                                    
                                                                                                    
                                                                                                    
                           
<?xpacket end="w"?></metadata>
<defs>
    <style>
      .cls-1 {
        fill: #fff;
        fill-rule: evenodd;
      }
    </style>
    <clipPath id="clip-path">
      <rect x="-0.5" y="0.016" width="24" height="24"/>
    </clipPath>
  </defs>
  <g clip-path="url(#clip-path)">
    <path id="dessert" class="cls-1" d="M23.125,11.36A12.233,12.233,0,0,0,21.52,8.119a2.952,2.952,0,0,0-2.511-1.168L18.786,7a5.02,5.02,0,0,1,.05.708,4.94,4.94,0,0,1-1.421,3.477,4.83,4.83,0,0,1-1.542,1.053,4.8,4.8,0,0,1-3.778,0,4.833,4.833,0,0,1-1.542-1.053A4.9,4.9,0,0,1,9.515,9.623q-0.09-.216-0.159-0.438c-3.812.886-7.347,1.71-7.553,1.758a2.383,2.383,0,0,0-.567.157A0.422,0.422,0,0,0,1,11.5v9.645a0.917,0.917,0,0,0,.885.782L5.422,22.3l15.911,1.678c1.463,0.154,2.651-.645,2.651-1.786a2.28,2.28,0,0,0-1.19-1.849,1.749,1.749,0,0,0,1.19-1.6A2.278,2.278,0,0,0,22.8,16.9C24.911,16.03,23.716,12.919,23.125,11.36ZM18.467,22.111l-15.6-1.646v-1.58l15.6,1.645c1.463,0.155,2.651.633,2.651,1.069S19.93,22.266,18.467,22.111Zm0-3.149-15.6-1.646V15.734l15.6,1.647c1.463,0.155,2.651.633,2.651,1.069S19.93,19.116,18.467,18.962Zm0-3.149-15.6-1.645V12.586l15.6,1.645c1.463,0.155,2.651.634,2.651,1.07S19.93,15.967,18.467,15.812Zm-7.837-8.1a3.436,3.436,0,0,0,.192,1.136,3.35,3.35,0,0,0,6.519-1.136,3.481,3.481,0,0,0-.02-0.372,3.373,3.373,0,0,0-3.336-3.03,3.336,3.336,0,0,0-.519.041c-0.115-.238-0.242-0.471-0.379-0.7S12.8,3.2,12.645,2.982c-0.19-.266-0.39-0.522-0.6-0.768A10.156,10.156,0,0,0,10.8.938,5.689,5.689,0,0,0,9.5.065a0.55,0.55,0,0,0-.741.2,0.554,0.554,0,0,0,.194.751,4.094,4.094,0,0,1,.639.365C9.646,1.417,9.7,1.458,9.762,1.5L9.877,1.588c0.087,0.069.172,0.14,0.256,0.213q0.33,0.289.634,0.608c0.213,0.223.418,0.455,0.612,0.7q0.083,0.1.163,0.207h0l0.006,0.009,0.068,0.091,0,0c0.088,0.12.174,0.242,0.258,0.366q0.087,0.13.17,0.262c0.108,0.172.212,0.347,0.308,0.527L12.422,4.7A3.406,3.406,0,0,0,10.629,7.708Z" transform="translate(-0.5 0.016)"/>
  </g>
</svg>
