<?xml version="1.0" encoding="iso-8859-1"?>
<!-- Generator: Adobe Illustrator 16.0.0, SVG Export Plug-In . SVG Version: 6.00 Build 0)  -->
<!DOCTYPE svg PUBLIC "-//W3C//DTD SVG 1.1//EN" "http://www.w3.org/Graphics/SVG/1.1/DTD/svg11.dtd">
<svg version="1.1" id="Layer_1" xmlns="http://www.w3.org/2000/svg" xmlns:xlink="http://www.w3.org/1999/xlink" x="0px" y="0px"
	 width="418.342px" height="4.614px" viewBox="0 0 418.342 4.614" style="enable-background:new 0 0 418.342 4.614;"
	 xml:space="preserve">
<g>
	<path style="fill:#2e79b2;" d="M133.088,4.614h-0.124c-1.274,0-2.308-1.033-2.308-2.308c0-1.273,1.033-2.307,2.308-2.307
		s2.368,1.034,2.368,2.307C135.332,3.581,134.361,4.614,133.088,4.614z M122.199,4.614h-0.123c-1.275,0-2.307-1.033-2.307-2.308
		c0-1.273,1.031-2.307,2.307-2.307c1.273,0,2.368,1.034,2.368,2.307C124.444,3.581,123.473,4.614,122.199,4.614z M111.311,4.614
		h-0.123c-1.274,0-2.307-1.033-2.307-2.308c0-1.273,1.032-2.307,2.307-2.307s2.368,1.034,2.368,2.307
		C113.556,3.581,112.585,4.614,111.311,4.614z M100.422,4.614H100.3c-1.274,0-2.307-1.033-2.307-2.308
		C97.993,1.034,99.025,0,100.3,0s2.368,1.034,2.368,2.307C102.668,3.581,101.697,4.614,100.422,4.614z M89.535,4.614h-0.123
		c-1.274,0-2.307-1.033-2.307-2.308C87.105,1.034,88.138,0,89.412,0c1.273,0,2.367,1.034,2.367,2.307
		C91.779,3.581,90.809,4.614,89.535,4.614z M78.646,4.614h-0.123c-1.274,0-2.307-1.033-2.307-2.308C76.217,1.034,77.249,0,78.523,0
		s2.369,1.034,2.369,2.307C80.893,3.581,79.921,4.614,78.646,4.614z M67.758,4.614h-0.123c-1.273,0-2.307-1.033-2.307-2.308
		C65.328,1.034,66.361,0,67.635,0c1.275,0,2.369,1.034,2.369,2.307C70.004,3.581,69.033,4.614,67.758,4.614z M56.87,4.614h-0.123
		c-1.274,0-2.307-1.033-2.307-2.308C54.44,1.034,55.473,0,56.747,0s2.368,1.034,2.368,2.307C59.115,3.581,58.145,4.614,56.87,4.614z
		 M45.982,4.614h-0.123c-1.274,0-2.307-1.033-2.307-2.308C43.552,1.034,44.584,0,45.859,0s2.368,1.034,2.368,2.307
		C48.227,3.581,47.256,4.614,45.982,4.614z M35.094,4.614h-0.122c-1.274,0-2.307-1.033-2.307-2.308C32.665,1.034,33.697,0,34.972,0
		s2.368,1.034,2.368,2.307C37.34,3.581,36.368,4.614,35.094,4.614z M24.207,4.614h-0.124c-1.274,0-2.307-1.033-2.307-2.308
		C21.776,1.034,22.809,0,24.083,0s2.368,1.034,2.368,2.307C26.451,3.581,25.48,4.614,24.207,4.614z M13.318,4.614h-0.123
		c-1.274,0-2.307-1.033-2.307-2.308C10.888,1.034,11.921,0,13.195,0s2.368,1.034,2.368,2.307
		C15.563,3.581,14.593,4.614,13.318,4.614z M2.43,4.614H2.307C1.032,4.614,0,3.581,0,2.307C0,1.034,1.032,0,2.307,0
		s2.368,1.034,2.368,2.307C4.675,3.581,3.704,4.614,2.43,4.614z"/>
</g>
<g>
	<path style="fill:#2e79b2;" d="M274.42,4.614h-0.125c-1.273,0-2.307-1.033-2.307-2.308c0-1.273,1.033-2.307,2.307-2.307
		c1.275,0,2.369,1.034,2.369,2.307C276.664,3.581,275.693,4.614,274.42,4.614z M263.531,4.614h-0.123
		c-1.275,0-2.307-1.033-2.307-2.308c0-1.273,1.031-2.307,2.307-2.307c1.273,0,2.367,1.034,2.367,2.307
		C265.775,3.581,264.805,4.614,263.531,4.614z M252.643,4.614h-0.123c-1.275,0-2.307-1.033-2.307-2.308
		c0-1.273,1.031-2.307,2.307-2.307c1.273,0,2.367,1.034,2.367,2.307C254.887,3.581,253.916,4.614,252.643,4.614z M241.754,4.614
		h-0.123c-1.273,0-2.307-1.033-2.307-2.308c0-1.273,1.033-2.307,2.307-2.307C242.906,0,244,1.034,244,2.307
		C244,3.581,243.029,4.614,241.754,4.614z M230.867,4.614h-0.123c-1.275,0-2.307-1.033-2.307-2.308c0-1.273,1.031-2.307,2.307-2.307
		c1.273,0,2.367,1.034,2.367,2.307C233.111,3.581,232.141,4.614,230.867,4.614z M219.979,4.614h-0.123
		c-1.275,0-2.307-1.033-2.307-2.308c0-1.273,1.031-2.307,2.307-2.307c1.273,0,2.369,1.034,2.369,2.307
		C222.225,3.581,221.252,4.614,219.979,4.614z M209.09,4.614h-0.123c-1.273,0-2.307-1.033-2.307-2.308
		c0-1.273,1.033-2.307,2.307-2.307c1.275,0,2.369,1.034,2.369,2.307C211.336,3.581,210.365,4.614,209.09,4.614z M198.201,4.614
		h-0.123c-1.273,0-2.307-1.033-2.307-2.308c0-1.273,1.033-2.307,2.307-2.307c1.275,0,2.369,1.034,2.369,2.307
		C200.447,3.581,199.477,4.614,198.201,4.614z M187.313,4.614h-0.123c-1.274,0-2.308-1.033-2.308-2.308
		c0-1.273,1.033-2.307,2.308-2.307s2.368,1.034,2.368,2.307C189.559,3.581,188.588,4.614,187.313,4.614z M176.426,4.614h-0.123
		c-1.273,0-2.307-1.033-2.307-2.308c0-1.273,1.033-2.307,2.307-2.307c1.275,0,2.369,1.034,2.369,2.307
		C178.672,3.581,177.699,4.614,176.426,4.614z M165.538,4.614h-0.124c-1.273,0-2.307-1.033-2.307-2.308
		c0-1.273,1.033-2.307,2.307-2.307c1.275,0,2.369,1.034,2.369,2.307C167.783,3.581,166.813,4.614,165.538,4.614z M154.65,4.614
		h-0.123c-1.275,0-2.308-1.033-2.308-2.308c0-1.273,1.032-2.307,2.308-2.307c1.273,0,2.367,1.034,2.367,2.307
		C156.895,3.581,155.924,4.614,154.65,4.614z M143.762,4.614h-0.123c-1.275,0-2.307-1.033-2.307-2.308
		c0-1.273,1.031-2.307,2.307-2.307c1.273,0,2.367,1.034,2.367,2.307C146.006,3.581,145.035,4.614,143.762,4.614z"/>
</g>
<g>
	<path style="fill:#2e79b2;" d="M416.098,4.614h-0.125c-1.273,0-2.307-1.033-2.307-2.308c0-1.273,1.033-2.307,2.307-2.307
		c1.275,0,2.369,1.034,2.369,2.307C418.342,3.581,417.371,4.614,416.098,4.614z M405.209,4.614h-0.123
		c-1.275,0-2.307-1.033-2.307-2.308c0-1.273,1.031-2.307,2.307-2.307c1.273,0,2.367,1.034,2.367,2.307
		C407.453,3.581,406.482,4.614,405.209,4.614z M394.32,4.614h-0.123c-1.275,0-2.307-1.033-2.307-2.308
		c0-1.273,1.031-2.307,2.307-2.307c1.273,0,2.367,1.034,2.367,2.307C396.564,3.581,395.594,4.614,394.32,4.614z M383.432,4.614
		h-0.123c-1.273,0-2.307-1.033-2.307-2.308c0-1.273,1.033-2.307,2.307-2.307c1.275,0,2.369,1.034,2.369,2.307
		C385.678,3.581,384.707,4.614,383.432,4.614z M372.545,4.614h-0.123c-1.275,0-2.307-1.033-2.307-2.308
		c0-1.273,1.031-2.307,2.307-2.307c1.273,0,2.367,1.034,2.367,2.307C374.789,3.581,373.818,4.614,372.545,4.614z M361.656,4.614
		h-0.123c-1.275,0-2.307-1.033-2.307-2.308c0-1.273,1.031-2.307,2.307-2.307c1.273,0,2.369,1.034,2.369,2.307
		C363.902,3.581,362.93,4.614,361.656,4.614z M350.768,4.614h-0.123c-1.273,0-2.307-1.033-2.307-2.308
		c0-1.273,1.033-2.307,2.307-2.307c1.275,0,2.369,1.034,2.369,2.307C353.014,3.581,352.043,4.614,350.768,4.614z M339.879,4.614
		h-0.123c-1.273,0-2.307-1.033-2.307-2.308c0-1.273,1.033-2.307,2.307-2.307c1.275,0,2.369,1.034,2.369,2.307
		C342.125,3.581,341.154,4.614,339.879,4.614z M328.991,4.614h-0.123c-1.274,0-2.308-1.033-2.308-2.308
		c0-1.273,1.033-2.307,2.308-2.307s2.368,1.034,2.368,2.307C331.236,3.581,330.266,4.614,328.991,4.614z M318.104,4.614h-0.123
		c-1.273,0-2.307-1.033-2.307-2.308c0-1.273,1.033-2.307,2.307-2.307c1.275,0,2.369,1.034,2.369,2.307
		C320.35,3.581,319.377,4.614,318.104,4.614z M307.216,4.614h-0.124c-1.273,0-2.307-1.033-2.307-2.308
		c0-1.273,1.033-2.307,2.307-2.307c1.275,0,2.369,1.034,2.369,2.307C309.461,3.581,308.49,4.614,307.216,4.614z M296.328,4.614
		h-0.123c-1.275,0-2.308-1.033-2.308-2.308c0-1.273,1.032-2.307,2.308-2.307c1.273,0,2.367,1.034,2.367,2.307
		C298.572,3.581,297.602,4.614,296.328,4.614z M285.439,4.614h-0.123c-1.275,0-2.307-1.033-2.307-2.308
		c0-1.273,1.031-2.307,2.307-2.307c1.273,0,2.367,1.034,2.367,2.307C287.684,3.581,286.713,4.614,285.439,4.614z"/>
</g>
</svg>
