<svg xmlns="http://www.w3.org/2000/svg" width="98.938" height="88.938" viewBox="0 0 98.938 88.938">
  <metadata><?xpacket begin="﻿" id="W5M0MpCehiHzreSzNTczkc9d"?>
<x:xmpmeta xmlns:x="adobe:ns:meta/" x:xmptk="Adobe XMP Core 5.6-c138 79.159824, 2016/09/14-01:09:01        ">
   <rdf:RDF xmlns:rdf="http://www.w3.org/1999/02/22-rdf-syntax-ns#">
      <rdf:Description rdf:about=""/>
   </rdf:RDF>
</x:xmpmeta>
                                                                                                    
                                                                                                    
                                                                                                    
                                                                                                    
                                                                                                    
                                                                                                    
                                                                                                    
                                                                                                    
                                                                                                    
                                                                                                    
                                                                                                    
                                                                                                    
                                                                                                    
                                                                                                    
                                                                                                    
                                                                                                    
                                                                                                    
                                                                                                    
                                                                                                    
                                                                                                    
                           
<?xpacket end="w"?></metadata>
<defs>
    <style>
      .cls-1 {
        fill: #fff;
        fill-rule: evenodd;
      }
    </style>
  </defs>
  <path id="foodmate" class="cls-1" d="M68.318,42.491c5.452,2.9,15.952,2.014,23.935-5.924,7.917-7.872,10.91-19.384,3.426-27.072l0,0L95.489,9.3a0,0,0,0,1,0,0C87.754,1.86,76.18,4.836,68.261,12.708c-7.983,7.939-8.878,18.38-5.958,23.8-0.752,4.438-6.877,9.253-12.368,12.38C45.7,46.29,40.357,41.7,39.8,32.466a12.6,12.6,0,0,0-3.654-10.342c-0.261-.259-1.01-0.889-1.01-0.889L14.442,5.21,12.556,7.082,35.008,28.027l-2.435,2.421L10.821,8.819l-2,1.984L30.572,32.435,28.517,34.48,6.768,12.853,4.948,14.647l21.619,21.5L24.09,38.616,3.084,16.5,1.022,18.56,18.192,40.076s0.409,0.416.582,0.57a12.743,12.743,0,0,0,8.741,3.108,0.357,0.357,0,0,1,.067.009c8.174,0.081,13.226,5.023,16.4,9.286-7.774,7.734-31.9,31.727-31.9,31.727l0.006,0.006a0.728,0.728,0,0,0-.079.063,4.984,4.984,0,0,0,0,7.076c0.1,0.1.479,0.473,0.576,0.573a5.055,5.055,0,0,0,7.116,0,0.719,0.719,0,0,0,.064-0.078l0.006,0.006s22.4-22.278,30.994-30.817L81.6,92.263l0.006-.006a0.715,0.715,0,0,0,.058.078,4.988,4.988,0,0,0,7.013-.006,4.913,4.913,0,0,0,0-6.974,0.957,0.957,0,0,1-.082-0.063l0-.006S63.579,60.4,56.636,53.489C59.771,48.409,64.207,43.178,68.318,42.491ZM65.662,27.623a25.809,25.809,0,0,1,.825-4.447c0.233-.8.509-1.622,0.843-2.454a14.162,14.162,0,0,1,1.325-2.454,17.518,17.518,0,0,1,3.729-3.838,23.767,23.767,0,0,1,3.8-2.469,17.247,17.247,0,0,1,2.956-1.266,5.7,5.7,0,0,1,1.2-.28s-0.364.274-.91,0.781-1.334,1.239-2.277,2.114a55.423,55.423,0,0,0-6.225,6.522,12.325,12.325,0,0,0-1.18,2c-0.373.7-.706,1.423-1.007,2.138-0.628,1.423-1.146,2.8-1.592,3.989s-0.779,2.2-.976,2.913a2.246,2.246,0,0,0-.158,1.143,2.168,2.168,0,0,1-.367-1.176A15.427,15.427,0,0,1,65.662,27.623Z" transform="translate(-1.031 -5.031)"/>
</svg>
