<?xml version="1.0" encoding="iso-8859-1"?>
<!-- Generator: Adobe Illustrator 19.0.0, SVG Export Plug-In . SVG Version: 6.00 Build 0)  -->
<svg xmlns="http://www.w3.org/2000/svg" xmlns:xlink="http://www.w3.org/1999/xlink" version="1.1" id="Layer_1" x="0px" y="0px" viewBox="0 0 512 512" style="enable-background:new 0 0 512 512;" xml:space="preserve" width="512px" height="512px">
<g>
	<g>
		<path d="M256,0C114.837,0,0,114.837,0,256s114.837,256,256,256s256-114.837,256-256S397.163,0,256,0z M341.333,128    C364.907,128,384,147.115,384,170.667c0,23.573-19.093,42.667-42.667,42.667c-23.573,0-42.667-19.093-42.667-42.667    C298.667,147.115,317.76,128,341.333,128z M170.667,128c23.573,0,42.667,19.115,42.667,42.667    c0,23.573-19.093,42.667-42.667,42.667c-23.573,0-42.667-19.093-42.667-42.667C128,147.115,147.093,128,170.667,128z M256,448    c-79.552,0-149.333-69.781-149.333-149.333c0-11.776,9.536-21.333,21.333-21.333h256c11.797,0,21.333,9.557,21.333,21.333    C405.333,378.219,335.552,448,256,448z" fill="#FFFFFF"/>
	</g>
</g>
<g>
</g>
<g>
</g>
<g>
</g>
<g>
</g>
<g>
</g>
<g>
</g>
<g>
</g>
<g>
</g>
<g>
</g>
<g>
</g>
<g>
</g>
<g>
</g>
<g>
</g>
<g>
</g>
<g>
</g>
</svg>
