<?xml version="1.0" encoding="utf-8"?>
<!-- Generator: Adobe Illustrator 19.2.1, SVG Export Plug-In . SVG Version: 6.00 Build 0)  -->
<svg version="1.1" id="Layer_1" xmlns="http://www.w3.org/2000/svg" xmlns:xlink="http://www.w3.org/1999/xlink" x="0px" y="0px"
	 viewBox="0 0 960 960" style="enable-background:new 0 0 960 960;" xml:space="preserve">
<style type="text/css">
	.st0{fill:#FFFFFF;}
	.st1{fill:#4C4C4D;}
	.st2{fill:#5D5E5E;}
</style>
<g>
	<circle class="st0" cx="476.4" cy="436.6" r="338"/>
	<path class="st1" d="M488.4,203.9c2.9,20.5,5.8,41.1,8.6,61.6c5,35.9,9.9,71.8,14.8,107.7c3.8,27.7,7.5,55.4,11.3,83.1
		c0.2,1.7-0.1,3.7,1.8,5.2c1.2-8,2.6-15.7,3.6-23.5c0.4-3.2,1.3-4.6,5-4.6c77.8,0.1,155.6,0.1,233.5,0.1c0.7,0,46.8,0.2,47.5,0.3
		c0,7.9-0.7,16.3-0.7,24.3c-70.6,0-186-0.3-256.6-0.5c-5.9,0-7.4,1.8-8.2,7.2c-6.9,45.4-14.1,90.8-21.3,136.3
		c-1.3,8-2.4,16-3.7,24.1c-0.2,1.5-0.1,3.3-2,4.9c-13.6-99.1-27.1-197.8-40.6-296.4c-0.4,0-0.7,0-1.1,0
		c-11.9,184.3-23.7,368.6-35.6,552.9c-0.2,0-0.5,0.1-0.7,0.1c-32.5-157.8-65-315.6-97.6-473.4c-0.3,0-0.6-0.1-0.9-0.1
		c-4.1,10.9-8.1,21.9-12.2,32.8c-4.4,11.9-4.4,11.9-17,11.9c-44.2,0-133.3-0.1-177.5-0.1c0-7.9-0.6-15.9-0.6-23.8
		c5.2-0.1,55.8-0.3,61.1-0.3c35.4,0,70.8-0.1,106.2,0.1c4.6,0,6.8-1.1,8.5-5.7c11.9-33.2,24.3-66.3,36.5-99.4c0.5-1.3,1-2.7,2.7-4.1
		c26,126.1,52,252.3,78,378.4c0.3,0,0.5,0,0.8,0c0.7-9.3,1.4-18.6,2-27.9c2.9-43.9,5.7-87.9,8.5-131.8c2.3-36.6,4.5-73.1,6.9-109.7
		c2.7-42,5.6-83.9,8.3-125.9c2-30.8,3.8-61.6,5.8-92.4c0.2-3.7-0.3-7.6,2.1-10.9C473.2,203.9,480.8,203.9,488.4,203.9z"/>
	<g>
		<g>
			<path class="st2" d="M482.1,184.6c2.9,20.5,5.8,41.1,8.6,61.6c5,35.9,9.9,71.8,14.8,107.7c3.8,27.7,7.5,55.4,11.3,83.1
				c0.2,1.7-0.1,3.7,1.8,5.2c1.2-8,2.6-15.7,3.6-23.5c0.4-3.2,1.3-4.6,5-4.6C605,414,682.8,414,760.7,414c0.7,0,52.4,0.3,53.1,0.4
				c0,7.9,0.6,16,0.6,23.9c-70.6,0-192.8,0-263.4-0.2c-5.9,0-7.4,1.8-8.2,7.2c-6.9,45.4-14.1,90.8-21.3,136.3
				c-1.3,8-2.4,16-3.7,24.1c-0.2,1.5-0.1,3.3-2,4.9c-13.6-99.1-27.1-197.8-40.6-296.4c-0.4,0-0.7,0-1.1,0
				c-11.9,184.3-23.7,368.6-35.6,552.9c-0.2,0-0.5,0.1-0.7,0.1c-32.5-157.8-65-315.6-97.6-473.4c-0.3,0-0.6-0.1-0.9-0.1
				c-4.1,10.9-8.1,21.9-12.2,32.8c-4.4,11.9-4.4,11.9-17,11.9c-44.2,0-127.5-0.1-171.8-0.1c0-7.9,0.7-16,0.7-23.9
				c5.2-0.1,48.9-0.2,54.1-0.2c35.4,0,70.8-0.1,106.2,0.1c4.6,0,6.8-1.1,8.5-5.7c11.9-33.2,24.3-66.3,36.5-99.4
				c0.5-1.3,1-2.7,2.7-4.1c26,126.1,52,252.3,78,378.4c0.3,0,0.5,0,0.8,0c0.7-9.3,1.4-18.6,2-27.9c2.9-43.9,5.7-87.9,8.5-131.8
				c2.3-36.6,4.5-73.1,6.9-109.7c2.7-42,5.6-83.9,8.3-125.9c2-30.8,3.8-61.6,5.8-92.4c0.2-3.7-0.3-7.6,2.1-10.9
				C466.9,184.6,474.5,184.6,482.1,184.6z"/>
		</g>
	</g>
</g>
</svg>
