<?xml version="1.0" encoding="iso-8859-1"?>
<!-- Generator: Adobe Illustrator 16.0.0, SVG Export Plug-In . SVG Version: 6.00 Build 0)  -->
<!DOCTYPE svg PUBLIC "-//W3C//DTD SVG 1.1//EN" "http://www.w3.org/Graphics/SVG/1.1/DTD/svg11.dtd">
<svg version="1.1" id="Layer_1" xmlns="http://www.w3.org/2000/svg" xmlns:xlink="http://www.w3.org/1999/xlink" x="0px" y="0px"
	 width="95.455px" height="148.672px" viewBox="0 0 95.455 148.672" style="enable-background:new 0 0 95.455 148.672;"
	 xml:space="preserve">
<g>
	<path style="fill:#FFFFFF;" d="M49.487,81.854c0.037,0.383,0.181,0.763,0.326,1.124c0.525,1.307,0.623,2.651,0.417,4.025
		c-0.097,0.643-0.069,1.281,0.08,1.911c0.191,0.802,0.392,0.889,1.074,0.448c6.14-3.975,11.484-8.779,16.041-14.416
		c0.522-0.646,0.272-0.928-0.337-1.137c-0.477-0.162-0.786-0.373-0.818-0.917c-0.015-0.226-0.215-0.447-0.351-0.657
		c-1.66-2.572-3.342-5.133-4.98-7.718c-0.593-0.936-1.294-1.756-2.115-2.509c-2.13-1.951-4.276-3.884-6.513-5.718
		c-0.339-0.28-0.435-0.5-0.217-0.908c1.777-3.336,3.283-6.813,5.383-9.986c0.596-0.9,0.969-1.882,1.219-2.926
		c0.572-2.385,1.188-4.76,1.785-7.14c0.169-0.673,0.311-1.342,0.86-1.871c0.241-0.232,0.483-0.653,0.007-0.92
		c-0.521-0.291-0.981-0.729-1.727-0.465c-0.43,0.152-0.971,0.079-1.448,0.012c-0.538-0.077-1.107-0.228-1.277-0.834
		c-0.184-0.655,0.258-1.023,0.744-1.371c0.336-0.24,0.814-0.375,0.897-0.848c-0.446-0.254-0.873,0.202-1.285-0.074
		c0.178-0.318,0.467-0.398,0.711-0.524c0.521-0.268,0.547-0.532,0.011-0.79c-0.667-0.322-1.35-0.615-2.02-0.932
		c-0.224-0.107-0.551-0.138-0.608-0.417c-0.245-1.195-1.039-2.347-0.307-3.63c0.146-0.255,0.262-0.78-0.075-0.795
		c-1.034-0.042-0.803-0.787-0.902-1.388c-0.652,0.716-0.91,1.443-0.46,2.298c0.051,0.097,0.067,0.212,0.094,0.32
		c0.037,0.151,0.012,0.295-0.173,0.311c-1.271,0.107-2.254,0.997-3.511,1.186c-0.899,0.137-1.787,0.413-2.645,0.72
		c-0.518,0.186-0.749,0.021-0.947-0.381c-0.197-0.399-0.396-0.798-0.594-1.197c0.033,0.861,0.68,1.51,0.674,2.362
		c0.006,0.006,0.01,0.013,0.016,0.018c0.082,0.042,0.165,0.059,0.247,0.093c0.439,0.111,0.867,0.049,1.319-0.115
		c1.263-0.456,2.508-0.964,3.813-1.303c0.638-0.166,0.637-0.17,1.233-0.042c-1.282,0.685-2.623,1.063-3.963,1.467
		c-0.833,0.252-1.619,0.312-2.403-0.007c-0.087-0.022-0.173-0.04-0.261-0.077c0-0.012-0.002-0.022-0.002-0.034
		c-0.425-0.418-0.732-1.002-1.108-1.338c-0.48-0.429-0.254-1.979-1.661-1.259c-0.07,0.037-0.273-0.167-0.411-0.263
		c-0.177-0.123-0.319-0.307-0.565-0.3c0.188,0.422,0.137,0.721-0.413,0.824c-0.478,0.088-0.94,0.26-1.42,0.327
		c-5.788,0.806-11.488,2.077-17.248,3.032c-5.11,0.848-10.201,1.826-15.417,1.88c-2.627,0.027-5.245-0.04-8.012-0.351
		c0.86-0.832,1.948-0.853,2.813-1.318c-1.088,0.184-2.573-0.658-3.041,1.115c0,0.334,0,0.668,0,1.002
		c0.069,0.21,0.151,0.418,0.206,0.632c0.5,1.929,0.514,1.847,2.471,2.192c4.759,0.84,9.542,0.488,14.227-0.164
		c8.173-1.136,16.302-2.594,24.389-4.236c0.877-0.178,1.66-0.381,2.324-1.081c0.78-0.82,1.597-0.587,2.045,0.438
		c0.224,0.513,0.425,1.035,0.624,1.557c0.395,1.036,1.624,1.856,2.741,1.831c0.5-0.012,0.83-0.141,0.755-0.732
		c-0.065-0.514,0.054-1.005,0.411-1.408c0.751-0.846,1.856-1.069,2.847-1.49c0.076-0.032,0.212,0.031,0.305,0.08
		c1.069,0.557,1.658,1.429,1.793,2.598c-1.556-0.076-2.229,0.05-3.393,0.636c-1.398,0.704-1.431,0.827-1.154,2.36
		c0.227,1.258,0.777,2.522,0.515,3.787c-0.346,1.655-1.179,3.189-1.591,4.841c-0.024,0.099-0.127,0.185-0.21,0.261
		c-1.543,1.416-2.931,2.989-4.573,4.302c-0.244,0.194-0.686,1.126-1.015,0c-0.009-0.03-0.17-0.064-0.212-0.034
		c-0.267,0.191-0.725,0.233-0.761,0.607c-0.044,0.447,0.119,0.954,0.447,1.213c0.259,0.205,0.463-0.302,0.716-0.458
		c0.034-0.02,0.094-0.002,0.143-0.002c0.081,0.146,0.041,0.3-0.075,0.376c-0.758,0.496-0.688,1.19-0.527,1.922
		c0.06,0.271,0.053,0.554,0.105,0.828c0.128,0.671-0.168,1.073-0.766,1.407c-2.258,1.264-4.716,1.866-7.274,2.144
		c-1.017,0.11-2.071,0.438-3.036-0.116c-1.582-0.909-3.088-1.934-4.438-3.15c-0.453-0.408-0.804-0.91-0.738-1.58
		c0.278,0.487,0.521,0.993,0.983,1.346c1.376,1.051,2.763,2.089,4.278,2.947c0.868,0.494,1.036,0.419,1.355-0.469
		c0.094-0.264,0.182-0.528,0.275-0.791c0.382-1.085,0.379-1.083-0.756-0.934c-0.539,0.07-1.083,0.151-1.625,0.156
		c-0.927,0.009-1.518-0.338-1.919-1.191c1.176,1.042,2.412,0.726,3.634,0.702c0.965-0.021,1.339-0.479,1.58-1.29
		c0.188-0.632,0.022-0.743-0.575-0.597c-1.391,0.343-2.783,0.673-4.178,0.994c-1.494,0.344-2.265-0.253-2.344-1.796
		c0.674,1.354,1.117,1.689,2.034,1.47c3.454-0.824,6.9-1.675,10.258-2.83c0.947-0.327,1.879-0.686,2.752-1.176
		c0.301-0.168,0.658-0.352,0.431-0.768C43.297,44.414,43,44.7,42.753,44.777c-1.371,0.424-1.539,0.335-2.063-0.978
		c-0.152-0.381-0.12-0.611,0.288-0.792c0.469-0.208,0.933-0.44,1.292-0.815c0.686-0.717,0.584-1.104-0.273-1.549
		c-1.086-0.565-2.329-0.863-2.996-2.089c-1.167-2.149-2.88-3.624-5.431-4.258c-2.134-0.533-3.97-0.083-5.746,0.909
		c-2.275,1.271-3.197,3.484-4.016,5.741c-0.284,0.783-0.256,1.583-0.11,2.392c0.254,1.4,0.991,2.602,1.649,3.837
		c0.34,0.636,0.792,1.236,1.006,1.908c0.168,0.527,0.295,0.989,0.812,1.291c0.341,0.199,0.882,0.454,0.815,0.787
		c-0.114,0.574,0.31,0.636,0.581,0.825c0.282,0.197,0.632,0.304,1.011,0.477c-0.457,0.225-0.857,0.351-1.287,0.412
		c-1.006,0.142-1.063,0.237-0.597,1.15c0.421,0.824,0.873,1.629,0.873,2.591c0,0.384,0.198,0.731,0.56,0.883
		c0.827,0.343,0.976,1.006,0.993,1.763c0.011,0.472,0.055,0.944,0.064,1.418c0.037,1.782,0.71,3.221,2.253,4.277
		c0.65,0.444,1.186,1.05,1.762,1.592c4.104,3.859,8.302,7.619,12.675,11.187C48.25,78.863,49.314,80.053,49.487,81.854z"/>
	<path style="fill:#FFFFFF;" d="M60.263,23.428c-0.199-0.009-0.438-0.096-0.573,0.064c-0.16,0.188,0.039,0.356,0.151,0.51
		c0.371,0.51,0.033,0.746-0.39,0.621c-0.821-0.243-1.689,0.104-2.507-0.231c0.926,0.883,2.15,1.196,3.307,1.633
		c0.099,0.038,0.23,0.022,0.34-0.001c0.791-0.167,1.235,0.252,1.584,0.858c0.323,0.561,0.392,1.204,0.678,1.981
		c0.108-0.931,0.189-1.673,0.281-2.413c0.037-0.301,0.041-0.647,0.394-0.777c1.003-0.369,0.999-1.192,1.099-2.038
		c0.102-0.854-0.15-1.24-1.063-1.229c-0.919,0.011-1.574-0.325-1.67-1.34c-0.033-0.347-0.157-0.705-0.491-1.026
		c-0.015,0.157-0.034,0.213-0.022,0.263c0.041,0.162,0.049,0.354,0.146,0.477c0.758,0.939,0.021,1.776-0.243,2.604
		C61.162,23.764,60.616,23.445,60.263,23.428z"/>
	<path style="fill:#FFFFFF;" d="M15.766,33.149c-0.709-0.029-1.34-0.077-1.823,0.708c-1.796,2.912-3.501,5.87-5.01,8.932
		c-1.021,2.074-1.99,4.172-2.626,6.42c0.121-0.211,0.257-0.415,0.362-0.633c2.435-5.021,5.337-9.772,8.736-14.236
		c0.188-0.247,0.372-0.494,0.552-0.745C16.128,33.355,16.119,33.162,15.766,33.149z"/>
	<path style="fill:#FFFFFF;" d="M34.843,51.455c-0.177,0.525-0.359,1.051-0.553,1.572c-0.153,0.414-0.011,0.573,0.437,0.552
		c1.095-0.186,2.196-0.347,3.284-0.566c1.834-0.37,2.041-0.725,1.59-2.469c-0.112-0.429-0.265-0.605-0.765-0.44
		c-1.081,0.355-2.19,0.624-3.318,0.805C35.169,50.963,34.953,51.128,34.843,51.455z"/>
	<path style="fill:#FFFFFF;" d="M40.418,49.615c-0.449,0.138-0.548,0.337-0.479,0.787c0.3,1.937,0.282,1.939,2.154,1.125
		c0.078-0.034,0.153-0.077,0.234-0.104c0.635-0.206,0.945-0.597,0.796-1.138c-0.03-0.378-0.048-0.627-0.07-0.876
		c-0.054-0.583-0.221-0.869-0.895-0.484C41.624,49.229,41.015,49.433,40.418,49.615z"/>
	<path style="fill:#FFFFFF;" d="M42.726,22.929c0.003,0.005,0.007,0.008,0.011,0.013c0.007,0,0.011,0.002,0.018,0.002
		c-0.003-0.006-0.003-0.011-0.006-0.018C42.741,22.927,42.734,22.929,42.726,22.929z"/>
	<path style="fill:#FFFFFF;" d="M41.255,22.632c-4.594,0.644-9.188,1.285-13.774,1.978c-1.606,0.243-3.245,0.337-4.806,0.833
		c3.628-0.241,7.218-0.801,10.821-1.241c3.083-0.376,6.123-1.052,9.229-1.273C42.336,22.38,41.759,22.562,41.255,22.632z"/>
	<path style="fill:#FFFFFF;" d="M35.925,50.464c0.861-0.229,1.95-0.466,3-0.815c0.8-0.267,0.207-0.847,0.146-1.269
		c-0.053-0.366-0.189-0.779-0.788-0.563c-0.641,0.231-1.307,0.396-1.955,0.61c-0.409,0.134-1.119,1.476-1.026,1.868
		C35.361,50.542,35.537,50.483,35.925,50.464z"/>
	<path style="fill:#FFFFFF;" d="M41.946,46.625c-0.806,0.272-1.618,0.544-2.429,0.82c-0.197,0.068-0.254,0.236-0.215,0.407
		c0.092,0.406,0.21,0.808,0.319,1.21c0.069,0.256,0.243,0.28,0.463,0.191c0.795-0.317,1.598-0.617,2.381-0.959
		c0.477-0.207,0.205-0.581,0.099-0.866C42.448,47.118,42.468,46.675,41.946,46.625z"/>
	<path style="fill:#FFFFFF;" d="M49.202,19.751c0.689-0.675,1.01-0.639,1.796,0.169c0.264-0.645,0.79-0.749,1.405-0.651
		c0.123,0.021,0.304,0.12,0.328-0.108c0.025-0.227-0.146-0.285-0.332-0.267c-1.53,0.155-3.075,0.175-4.579,0.532
		c0.354-0.01,0.676,0.072,0.925,0.351C48.909,19.962,49.004,19.945,49.202,19.751z"/>
	<path style="fill:#FFFFFF;" d="M47.82,19.426c-0.027,0.001-0.053-0.002-0.08,0c-0.004,0.004-0.009,0.007-0.014,0.011
		c0.009,0.001,0.017,0.001,0.025,0.002C47.774,19.434,47.797,19.432,47.82,19.426z"/>
	<path style="fill:#FFFFFF;" d="M56.226,19.165c0.692-0.03,1.422-0.173,1.892,0.491c0.009,0.012,0.187-0.07,0.271-0.128
		c0.68-0.463,1.22-0.34,1.587,0.292c0.248-0.192,0.473-0.366,0.706-0.546C59.528,18.862,57.169,18.765,56.226,19.165z"/>
	<path style="fill:#FFFFFF;" d="M47.726,19.437c-0.542-0.088-1.066,0.008-1.525,0.029c0.214,0.299,0.406,0.569,0.686,0.961
		C47.022,19.86,47.438,19.711,47.726,19.437z"/>
	<path style="fill:#FFFFFF;" d="M54.45,18.903c0.436,0,0.765,0,1.094,0C55.184,18.734,54.842,18.632,54.45,18.903z"/>
	<path style="fill:#FFFFFF;" d="M22.572,25.461c-0.287,0-0.582,0-1.086,0C22.007,25.647,22.296,25.605,22.572,25.461z"/>
	<path style="fill:#FFFFFF;" d="M22.572,25.461c0.011,0,0.022,0,0.033,0l0.001,0.001c0.023-0.007,0.047-0.011,0.069-0.019
		c-0.026,0.002-0.053,0.005-0.079,0.007C22.588,25.455,22.58,25.457,22.572,25.461z"/>
	<path style="fill:#FFFFFF;" d="M94.953,102.59c-0.696-0.933-1.783-1.285-2.976-1.001c-0.855,0.206-1.598,0.623-2.271,1.152
		c-0.397,0.313-0.577,0.207-0.73-0.209c-0.212-0.576-0.419-1.156-0.684-1.711c-1.145-2.396-2.515-4.68-3.773-7.019
		c-1.498-2.784-2.846-5.606-5.521-7.657c-1.619-1.241-2.854-2.956-4.4-4.328c-0.745-0.659-1.249-1.446-1.279-2.467
		c-0.009-0.301-0.021-0.653-0.324-0.828c-0.699-0.407-1.164-1.081-1.843-1.497c-0.47-0.288-0.463-0.492-0.104-0.884
		c1.238-1.353,2.494-2.697,3.646-4.119c8.135-10.049,13.712-21.193,15.271-34.018c0.717-5.898,0.478-11.756-1.492-17.426
		c-3.523-10.147-10.6-16.444-21.579-18.404c-1.212-0.217-2.459-0.145-3.653-0.472c-1.091,0-2.182,0-3.272,0
		c-0.257,0.153-0.546,0.158-0.833,0.172c-4.016,0.206-7.892,1.084-11.66,2.398c-10.112,3.523-18.51,9.502-25.786,17.066
		c-1.364,1.418-2.681,2.878-4.047,4.621c1.133-0.209,2.122,0.238,2.942-0.547c5.345-5.124,11.39-9.259,18.33-12.098
		c6.311-2.581,12.857-3.971,19.729-3.126C69.2,11.486,76.538,16.99,80.508,26.549c3.041,7.318,3.016,14.901,1.43,22.519
		c-1.995,9.578-6.389,18.08-12.599,25.717c-6.587,8.102-14.584,14.468-24.468,18.471c-0.049,0.021-0.188,0.053-0.056,0.174
		c2.013-0.649,3.974-1.439,5.868-2.369c0.639-0.314,0.9-0.117,1.322,0.35c1.37,1.513,1.571,3.461,2.024,5.259
		c0.552,2.196,0.938,4.445,1.066,6.735c0.134,2.395,0.294,4.78,0.18,7.178c-0.095,2.016-0.413,3.944-1.708,5.646
		c-0.565,0.74-1.071,1.501-1.838,2.07c-1.049,0.778-2.072,1.587-3.122,2.364c-0.423,0.313-0.735,0.684-0.962,1.15
		c-1.502,3.097-3.183,6.058-5.331,8.823c-1.864,2.398-3.648,4.77-6.295,6.402c-0.853,0.527-1.152,1.34-1.219,2.277
		c-0.051,0.722-0.131,1.44-0.431,2.119c-0.152,0.346-0.15,0.723-0.033,1.068c0.3,0.885,0.369,1.8,0.451,2.714
		c0.075,0.846,0.49,1.453,1.239,1.888c0.751,0.435,1.599,0.596,2.403,0.88c0.689,0,1.379,0,2.067,0
		c1.313-0.33,2.672-0.272,4.004-0.438c1.255-0.156,1.45-0.328,1.317-1.575c-0.055-0.517,0.073-0.897,0.394-1.3
		c1.104-1.389,2.171-2.807,3.258-4.209c1.399-1.806,2.872-3.548,4.609-5.068c0.427-0.373,0.684-0.45,1.059,0.073
		c0.671,0.938,1.438,1.809,2.131,2.73c0.718,0.954,1.721,1.443,2.854,1.741c0.646,0.171,1.079-0.058,1.215-0.698
		c0.145-0.68,0.264-1.366,0.352-2.055c0.156-1.216,0.221-2.442,0.552-3.632c0.152-0.547,0.426-0.9,1.048-1.072
		c0.702-0.195,1.468-0.322,2.024-0.86c5.413-5.23,11.093-10.185,16.68-15.234c1.748-1.581,3.596-2.82,5.876-3.475
		c0.572-0.163,1.187-0.332,1.591-0.789c1.926-2.177,3.894-4.319,5.503-6.741C95.599,104.428,95.641,103.511,94.953,102.59z
		 M43.069,145.947c-0.623,0.068-1.26,0.014-1.863,0.014c-1.428,0.082-2.778-0.101-4.023-0.771c-0.197-0.106-0.421-0.204-0.562-0.365
		c-0.416-0.475-0.304-2.666,0.169-3.396c0.528-0.815,1.343-0.858,2.209-0.715c1.192,0.195,2.335,0.563,3.466,0.971
		c0.613,0.221,0.987,0.615,1.129,1.252c0.12,0.544,0.344,1.063,0.474,1.604C44.265,145.361,43.937,145.851,43.069,145.947z
		 M60.707,136.016c-0.023,0.333-0.04,0.667-0.07,0.998c-0.066,0.762-0.416,0.946-1.144,0.615c-0.297-0.134-0.521-0.344-0.686-0.609
		c-0.412-0.667-0.811-1.342-1.222-2.009c-0.313-0.509-0.241-0.823,0.419-0.938c0.563-0.099,1.118-0.238,1.669-0.391
		c0.498-0.136,0.836-0.106,0.879,0.509c0.042,0.608,0.136,1.214,0.207,1.82C60.742,136.013,60.724,136.015,60.707,136.016z
		 M65.575,107.256c0.39,0.088,0.564,0.127,0.832,0.187c-1.112,0.109-2.118,0.208-3.167,0.312c1.41-1.525,6.621-1.484,9.097,0.515
		C70.2,107.652,68.114,106.759,65.575,107.256z M94.23,104.804c-2.408,2.36-4.989,4.511-8.046,6.061
		c-0.753,0.383-0.834,0.398-1.583,0.292c0.788-0.961,1.619-1.82,2.668-2.463c0.218-0.133,0.446-0.251,0.672-0.372
		c2.221-1.21,2.53-1.944,1.643-4.277c-0.243-0.641-0.103-0.989,0.472-1.274c0.535-0.266,1.044-0.594,1.599-0.808
		c1.011-0.389,2.043-0.181,2.617,0.453C95.195,103.438,95.209,103.844,94.23,104.804z"/>
</g>
</svg>
