<?xml version="1.0" encoding="iso-8859-1"?>
<!DOCTYPE svg PUBLIC "-//W3C//DTD SVG 1.1//EN" "http://www.w3.org/Graphics/SVG/1.1/DTD/svg11.dtd">
<svg xmlns="http://www.w3.org/2000/svg" xmlns:xlink="http://www.w3.org/1999/xlink" version="1.1" viewBox="0 0 315.258 315.258" enable-background="new 0 0 315.258 315.258" width="512px" height="512px">
  <g>
    <circle cx="71.681" cy="25.907" r="25.907" fill="#FFFFFF"/>
    <path d="m38.061,60.071c-16.23,0-29.5,13.204-29.581,29.434v91.832c-0.034,6.903 5.073,12.527 11.977,12.563 0.021,0 0.042,0 0.063,0 6.874,0 12.464-5.556 12.499-12.438v-93.68c0-1.497 1.213-2.71 2.71-2.71 1.497,0 2.71,1.213 2.71,2.71l.006,211.977c0,8.525 7.111,15.389 15.725,14.983 8.068-0.38 14.275-7.33 14.275-15.407v-116.763c0-1.497 1.213-2.71 2.71-2.71h1.056c1.497,0 2.71,1.213 2.71,2.71v116.762c0,8.077 6.207,15.027 14.275,15.407 8.614,0.406 15.725-6.458 15.725-14.983l-.271-214.687h10.458c1.202-9.781 5.822-18.523 12.623-25h-89.67z" fill="#FFFFFF"/>
    <circle cx="189.987" cy="26.407" r="25.907" fill="#FFFFFF"/>
    <path d="m302.188,24.627h-34.319c-2.535,0-4.59,2.055-4.59,4.59v13.44c0,8.984 5.448,16.695 13.219,20.012 0.011,0.017 0.019,0.029 0.03,0.046v16.12c-0.202,0.178-0.408,0.351-0.601,0.544l-21.167,21.221c-0.04-0.013-0.046-0.016-0.086-0.029l-1.504-11.458v-0.002c-0.552-15.818-13.632-28.542-29.563-28.542h-67.239c-16.23,0-29.5,13.204-29.581,29.434v91.832c-0.034,6.903 5.073,12.527 11.977,12.563 0.021,0 0.042,0 0.063,0 6.874,0 12.464-5.556 12.499-12.438v-94.026c0-1.468 1.099-2.783 2.564-2.86 1.563-0.082 2.856,1.161 2.856,2.706v212c0,8.105 6.226,15.103 14.323,15.462 8.595,0.381 15.683-6.474 15.683-14.985v-117.135c0-1.525 1.236-2.761 2.761-2.761h0.955c1.525,0 2.761,1.236 2.761,2.761v116.665c0,8.103 6.226,15.098 14.321,15.455 8.593,0.379 15.679-6.476 15.679-14.985l-.269-212.421c-0.002-1.527 1.235-2.766 2.762-2.766 1.405,0 2.586,1.054 2.744,2.45l4.701,41.29c0.498,3.794 2.559,7.281 5.818,9.288 2.078,1.279 4.361,1.887 6.613,1.887 3.268,0 6.468-1.282 8.853-3.673l39.177-39.277c4.875-4.888 4.864-12.802-0.023-17.678-0.025-0.025-0.052-0.045-0.077-0.07v-16.571c0.011-0.017 0.019-0.029 0.03-0.046 7.772-3.317 13.22-11.028 13.22-20.013v-13.44c0-2.534-2.055-4.59-4.59-4.59z" fill="#FFFFFF"/>
  </g>
</svg>
