<svg xmlns="http://www.w3.org/2000/svg" width="24" height="24" viewBox="0 0 24 24">
  <metadata><?xpacket begin="﻿" id="W5M0MpCehiHzreSzNTczkc9d"?>
<x:xmpmeta xmlns:x="adobe:ns:meta/" x:xmptk="Adobe XMP Core 5.6-c138 79.159824, 2016/09/14-01:09:01        ">
   <rdf:RDF xmlns:rdf="http://www.w3.org/1999/02/22-rdf-syntax-ns#">
      <rdf:Description rdf:about=""/>
   </rdf:RDF>
</x:xmpmeta>
                                                                                                    
                                                                                                    
                                                                                                    
                                                                                                    
                                                                                                    
                                                                                                    
                                                                                                    
                                                                                                    
                                                                                                    
                                                                                                    
                                                                                                    
                                                                                                    
                                                                                                    
                                                                                                    
                                                                                                    
                                                                                                    
                                                                                                    
                                                                                                    
                                                                                                    
                                                                                                    
                           
<?xpacket end="w"?></metadata>
<defs>
    <style>
      .cls-1 {
        fill: #fff;
        fill-rule: evenodd;
      }
    </style>
  </defs>
  <path id="main_course" class="cls-1" d="M12,1.88A10.114,10.114,0,0,0,7.645,21.124L7.961,15s-0.6-.2-0.726-0.26c-1.264-.556-2.182-2.2-2.182-4.323,0-2.321,1.8-4.321,3.541-4.337H8.6C10.342,6.1,12.143,8.1,12.143,10.421c0,2.127-.919,3.766-2.181,4.323L9.23,15.01l0.354,6.806a9.924,9.924,0,0,0,5.636-.228l0.314-6.065a3.249,3.249,0,0,1-1.973-1.367c-0.548-.82.421-8.073,0.421-8.073h0.631V12.89h0.626V6.083h0.683V12.89h0.623V6.083h0.709V12.89h0.625V6.083h0.484s0.967,7.253.42,8.073a3.261,3.261,0,0,1-1.951,1.363L16.8,15.53l0.271,5.217A10.114,10.114,0,0,0,12,1.88ZM6.535,9.392A2.8,2.8,0,0,1,6.622,9.1a0.132,0.132,0,0,0-.073-0.148,0.121,0.121,0,0,0-.159.034L6.22,9.261a2.931,2.931,0,0,0-.285.644,5.322,5.322,0,0,0-.2.934,4.421,4.421,0,0,0-.014.541,2.564,2.564,0,0,0,.1.574,3.707,3.707,0,0,0,.9,1.652A3.08,3.08,0,0,0,7.217,14L7.263,14.03c0.028,0.019.055,0.035,0.081,0.05a0.9,0.9,0,0,0,.195.081,0.11,0.11,0,0,0,.094-0.2,1.253,1.253,0,0,1-.144-0.158A2.818,2.818,0,0,1,7.3,13.553C7.254,13.481,7.2,13.4,7.142,13.321A8.186,8.186,0,0,1,6.5,11.749a2.09,2.09,0,0,1-.089-0.433,4.4,4.4,0,0,1-.026-0.463,6.155,6.155,0,0,1,.038-0.859A3.355,3.355,0,0,1,6.535,9.392ZM12,0A12,12,0,1,0,24,12,12.015,12.015,0,0,0,12,0Zm0,23.105A11.106,11.106,0,1,1,23.106,12,11.119,11.119,0,0,1,12,23.105Z"/>
</svg>
