<svg xmlns="http://www.w3.org/2000/svg" width="95" height="99" viewBox="0 0 95 99">
  <metadata><?xpacket begin="﻿" id="W5M0MpCehiHzreSzNTczkc9d"?>
<x:xmpmeta xmlns:x="adobe:ns:meta/" x:xmptk="Adobe XMP Core 5.6-c138 79.159824, 2016/09/14-01:09:01        ">
   <rdf:RDF xmlns:rdf="http://www.w3.org/1999/02/22-rdf-syntax-ns#">
      <rdf:Description rdf:about=""/>
   </rdf:RDF>
</x:xmpmeta>
                                                                                                    
                                                                                                    
                                                                                                    
                                                                                                    
                                                                                                    
                                                                                                    
                                                                                                    
                                                                                                    
                                                                                                    
                                                                                                    
                                                                                                    
                                                                                                    
                                                                                                    
                                                                                                    
                                                                                                    
                                                                                                    
                                                                                                    
                                                                                                    
                                                                                                    
                                                                                                    
                           
<?xpacket end="w"?></metadata>
<defs>
    <style>
      .cls-1 {
        fill: #fff;
        fill-rule: evenodd;
      }
    </style>
  </defs>
  <path id="minimal" class="cls-1" d="M48.5,22.367a25.635,25.635,0,0,0-19.933,41.4c0.7,0.9,1.436,1.762,2.215,2.675l0.043,0.05c2.383,2.793,4.847,5.681,5.767,9.082A16.045,16.045,0,0,1,36.818,79v1.956a3.226,3.226,0,0,0,3.21,3.242H56.835a3.226,3.226,0,0,0,3.21-3.242V78.979a13.943,13.943,0,0,1,.222-3.17c0.925-3.379,3.656-6.623,6.087-9.511l0.1-.124c0.7-.833,1.364-1.619,1.968-2.394A25.637,25.637,0,0,0,48.5,22.367Zm14.88,37.4c-0.529.679-1.152,1.419-1.812,2.2l-0.129.153c-2.84,3.373-6.058,7.2-7.363,11.96a14.736,14.736,0,0,0-.442,3.632h-10.4a15.546,15.546,0,0,0-.443-3.837c-1.305-4.826-4.518-8.591-7.1-11.618l-0.043-.051c-0.73-.855-1.419-1.662-2.031-2.449A18.935,18.935,0,1,1,63.382,59.769ZM56.835,85.12H40.028a3.242,3.242,0,0,0,0,6.484H56.835A3.242,3.242,0,0,0,56.835,85.12Zm-4.2,7.4h-8.4a3.242,3.242,0,0,0,0,6.484h8.4A3.242,3.242,0,0,0,52.633,92.516ZM92.791,44.737H81.718a3.242,3.242,0,0,0,0,6.484H92.791A3.242,3.242,0,0,0,92.791,44.737Zm-74.3,3.242a3.226,3.226,0,0,0-3.21-3.242H4.209a3.242,3.242,0,0,0,0,6.484H15.283A3.226,3.226,0,0,0,18.493,47.979ZM48.5,17.672a3.226,3.226,0,0,0,3.21-3.242V3.242a3.21,3.21,0,1,0-6.42,0V14.43A3.226,3.226,0,0,0,48.5,17.672ZM74.257,69.411a3.187,3.187,0,0,0-4.539,0,3.266,3.266,0,0,0,0,4.585l7.83,7.911a3.188,3.188,0,0,0,4.539,0,3.265,3.265,0,0,0,0-4.585ZM22.74,26.545a3.186,3.186,0,0,0,4.539,0,3.265,3.265,0,0,0,0-4.585l-7.827-7.909a3.187,3.187,0,0,0-4.539,0,3.265,3.265,0,0,0,0,4.585Zm0,42.865-7.831,7.911a3.265,3.265,0,0,0,0,4.585,3.188,3.188,0,0,0,4.54,0L27.283,74a3.265,3.265,0,0,0,0-4.585A3.188,3.188,0,0,0,22.743,69.411ZM71.989,27.5a3.184,3.184,0,0,0,2.27-.95l7.828-7.908a3.265,3.265,0,0,0,0-4.585,3.186,3.186,0,0,0-4.539,0l-7.829,7.908a3.265,3.265,0,0,0,0,4.585A3.179,3.179,0,0,0,71.989,27.5Z" transform="translate(-1)"/>
</svg>
