<svg xmlns="http://www.w3.org/2000/svg" width="24" height="23.969" viewBox="0 0 24 23.969">
  <metadata><?xpacket begin="﻿" id="W5M0MpCehiHzreSzNTczkc9d"?>
<x:xmpmeta xmlns:x="adobe:ns:meta/" x:xmptk="Adobe XMP Core 5.6-c138 79.159824, 2016/09/14-01:09:01        ">
   <rdf:RDF xmlns:rdf="http://www.w3.org/1999/02/22-rdf-syntax-ns#">
      <rdf:Description rdf:about=""/>
   </rdf:RDF>
</x:xmpmeta>
                                                                                                    
                                                                                                    
                                                                                                    
                                                                                                    
                                                                                                    
                                                                                                    
                                                                                                    
                                                                                                    
                                                                                                    
                                                                                                    
                                                                                                    
                                                                                                    
                                                                                                    
                                                                                                    
                                                                                                    
                                                                                                    
                                                                                                    
                                                                                                    
                                                                                                    
                                                                                                    
                           
<?xpacket end="w"?></metadata>
<defs>
    <style>
      .cls-1 {
        fill: #fff;
        fill-rule: evenodd;
      }
    </style>
  </defs>
  <path id="miscellaneous" class="cls-1" d="M7.6,14.991Q7.451,15,7.3,15a3.6,3.6,0,0,1-.816-0.1L0.335,21.077a0.778,0.778,0,0,0,0,1.1l1.591,1.6a0.769,0.769,0,0,0,1.092,0l7.389-7.421L9.037,14.868ZM23.783,5.1a0.736,0.736,0,0,0-1.044,0l-3.984,4a0.962,0.962,0,0,1-1.364,0,0.973,0.973,0,0,1,0-1.369l3.964-3.981a0.775,0.775,0,0,0,0-1.091,0.767,0.767,0,0,0-1.086,0L16.306,6.639a0.961,0.961,0,0,1-1.364,0,0.971,0.971,0,0,1,0-1.369l3.983-4a0.744,0.744,0,0,0,0-1.051,0.737,0.737,0,0,0-1.046,0L13.4,4.72a4.174,4.174,0,0,0-1.069,3.987l3,3.018A4.13,4.13,0,0,0,19.3,10.65l4.482-4.5A0.744,0.744,0,0,0,23.783,5.1ZM2.014,0.625A0.811,0.811,0,0,0,1.439.386,0.811,0.811,0,0,0,.707.847,7.137,7.137,0,0,0,2.074,8.974L5.886,12.8a1.991,1.991,0,0,0,1.412.588q0.085,0,.169-0.007l2.213-.19,9.652,10.459a0.812,0.812,0,0,0,.581.261h0.014a0.816,0.816,0,0,0,.577-0.239l1.653-1.661a0.82,0.82,0,0,0,0-1.155Z" transform="translate(0 -0.031)"/>
</svg>
