<svg xmlns="http://www.w3.org/2000/svg" width="24" height="24" viewBox="0 0 24 24">
  <metadata><?xpacket begin="﻿" id="W5M0MpCehiHzreSzNTczkc9d"?>
<x:xmpmeta xmlns:x="adobe:ns:meta/" x:xmptk="Adobe XMP Core 5.6-c138 79.159824, 2016/09/14-01:09:01        ">
   <rdf:RDF xmlns:rdf="http://www.w3.org/1999/02/22-rdf-syntax-ns#">
      <rdf:Description rdf:about=""/>
   </rdf:RDF>
</x:xmpmeta>
                                                                                                    
                                                                                                    
                                                                                                    
                                                                                                    
                                                                                                    
                                                                                                    
                                                                                                    
                                                                                                    
                                                                                                    
                                                                                                    
                                                                                                    
                                                                                                    
                                                                                                    
                                                                                                    
                                                                                                    
                                                                                                    
                                                                                                    
                                                                                                    
                                                                                                    
                                                                                                    
                           
<?xpacket end="w"?></metadata>
<defs>
    <style>
      .cls-1 {
        fill: #fff;
        fill-rule: evenodd;
      }
    </style>
  </defs>
  <path id="soup" class="cls-1" d="M7.7,18.684h7.891c4.173,0,6.842-4.6,6.687-7.1a0.769,0.769,0,0,0,.014-0.147c0-.759-1.051-1.238-3.517-1.6a51.9,51.9,0,0,0-6.938-.451v0l-0.193,0-0.192,0v0a51.645,51.645,0,0,0-6.938.451C2.052,10.2,1,10.683,1,11.442a0.856,0.856,0,0,0,.014.147C0.859,14.086,3.528,18.684,7.7,18.684Zm3.945-8.228c5.279,0.016,8.411.6,9.243,0.985-0.832.387-3.964,0.968-9.243,0.985-5.278-.016-8.41-0.6-9.242-0.985C3.237,11.054,6.368,10.473,11.647,10.457ZM8.41,5.68a2.251,2.251,0,0,0,.258.3L8.9,6.2a1.478,1.478,0,0,1,.141.215,1.668,1.668,0,0,1,.181.5,4.071,4.071,0,0,1,.049,1.046c-0.053.646-.13,1.118-0.13,1.118a3.217,3.217,0,0,0,.766-1,2.685,2.685,0,0,0,.22-0.556,2.16,2.16,0,0,0,.1-0.673,1.805,1.805,0,0,0-.155-0.761,2.19,2.19,0,0,0-.221-0.38A1.832,1.832,0,0,0,9.688,5.54L9.606,5.454,9.565,5.413,9.555,5.4c0,0.005.014,0.012,0.029,0.026l0,0L9.564,5.408a1.841,1.841,0,0,1-.228-0.241,1.079,1.079,0,0,1-.115-0.194,1.885,1.885,0,0,1-.169-0.508,4.517,4.517,0,0,1-.039-1.052c0.053-.647.123-1.121,0.123-1.121a3.278,3.278,0,0,0-.761,1,2.743,2.743,0,0,0-.327,1.222,1.828,1.828,0,0,0,.134.759A1.7,1.7,0,0,0,8.41,5.68Zm2.512-2.292a2.282,2.282,0,0,0,.258.3L11.408,3.91a1.53,1.53,0,0,1,.141.217,1.665,1.665,0,0,1,.181.5,4.072,4.072,0,0,1,.049,1.046c-0.053.646-.131,1.118-0.131,1.118a3.208,3.208,0,0,0,.766-1,2.707,2.707,0,0,0,.221-0.556,2.191,2.191,0,0,0,.1-0.672A1.807,1.807,0,0,0,12.575,3.8a2.315,2.315,0,0,0-.221-0.38c-0.045-.062-0.1-0.116-0.155-0.175l-0.082-.086L12.077,3.12l-0.009-.011c0,0.005.013,0.012,0.029,0.026l0,0-0.016-.017a1.839,1.839,0,0,1-.228-0.24,1.014,1.014,0,0,1-.115-0.2,1.879,1.879,0,0,1-.169-0.507,4.479,4.479,0,0,1-.039-1.054C11.58,0.472,11.649,0,11.649,0a3.281,3.281,0,0,0-.761,1,2.746,2.746,0,0,0-.327,1.222,1.826,1.826,0,0,0,.134.76A1.71,1.71,0,0,0,10.921,3.388Zm3.1,2.078a2.27,2.27,0,0,0,.258.3l0.229,0.222a1.524,1.524,0,0,1,.141.217,1.711,1.711,0,0,1,.181.5,4.033,4.033,0,0,1,.049,1.046c-0.053.647-.13,1.118-0.13,1.118a3.205,3.205,0,0,0,.766-1,2.672,2.672,0,0,0,.22-0.556,2.191,2.191,0,0,0,.1-0.672,1.806,1.806,0,0,0-.155-0.761,2.2,2.2,0,0,0-.222-0.38A2.263,2.263,0,0,0,15.3,5.327l-0.082-.086L15.182,5.2l-0.011-.011L15.2,5.214l0,0-0.016-.017a1.735,1.735,0,0,1-.228-0.24,1.007,1.007,0,0,1-.116-0.2,1.847,1.847,0,0,1-.168-0.506A4.428,4.428,0,0,1,14.631,3.2c0.053-.647.122-1.12,0.122-1.12a3.281,3.281,0,0,0-.76,1A2.734,2.734,0,0,0,13.666,4.3a1.807,1.807,0,0,0,.133.759A1.668,1.668,0,0,0,14.026,5.465Zm8.969,16.12c-0.032-1.517-1.826-2.373-3.778-2.373-1.968,0-3.372.959-3.683,1.793-0.792.458-2.664,0.158-3.744-.166-0.516,0-8.426,0-8.426,0H3.346a0.808,0.808,0,0,0-.877.71c0,0.02,0,.1,0,0.116a0.807,0.807,0,0,0,.877.709h8.445c1.08-.323,2.951-0.626,3.743-0.169C15.847,23.042,17.251,24,19.219,24c1.95,0,3.746-.857,3.776-2.374h0c0-.008,0-0.034,0-0.041h0Zm-2.3-1.385-0.578-.017a12.584,12.584,0,0,0-1.675.037,2.665,2.665,0,0,0-.419.088c-0.14.034-.281,0.077-0.414,0.122-0.27.084-.52,0.176-0.735,0.256s-0.392.152-.512,0.206a0.375,0.375,0,0,0-.17.106,0.286,0.286,0,0,1,.106-0.165,2.63,2.63,0,0,1,.424-0.343,5.018,5.018,0,0,1,.695-0.387c0.136-.06.281-0.118,0.434-0.172a3.023,3.023,0,0,1,.5-0.122,4.014,4.014,0,0,1,1-.015,5.172,5.172,0,0,1,.824.14,3.579,3.579,0,0,1,.556.179,1.105,1.105,0,0,1,.195.1S20.832,20.2,20.694,20.2Z"/>
</svg>
