<svg xmlns="http://www.w3.org/2000/svg" width="24" height="24" viewBox="0 0 24 24">
  <metadata><?xpacket begin="﻿" id="W5M0MpCehiHzreSzNTczkc9d"?>
<x:xmpmeta xmlns:x="adobe:ns:meta/" x:xmptk="Adobe XMP Core 5.6-c138 79.159824, 2016/09/14-01:09:01        ">
   <rdf:RDF xmlns:rdf="http://www.w3.org/1999/02/22-rdf-syntax-ns#">
      <rdf:Description rdf:about=""/>
   </rdf:RDF>
</x:xmpmeta>
                                                                                                    
                                                                                                    
                                                                                                    
                                                                                                    
                                                                                                    
                                                                                                    
                                                                                                    
                                                                                                    
                                                                                                    
                                                                                                    
                                                                                                    
                                                                                                    
                                                                                                    
                                                                                                    
                                                                                                    
                                                                                                    
                                                                                                    
                                                                                                    
                                                                                                    
                                                                                                    
                           
<?xpacket end="w"?></metadata>
<defs>
    <style>
      .cls-1 {
        fill: #fff;
        fill-rule: evenodd;
      }
    </style>
  </defs>
  <path id="starter" class="cls-1" d="M2.284,8.454h0.65L1.73,5.2l0.818-.59,1.072,2.9L3.925,8.333,3.969,8.454h1.1L4.23,6.18,3.925,5.357,3.62,4.532l-0.1-.268,0.1-.006,0.305-.02L4.23,4.217l0.3-.02L5.2,6.011,5.508,6.835,5.629,7.16l0.185,0.5,0.12,0.325,0.174,0.47h0.65l-0.518-1.4V2.238L7.212,2.516V8.454h0.61V2.065l-0.44-.126-0.693-.2L5.814,1.5,5.707,1.474l-0.078.02-0.157.041-0.439.125L4.06,1.939l-0.44.126V3.292l0.305-.026L4.23,3.24V2.516L5.2,2.238V4.256L5.1,3.992,4.953,3.58,4.23,3.642l-0.305.026L3.62,3.694,2.88,3.757l-0.191.016H2.678l-0.492.355-0.817.59L1,4.985,1.157,5.409Zm15.86-6.22-0.429-.159-0.948-.352L16.62,1.667l-0.434-.143-0.112-.037L16,1.5l-0.372.068L15.4,1.617l-0.992.2-0.449.091-0.036.45L13.3,10.094l-0.024.3a2.91,2.91,0,0,0,.316-0.118,2.6,2.6,0,0,0,.32-0.167l0.614-7.7,0.992-.2-0.5,6.249H16.06l0.492-6.169L17.5,2.637,17.036,8.454h0.917l1.392-4.267,1.013,0.028L18.976,8.454h1.088l1.281-3.927,0.84,0.558-1.1,3.369h0.642l1.039-3.186,0.141-.43-0.38-.253-0.84-.558-0.336-.223L21.17,3.695l-0.083-.051-0.093,0L20.6,3.62l-0.228-.006-1.013-.028-0.458-.013L18.765,4,17.758,7.089l0.351-4.406ZM12.3,10.544c0.082,0,.163,0,0.242-0.008,0.1-.007.205-0.02,0.305-0.037V0.614l-2.009-.571L10.69,0l-0.039.012L8.642,0.6V8.454h0.61V1.033l0.973-.278V9.746a2.119,2.119,0,0,0,.305.267c0.039,0.028.079,0.055,0.12,0.081,0.059,0.038.121,0.073,0.185,0.107,0.04,0.021.079,0.042,0.12,0.06a2.951,2.951,0,0,0,.305.119V0.755l0.973,0.278v9.509Zm9.3-1.689H15.21a1.831,1.831,0,0,1-.287.833,2.346,2.346,0,0,1-.523.571,2.76,2.76,0,0,1-.334.229,3.139,3.139,0,0,1-.425.208,3.539,3.539,0,0,1-.8.21c-0.1.014-.2,0.024-0.305,0.031-0.08.005-.161,0.009-0.243,0.009l-0.063,0a3.711,3.711,0,0,1-.973-0.144c-0.1-.03-0.207-0.064-0.305-0.1-0.041-.016-0.08-0.035-0.12-0.053-0.063-.028-0.125-0.057-0.185-0.089-0.04-.021-0.081-0.043-0.12-0.065a2.807,2.807,0,0,1-.305-0.206,2.033,2.033,0,0,1-.842-1.428H1.594L4.607,24h15.38L23,8.855H21.6Zm-1.87,4.217-1.6,9H16.372l1.643-9.253,0-.025,0.014-.077,0.151-.85,0.126-.706h1.756l-0.165.932-0.122.686Z"/>
</svg>
