<?xml version="1.0" encoding="iso-8859-1"?>
<!-- Generator: Adobe Illustrator 19.0.0, SVG Export Plug-In . SVG Version: 6.00 Build 0)  -->
<svg xmlns="http://www.w3.org/2000/svg" xmlns:xlink="http://www.w3.org/1999/xlink" version="1.1" id="Layer_1" x="0px" y="0px" viewBox="0 0 512 512" style="enable-background:new 0 0 512 512;" xml:space="preserve" width="512px" height="512px">
<g>
	<g>
		<path d="M358.4,85.837V25.6c0-14.14-11.46-25.6-25.6-25.6H179.2c-14.14,0-25.6,11.46-25.6,25.6v60.237    c-38.34,4.267-68.267,36.838-68.267,76.297v187.733c0,39.458,29.926,72.038,68.267,76.297V486.4c0,14.14,11.46,25.6,25.6,25.6    h153.6c14.14,0,25.6-11.46,25.6-25.6v-60.237c38.34-4.267,68.267-36.838,68.267-76.297V162.133    C426.667,122.675,396.74,90.095,358.4,85.837z M179.2,25.6h153.6v59.733H179.2V25.6z M332.8,486.4H179.2v-59.733h153.6V486.4z     M401.067,349.867c0,28.279-22.921,51.2-51.2,51.2H162.133c-28.279,0-51.2-22.921-51.2-51.2V162.133    c0-28.279,22.921-51.2,51.2-51.2h187.733c28.279,0,51.2,22.921,51.2,51.2V349.867z" fill="#FFFFFF"/>
	</g>
</g>
<g>
	<g>
		<path d="M347.051,182.17c-13.355-13.346-30.763-20.036-48.256-20.036c-0.043,0-0.085,0-0.128,0    c-15.087,0.026-30.242,5.026-42.667,14.967c-12.416-9.941-27.58-14.942-42.667-14.967c-0.043,0-0.085,0-0.128,0    c-17.493,0-34.901,6.69-48.256,20.036c-13.389,13.397-19.883,31.07-19.883,48.23c0,16.64,7.014,34.893,20.335,48.213L256,366.933    l90.598-88.32c13.32-13.32,20.335-31.573,20.335-48.213C366.933,213.24,360.439,195.567,347.051,182.17z M328.491,260.514    L256,331.179l-72.491-70.673c-7.919-7.91-12.843-19.447-12.843-30.106c0-11.273,4.514-22.255,12.39-30.131    c8.081-8.081,18.79-12.535,30.234-12.535c9.711,0.017,19.2,3.337,26.718,9.353L256,209.894l16-12.809    c7.518-6.016,17.007-9.335,26.718-9.353c11.435,0,22.144,4.454,30.234,12.535c7.868,7.876,12.382,18.859,12.382,30.131    C341.333,241.058,336.41,252.595,328.491,260.514z" fill="#FFFFFF"/>
	</g>
</g>
<g>
</g>
<g>
</g>
<g>
</g>
<g>
</g>
<g>
</g>
<g>
</g>
<g>
</g>
<g>
</g>
<g>
</g>
<g>
</g>
<g>
</g>
<g>
</g>
<g>
</g>
<g>
</g>
<g>
</g>
</svg>
